<mxfile host="app.diagrams.net" agent="Mozilla/5.0 (X11; Linux x86_64) AppleWebKit/537.36 (KHTML, like Gecko) Chrome/140.0.0.0 Safari/537.36" version="28.2.6" pages="6">
  <diagram name="网格和材质的渲染" id="xnzxN-momgelOs1ODRZC">
    <mxGraphModel dx="571" dy="451" grid="1" gridSize="10" guides="1" tooltips="1" connect="1" arrows="1" fold="1" page="1" pageScale="1" pageWidth="827" pageHeight="1169" math="0" shadow="0">
      <root>
        <mxCell id="0" />
        <mxCell id="1" parent="0" />
        <mxCell id="QsTrsV8T2DVDhqD8kG_y-3" value="bevy" style="rounded=0;whiteSpace=wrap;html=1;fillColor=#dae8fc;strokeColor=#6c8ebf;align=left;verticalAlign=bottom;" parent="1" vertex="1">
          <mxGeometry x="120" y="150" width="440" height="230" as="geometry" />
        </mxCell>
        <mxCell id="BmFtjQihBc6PRuAoSr6n-3" value="" style="rounded=1;whiteSpace=wrap;html=1;fillColor=#d5e8d4;strokeColor=#82b366;" vertex="1" parent="1">
          <mxGeometry x="404" y="155" width="120" height="220" as="geometry" />
        </mxCell>
        <mxCell id="QsTrsV8T2DVDhqD8kG_y-4" value="gpu" style="rounded=0;whiteSpace=wrap;html=1;fillColor=#d5e8d4;strokeColor=#82b366;align=left;verticalAlign=bottom;" parent="1" vertex="1">
          <mxGeometry x="120" y="500.26" width="490" height="210" as="geometry" />
        </mxCell>
        <mxCell id="QsTrsV8T2DVDhqD8kG_y-7" value="sprite" style="rounded=1;whiteSpace=wrap;html=1;fillColor=#fff2cc;strokeColor=#d6b656;" parent="1" vertex="1">
          <mxGeometry x="414" y="200" width="100" height="30" as="geometry" />
        </mxCell>
        <mxCell id="QsTrsV8T2DVDhqD8kG_y-13" style="edgeStyle=orthogonalEdgeStyle;rounded=0;orthogonalLoop=1;jettySize=auto;html=1;" parent="1" source="QsTrsV8T2DVDhqD8kG_y-8" target="QsTrsV8T2DVDhqD8kG_y-48" edge="1">
          <mxGeometry relative="1" as="geometry">
            <mxPoint x="640" y="260" as="targetPoint" />
            <Array as="points">
              <mxPoint x="590" y="260" />
              <mxPoint x="590" y="450" />
            </Array>
          </mxGeometry>
        </mxCell>
        <mxCell id="QsTrsV8T2DVDhqD8kG_y-8" value="text2d" style="rounded=1;whiteSpace=wrap;html=1;fillColor=#fff2cc;strokeColor=#d6b656;" parent="1" vertex="1">
          <mxGeometry x="414" y="245" width="100" height="30" as="geometry" />
        </mxCell>
        <mxCell id="QsTrsV8T2DVDhqD8kG_y-14" style="edgeStyle=orthogonalEdgeStyle;rounded=0;orthogonalLoop=1;jettySize=auto;html=1;" parent="1" source="QsTrsV8T2DVDhqD8kG_y-9" target="QsTrsV8T2DVDhqD8kG_y-48" edge="1">
          <mxGeometry relative="1" as="geometry">
            <mxPoint x="640" y="260" as="targetPoint" />
            <Array as="points">
              <mxPoint x="590" y="305" />
              <mxPoint x="590" y="450" />
            </Array>
          </mxGeometry>
        </mxCell>
        <mxCell id="QsTrsV8T2DVDhqD8kG_y-9" value="wireframe" style="rounded=1;whiteSpace=wrap;html=1;fillColor=#fff2cc;strokeColor=#d6b656;" parent="1" vertex="1">
          <mxGeometry x="414" y="290" width="100" height="30" as="geometry" />
        </mxCell>
        <mxCell id="QsTrsV8T2DVDhqD8kG_y-10" value="Meshable" style="rounded=1;whiteSpace=wrap;html=1;verticalAlign=top;fillColor=#d5e8d4;strokeColor=#82b366;" parent="1" vertex="1">
          <mxGeometry x="265" y="230" width="120" height="70" as="geometry" />
        </mxCell>
        <mxCell id="QsTrsV8T2DVDhqD8kG_y-46" style="edgeStyle=orthogonalEdgeStyle;rounded=0;orthogonalLoop=1;jettySize=auto;html=1;" parent="1" source="QsTrsV8T2DVDhqD8kG_y-5" target="BmFtjQihBc6PRuAoSr6n-4" edge="1">
          <mxGeometry relative="1" as="geometry">
            <mxPoint x="310" y="350" as="sourcePoint" />
            <mxPoint x="340" y="270" as="targetPoint" />
            <Array as="points">
              <mxPoint x="290" y="280" />
              <mxPoint x="290" y="280" />
            </Array>
          </mxGeometry>
        </mxCell>
        <mxCell id="QsTrsV8T2DVDhqD8kG_y-5" value="shape原语" style="rounded=1;whiteSpace=wrap;html=1;fillColor=#ffe6cc;strokeColor=#d79b00;" parent="1" vertex="1">
          <mxGeometry x="275" y="260" width="100" height="30" as="geometry" />
        </mxCell>
        <mxCell id="QsTrsV8T2DVDhqD8kG_y-35" style="edgeStyle=orthogonalEdgeStyle;rounded=0;orthogonalLoop=1;jettySize=auto;html=1;" parent="1" source="QsTrsV8T2DVDhqD8kG_y-48" target="QsTrsV8T2DVDhqD8kG_y-19" edge="1">
          <mxGeometry relative="1" as="geometry">
            <mxPoint x="705.0344827586209" y="325" as="sourcePoint" />
            <Array as="points">
              <mxPoint x="325" y="490" />
              <mxPoint x="425" y="490" />
            </Array>
          </mxGeometry>
        </mxCell>
        <mxCell id="QsTrsV8T2DVDhqD8kG_y-36" value="段着色器" style="edgeLabel;html=1;align=center;verticalAlign=middle;resizable=0;points=[];" parent="QsTrsV8T2DVDhqD8kG_y-35" vertex="1" connectable="0">
          <mxGeometry x="0.7527" relative="1" as="geometry">
            <mxPoint x="-35" y="-14" as="offset" />
          </mxGeometry>
        </mxCell>
        <mxCell id="QsTrsV8T2DVDhqD8kG_y-12" style="edgeStyle=orthogonalEdgeStyle;rounded=0;orthogonalLoop=1;jettySize=auto;html=1;" parent="1" source="QsTrsV8T2DVDhqD8kG_y-7" target="QsTrsV8T2DVDhqD8kG_y-48" edge="1">
          <mxGeometry relative="1" as="geometry">
            <mxPoint x="640" y="260" as="targetPoint" />
            <Array as="points">
              <mxPoint x="590" y="215" />
            </Array>
          </mxGeometry>
        </mxCell>
        <mxCell id="QsTrsV8T2DVDhqD8kG_y-17" value="&lt;span style=&quot;box-sizing: border-box; font-weight: 600; margin-bottom: 0px; color: rgb(31, 35, 40); font-family: -apple-system, BlinkMacSystemFont, &amp;quot;Segoe UI&amp;quot;, &amp;quot;Noto Sans&amp;quot;, Helvetica, Arial, sans-serif, &amp;quot;Apple Color Emoji&amp;quot;, &amp;quot;Segoe UI Emoji&amp;quot;; font-size: 16px; text-align: -webkit-left; background-color: rgb(255, 255, 255);&quot;&gt;几何阶段&lt;/span&gt;" style="rounded=0;whiteSpace=wrap;html=1;verticalAlign=bottom;fillColor=#b0e3e6;strokeColor=#0e8088;" parent="1" vertex="1">
          <mxGeometry x="130" y="510.26" width="110" height="170" as="geometry" />
        </mxCell>
        <mxCell id="QsTrsV8T2DVDhqD8kG_y-18" value="&lt;span style=&quot;box-sizing: border-box; font-weight: 600; margin-bottom: 0px; color: rgb(31, 35, 40); font-family: -apple-system, BlinkMacSystemFont, &amp;quot;Segoe UI&amp;quot;, &amp;quot;Noto Sans&amp;quot;, Helvetica, Arial, sans-serif, &amp;quot;Apple Color Emoji&amp;quot;, &amp;quot;Segoe UI Emoji&amp;quot;; font-size: 16px; text-align: -webkit-left; background-color: rgb(246, 248, 250);&quot;&gt;光栅化阶段&lt;/span&gt;" style="rounded=0;whiteSpace=wrap;html=1;verticalAlign=bottom;fillColor=#e1d5e7;strokeColor=#9673a6;" parent="1" vertex="1">
          <mxGeometry x="250" y="510.26" width="110" height="170" as="geometry" />
        </mxCell>
        <mxCell id="QsTrsV8T2DVDhqD8kG_y-19" value="&lt;span style=&quot;box-sizing: border-box; font-weight: 600; margin-bottom: 0px; color: rgb(31, 35, 40); font-family: -apple-system, BlinkMacSystemFont, &amp;quot;Segoe UI&amp;quot;, &amp;quot;Noto Sans&amp;quot;, Helvetica, Arial, sans-serif, &amp;quot;Apple Color Emoji&amp;quot;, &amp;quot;Segoe UI Emoji&amp;quot;; font-size: 16px; text-align: -webkit-left; background-color: rgb(255, 255, 255);&quot;&gt;像素阶段&lt;/span&gt;" style="rounded=0;whiteSpace=wrap;html=1;verticalAlign=bottom;fillColor=#b1ddf0;strokeColor=#10739e;" parent="1" vertex="1">
          <mxGeometry x="370" y="510.26" width="110" height="170" as="geometry" />
        </mxCell>
        <mxCell id="QsTrsV8T2DVDhqD8kG_y-20" value="&lt;span style=&quot;box-sizing: border-box; font-weight: 600; margin-bottom: 0px; color: rgb(31, 35, 40); font-family: -apple-system, BlinkMacSystemFont, &amp;quot;Segoe UI&amp;quot;, &amp;quot;Noto Sans&amp;quot;, Helvetica, Arial, sans-serif, &amp;quot;Apple Color Emoji&amp;quot;, &amp;quot;Segoe UI Emoji&amp;quot;; font-size: 16px; text-align: -webkit-left; background-color: rgb(246, 248, 250);&quot;&gt;输出合并阶段&lt;/span&gt;" style="rounded=0;whiteSpace=wrap;html=1;verticalAlign=bottom;fillColor=#e1d5e7;strokeColor=#9673a6;" parent="1" vertex="1">
          <mxGeometry x="490" y="510.26" width="110" height="170" as="geometry" />
        </mxCell>
        <mxCell id="QsTrsV8T2DVDhqD8kG_y-24" style="edgeStyle=orthogonalEdgeStyle;rounded=0;orthogonalLoop=1;jettySize=auto;html=1;entryX=0.5;entryY=0;entryDx=0;entryDy=0;" parent="1" source="QsTrsV8T2DVDhqD8kG_y-15" target="QsTrsV8T2DVDhqD8kG_y-21" edge="1">
          <mxGeometry relative="1" as="geometry" />
        </mxCell>
        <mxCell id="QsTrsV8T2DVDhqD8kG_y-15" value="Mesh&lt;div&gt;顶点&lt;/div&gt;" style="rounded=0;whiteSpace=wrap;html=1;fillColor=#d5e8d4;gradientColor=#97d077;strokeColor=#82b366;" parent="1" vertex="1">
          <mxGeometry x="145" y="530.26" width="80" height="40" as="geometry" />
        </mxCell>
        <mxCell id="QsTrsV8T2DVDhqD8kG_y-37" style="rounded=0;orthogonalLoop=1;jettySize=auto;html=1;" parent="1" source="QsTrsV8T2DVDhqD8kG_y-21" target="QsTrsV8T2DVDhqD8kG_y-22" edge="1">
          <mxGeometry relative="1" as="geometry" />
        </mxCell>
        <mxCell id="QsTrsV8T2DVDhqD8kG_y-21" value="2d屏幕坐标" style="rounded=0;whiteSpace=wrap;html=1;" parent="1" vertex="1">
          <mxGeometry x="145" y="590.26" width="80" height="40" as="geometry" />
        </mxCell>
        <mxCell id="QsTrsV8T2DVDhqD8kG_y-25" style="edgeStyle=orthogonalEdgeStyle;rounded=0;orthogonalLoop=1;jettySize=auto;html=1;" parent="1" source="QsTrsV8T2DVDhqD8kG_y-22" target="QsTrsV8T2DVDhqD8kG_y-23" edge="1">
          <mxGeometry relative="1" as="geometry" />
        </mxCell>
        <mxCell id="QsTrsV8T2DVDhqD8kG_y-22" value="几何图形&lt;div&gt;三角形&lt;/div&gt;" style="rounded=0;whiteSpace=wrap;html=1;" parent="1" vertex="1">
          <mxGeometry x="265" y="530.26" width="80" height="40" as="geometry" />
        </mxCell>
        <mxCell id="QsTrsV8T2DVDhqD8kG_y-38" style="rounded=0;orthogonalLoop=1;jettySize=auto;html=1;" parent="1" source="QsTrsV8T2DVDhqD8kG_y-23" target="QsTrsV8T2DVDhqD8kG_y-26" edge="1">
          <mxGeometry relative="1" as="geometry" />
        </mxCell>
        <mxCell id="QsTrsV8T2DVDhqD8kG_y-23" value="像素片段" style="rounded=0;whiteSpace=wrap;html=1;" parent="1" vertex="1">
          <mxGeometry x="265" y="590.26" width="80" height="40" as="geometry" />
        </mxCell>
        <mxCell id="QsTrsV8T2DVDhqD8kG_y-26" value="Material" style="rounded=0;whiteSpace=wrap;html=1;fillColor=#d5e8d4;gradientColor=#97d077;strokeColor=#82b366;" parent="1" vertex="1">
          <mxGeometry x="385" y="530.26" width="80" height="40" as="geometry" />
        </mxCell>
        <mxCell id="QsTrsV8T2DVDhqD8kG_y-27" value="像素&lt;div&gt;颜色/光照/纹理&lt;/div&gt;" style="rounded=0;whiteSpace=wrap;html=1;" parent="1" vertex="1">
          <mxGeometry x="385" y="590.26" width="80" height="50" as="geometry" />
        </mxCell>
        <mxCell id="QsTrsV8T2DVDhqD8kG_y-31" value="合并" style="rounded=0;whiteSpace=wrap;html=1;verticalAlign=bottom;" parent="1" vertex="1">
          <mxGeometry x="500" y="520.26" width="90" height="80" as="geometry" />
        </mxCell>
        <mxCell id="QsTrsV8T2DVDhqD8kG_y-28" value="已有像素颜色" style="rounded=0;whiteSpace=wrap;html=1;" parent="1" vertex="1">
          <mxGeometry x="505" y="530.26" width="80" height="20" as="geometry" />
        </mxCell>
        <mxCell id="QsTrsV8T2DVDhqD8kG_y-30" value="新生成颜色" style="rounded=0;whiteSpace=wrap;html=1;" parent="1" vertex="1">
          <mxGeometry x="505" y="560.26" width="80" height="20" as="geometry" />
        </mxCell>
        <mxCell id="QsTrsV8T2DVDhqD8kG_y-32" value="显存" style="rounded=0;whiteSpace=wrap;html=1;verticalAlign=bottom;" parent="1" vertex="1">
          <mxGeometry x="500" y="611.26" width="90" height="40" as="geometry" />
        </mxCell>
        <mxCell id="QsTrsV8T2DVDhqD8kG_y-29" value="最终像素颜色" style="rounded=0;whiteSpace=wrap;html=1;" parent="1" vertex="1">
          <mxGeometry x="505" y="615.26" width="80" height="15" as="geometry" />
        </mxCell>
        <mxCell id="QsTrsV8T2DVDhqD8kG_y-33" style="edgeStyle=orthogonalEdgeStyle;rounded=0;orthogonalLoop=1;jettySize=auto;html=1;entryX=0.545;entryY=0;entryDx=0;entryDy=0;entryPerimeter=0;" parent="1" source="QsTrsV8T2DVDhqD8kG_y-48" target="QsTrsV8T2DVDhqD8kG_y-17" edge="1">
          <mxGeometry relative="1" as="geometry">
            <mxPoint x="705.0344827586209" y="325" as="sourcePoint" />
            <Array as="points">
              <mxPoint x="325" y="490" />
              <mxPoint x="190" y="490" />
            </Array>
          </mxGeometry>
        </mxCell>
        <mxCell id="QsTrsV8T2DVDhqD8kG_y-34" value="顶点着色器" style="edgeLabel;html=1;align=center;verticalAlign=middle;resizable=0;points=[];" parent="QsTrsV8T2DVDhqD8kG_y-33" vertex="1" connectable="0">
          <mxGeometry x="0.8405" y="-1" relative="1" as="geometry">
            <mxPoint x="36" y="-17" as="offset" />
          </mxGeometry>
        </mxCell>
        <mxCell id="QsTrsV8T2DVDhqD8kG_y-39" style="edgeStyle=orthogonalEdgeStyle;rounded=0;orthogonalLoop=1;jettySize=auto;html=1;entryX=0.502;entryY=0.059;entryDx=0;entryDy=0;entryPerimeter=0;" parent="1" source="QsTrsV8T2DVDhqD8kG_y-26" target="QsTrsV8T2DVDhqD8kG_y-27" edge="1">
          <mxGeometry relative="1" as="geometry" />
        </mxCell>
        <mxCell id="QsTrsV8T2DVDhqD8kG_y-40" style="rounded=0;orthogonalLoop=1;jettySize=auto;html=1;" parent="1" source="QsTrsV8T2DVDhqD8kG_y-27" target="QsTrsV8T2DVDhqD8kG_y-30" edge="1">
          <mxGeometry relative="1" as="geometry" />
        </mxCell>
        <mxCell id="QsTrsV8T2DVDhqD8kG_y-43" style="edgeStyle=orthogonalEdgeStyle;rounded=0;orthogonalLoop=1;jettySize=auto;html=1;" parent="1" source="QsTrsV8T2DVDhqD8kG_y-31" target="QsTrsV8T2DVDhqD8kG_y-29" edge="1">
          <mxGeometry relative="1" as="geometry" />
        </mxCell>
        <mxCell id="QsTrsV8T2DVDhqD8kG_y-49" style="edgeStyle=orthogonalEdgeStyle;rounded=0;orthogonalLoop=1;jettySize=auto;html=1;" parent="1" source="QsTrsV8T2DVDhqD8kG_y-47" target="QsTrsV8T2DVDhqD8kG_y-48" edge="1">
          <mxGeometry relative="1" as="geometry">
            <Array as="points">
              <mxPoint x="590" y="355" />
              <mxPoint x="590" y="450" />
            </Array>
          </mxGeometry>
        </mxCell>
        <mxCell id="QsTrsV8T2DVDhqD8kG_y-47" value="gizmos" style="rounded=1;whiteSpace=wrap;html=1;fillColor=#fff2cc;strokeColor=#d6b656;" parent="1" vertex="1">
          <mxGeometry x="414" y="340" width="100" height="30" as="geometry" />
        </mxCell>
        <mxCell id="QsTrsV8T2DVDhqD8kG_y-48" value="wgsl" style="rounded=0;whiteSpace=wrap;html=1;" parent="1" vertex="1">
          <mxGeometry x="305" y="420" width="40" height="60" as="geometry" />
        </mxCell>
        <mxCell id="QsTrsV8T2DVDhqD8kG_y-51" style="edgeStyle=orthogonalEdgeStyle;rounded=0;orthogonalLoop=1;jettySize=auto;html=1;" parent="1" source="QsTrsV8T2DVDhqD8kG_y-50" target="QsTrsV8T2DVDhqD8kG_y-48" edge="1">
          <mxGeometry relative="1" as="geometry">
            <Array as="points">
              <mxPoint x="590" y="175" />
              <mxPoint x="590" y="450" />
            </Array>
          </mxGeometry>
        </mxCell>
        <mxCell id="QsTrsV8T2DVDhqD8kG_y-50" value="UI" style="rounded=1;whiteSpace=wrap;html=1;fillColor=#fff2cc;strokeColor=#d6b656;" parent="1" vertex="1">
          <mxGeometry x="414" y="160" width="100" height="30" as="geometry" />
        </mxCell>
        <mxCell id="BmFtjQihBc6PRuAoSr6n-5" style="edgeStyle=orthogonalEdgeStyle;rounded=0;orthogonalLoop=1;jettySize=auto;html=1;" edge="1" parent="1" source="BmFtjQihBc6PRuAoSr6n-2" target="BmFtjQihBc6PRuAoSr6n-4">
          <mxGeometry relative="1" as="geometry">
            <Array as="points">
              <mxPoint x="180" y="230" />
              <mxPoint x="180" y="230" />
            </Array>
          </mxGeometry>
        </mxCell>
        <mxCell id="BmFtjQihBc6PRuAoSr6n-2" value="gltf加载" style="rounded=1;whiteSpace=wrap;html=1;fillColor=#d5e8d4;strokeColor=#82b366;" vertex="1" parent="1">
          <mxGeometry x="145" y="160" width="120" height="40" as="geometry" />
        </mxCell>
        <mxCell id="G7ez6JjryScWKuvruGCE-1" style="edgeStyle=orthogonalEdgeStyle;rounded=0;orthogonalLoop=1;jettySize=auto;html=1;strokeColor=#FF3333;" edge="1" parent="1" source="BmFtjQihBc6PRuAoSr6n-4" target="QsTrsV8T2DVDhqD8kG_y-48">
          <mxGeometry relative="1" as="geometry">
            <Array as="points">
              <mxPoint x="180" y="450" />
            </Array>
          </mxGeometry>
        </mxCell>
        <mxCell id="BmFtjQihBc6PRuAoSr6n-4" value="Mesh" style="ellipse;whiteSpace=wrap;html=1;aspect=fixed;strokeColor=#33FF7C;fillColor=#FF99CC;" vertex="1" parent="1">
          <mxGeometry x="160" y="245" width="80" height="80" as="geometry" />
        </mxCell>
      </root>
    </mxGraphModel>
  </diagram>
  <diagram id="s1YoNQt6m9fdG0cyxOEG" name="泛光">
    <mxGraphModel dx="476" dy="749" grid="1" gridSize="10" guides="1" tooltips="1" connect="1" arrows="1" fold="1" page="1" pageScale="1" pageWidth="827" pageHeight="1169" math="0" shadow="0">
      <root>
        <mxCell id="0" />
        <mxCell id="1" parent="0" />
        <mxCell id="FHVUSFXFMkUYbMExWTnK-1" value="8-9" style="rounded=0;whiteSpace=wrap;html=1;fillColor=#dae8fc;gradientColor=#7ea6e0;strokeColor=#6c8ebf;" vertex="1" parent="1">
          <mxGeometry x="160" y="360" width="40" height="40" as="geometry" />
        </mxCell>
        <mxCell id="FHVUSFXFMkUYbMExWTnK-2" value="7-8" style="rounded=0;whiteSpace=wrap;html=1;fillColor=#dae8fc;gradientColor=#7ea6e0;strokeColor=#6c8ebf;" vertex="1" parent="1">
          <mxGeometry x="160" y="400" width="40" height="40" as="geometry" />
        </mxCell>
        <mxCell id="FHVUSFXFMkUYbMExWTnK-3" value="6-7" style="rounded=0;whiteSpace=wrap;html=1;fillColor=#dae8fc;gradientColor=#7ea6e0;strokeColor=#6c8ebf;" vertex="1" parent="1">
          <mxGeometry x="160" y="440" width="40" height="40" as="geometry" />
        </mxCell>
        <mxCell id="FHVUSFXFMkUYbMExWTnK-4" value="5-6" style="rounded=0;whiteSpace=wrap;html=1;fillColor=#dae8fc;gradientColor=#7ea6e0;strokeColor=#6c8ebf;" vertex="1" parent="1">
          <mxGeometry x="160" y="480" width="40" height="40" as="geometry" />
        </mxCell>
        <mxCell id="FHVUSFXFMkUYbMExWTnK-5" value="4-5" style="rounded=0;whiteSpace=wrap;html=1;fillColor=#dae8fc;gradientColor=#7ea6e0;strokeColor=#6c8ebf;" vertex="1" parent="1">
          <mxGeometry x="160" y="520" width="40" height="40" as="geometry" />
        </mxCell>
        <mxCell id="FHVUSFXFMkUYbMExWTnK-6" value="3-4" style="rounded=0;whiteSpace=wrap;html=1;fillColor=#dae8fc;gradientColor=#7ea6e0;strokeColor=#6c8ebf;" vertex="1" parent="1">
          <mxGeometry x="160" y="560" width="40" height="40" as="geometry" />
        </mxCell>
        <mxCell id="FHVUSFXFMkUYbMExWTnK-7" value="2-3" style="rounded=0;whiteSpace=wrap;html=1;fillColor=#dae8fc;gradientColor=#7ea6e0;strokeColor=#6c8ebf;" vertex="1" parent="1">
          <mxGeometry x="160" y="600" width="40" height="40" as="geometry" />
        </mxCell>
        <mxCell id="FHVUSFXFMkUYbMExWTnK-8" value="1-2" style="rounded=0;whiteSpace=wrap;html=1;fillColor=#dae8fc;gradientColor=#7ea6e0;strokeColor=#6c8ebf;" vertex="1" parent="1">
          <mxGeometry x="160" y="640" width="40" height="40" as="geometry" />
        </mxCell>
        <mxCell id="FHVUSFXFMkUYbMExWTnK-9" value="0-1" style="rounded=0;whiteSpace=wrap;html=1;fillColor=#d5e8d4;gradientColor=#97d077;strokeColor=#82b366;" vertex="1" parent="1">
          <mxGeometry x="160" y="680" width="40" height="40" as="geometry" />
        </mxCell>
        <mxCell id="FHVUSFXFMkUYbMExWTnK-10" value="" style="rounded=0;whiteSpace=wrap;html=1;fillColor=#dae8fc;gradientColor=#7ea6e0;strokeColor=#6c8ebf;" vertex="1" parent="1">
          <mxGeometry x="160" y="320" width="40" height="40" as="geometry" />
        </mxCell>
        <mxCell id="FHVUSFXFMkUYbMExWTnK-11" value="RGB(srgba)&lt;div&gt;r/g/b/a:0.0-1.0&lt;/div&gt;" style="rounded=0;whiteSpace=wrap;html=1;fillColor=#d5e8d4;gradientColor=#97d077;strokeColor=#82b366;" vertex="1" parent="1">
          <mxGeometry x="240" y="680" width="80" height="40" as="geometry" />
        </mxCell>
        <mxCell id="FHVUSFXFMkUYbMExWTnK-12" value="RGB(rgba)&lt;div&gt;r/g/b/a:0-255&lt;/div&gt;" style="rounded=0;whiteSpace=wrap;html=1;fillColor=#d5e8d4;gradientColor=#97d077;strokeColor=#82b366;" vertex="1" parent="1">
          <mxGeometry x="360" y="680" width="80" height="40" as="geometry" />
        </mxCell>
        <mxCell id="FHVUSFXFMkUYbMExWTnK-13" value="sdr: 标准动态范围" style="text;html=1;align=center;verticalAlign=middle;whiteSpace=wrap;rounded=0;fillColor=#d5e8d4;gradientColor=#97d077;strokeColor=#82b366;" vertex="1" parent="1">
          <mxGeometry x="20" y="685" width="130" height="30" as="geometry" />
        </mxCell>
        <mxCell id="FHVUSFXFMkUYbMExWTnK-14" value="hdr: 高动态范围" style="text;html=1;align=center;verticalAlign=middle;whiteSpace=wrap;rounded=0;fillColor=#dae8fc;gradientColor=#7ea6e0;strokeColor=#6c8ebf;" vertex="1" parent="1">
          <mxGeometry x="20" y="490" width="130" height="30" as="geometry" />
        </mxCell>
        <mxCell id="FHVUSFXFMkUYbMExWTnK-19" style="edgeStyle=orthogonalEdgeStyle;rounded=0;orthogonalLoop=1;jettySize=auto;html=1;" edge="1" parent="1" source="FHVUSFXFMkUYbMExWTnK-15" target="FHVUSFXFMkUYbMExWTnK-16">
          <mxGeometry relative="1" as="geometry" />
        </mxCell>
        <mxCell id="FHVUSFXFMkUYbMExWTnK-15" value="Bloom" style="rounded=0;whiteSpace=wrap;html=1;" vertex="1" parent="1">
          <mxGeometry x="260" y="320" width="90" height="40" as="geometry" />
        </mxCell>
        <mxCell id="FHVUSFXFMkUYbMExWTnK-20" style="edgeStyle=orthogonalEdgeStyle;rounded=0;orthogonalLoop=1;jettySize=auto;html=1;" edge="1" parent="1" source="FHVUSFXFMkUYbMExWTnK-16" target="FHVUSFXFMkUYbMExWTnK-17">
          <mxGeometry relative="1" as="geometry" />
        </mxCell>
        <mxCell id="FHVUSFXFMkUYbMExWTnK-16" value="提取超亮区域" style="rounded=0;whiteSpace=wrap;html=1;" vertex="1" parent="1">
          <mxGeometry x="260" y="400" width="90" height="40" as="geometry" />
        </mxCell>
        <mxCell id="FHVUSFXFMkUYbMExWTnK-21" style="edgeStyle=orthogonalEdgeStyle;rounded=0;orthogonalLoop=1;jettySize=auto;html=1;" edge="1" parent="1" source="FHVUSFXFMkUYbMExWTnK-17" target="FHVUSFXFMkUYbMExWTnK-18">
          <mxGeometry relative="1" as="geometry" />
        </mxCell>
        <mxCell id="FHVUSFXFMkUYbMExWTnK-17" value="生成光晕halo" style="rounded=0;whiteSpace=wrap;html=1;" vertex="1" parent="1">
          <mxGeometry x="260" y="480" width="90" height="40" as="geometry" />
        </mxCell>
        <mxCell id="FHVUSFXFMkUYbMExWTnK-18" value="叠加到原图" style="rounded=0;whiteSpace=wrap;html=1;" vertex="1" parent="1">
          <mxGeometry x="260" y="560" width="90" height="40" as="geometry" />
        </mxCell>
      </root>
    </mxGraphModel>
  </diagram>
  <diagram id="jaOezpJHVjkmOlGEsm0b" name="分支治理">
    <mxGraphModel dx="1290" dy="524" grid="1" gridSize="10" guides="1" tooltips="1" connect="1" arrows="1" fold="1" page="1" pageScale="1" pageWidth="827" pageHeight="1169" math="0" shadow="0">
      <root>
        <mxCell id="0" />
        <mxCell id="1" parent="0" />
        <mxCell id="M33k4MeXB_4xiT2NlTzb-5" value="" style="shape=image;verticalLabelPosition=bottom;labelBackgroundColor=default;verticalAlign=top;aspect=fixed;imageAspect=0;editableCssRules=.*;image=data:image/svg+xml,PHN2ZyB4bWxucz0iaHR0cDovL3d3dy53My5vcmcvMjAwMC9zdmciIHZpZXdCb3g9IjAgMCA0MjUuODgwMDA0ODgyODEyNSA1MTMuNDIwMDQzOTQ1MzEyNSIgaWQ9IkJyYW5jaGVzIiB3aWR0aD0iNDI1Ljg4MDAwNDg4MjgxMjUiIGhlaWdodD0iNTEzLjQyMDA0Mzk0NTMxMjUiPjxkZWZzPjxzdHlsZT4uY2xzLTF7ZmlsbDojY2IyMDI4O30uY2xzLTJ7ZmlsbDojMzc2ZGI0O30uY2xzLTN7ZmlsbDojN2U0Mjk4O30uY2xzLTR7ZmlsbDojM2JhYmM4O30uY2xzLTV7ZmlsbDojNDhiYzk2O30uY2xzLTZ7ZmlsbDojYWUzZDk1O30uY2xzLTd7ZmlsbDojYjljMGMzO30uY2xzLTh7ZmlsbDojMTQxNDIxO308L3N0eWxlPjwvZGVmcz48cGF0aCBkPSJNMzI3LjE5LDQxNEgyNzJ2LTNoNTUuMjJBMTEuOTMsMTEuOTMsMCwwLDAsMzM5LjExLDM5OXYtOC43NmgzVjM5OUExNC45MywxNC45MywwLDAsMSwzMjcuMTksNDE0WiIgY2xhc3M9ImNscy0xIi8+PHBvbHlnb24gcG9pbnRzPSIzMzMuMzIgMzkxLjI0IDM0Ny45IDM5MS4yNCAzNDAuNjEgMzgzLjk2IDMzMy4zMiAzOTEuMjQiIGNsYXNzPSJjbHMtMSIvPjxwYXRoIGQ9Ik0xODYuNzQsMTU2LjZoLTNWMTM5Ljc5YTExLjkzLDExLjkzLDAsMCwwLTExLjkyLTExLjkySDk5Ljg4di0zaDcxLjk0YTE0Ljk0LDE0Ljk0LDAsMCwxLDE0LjkyLDE0LjkyWiIgY2xhc3M9ImNscy0yIi8+PHBhdGggZD0iTTIyMy41NSw0NTQuNzlIOTN2LTNIMjIzLjU1YTExLjk0LDExLjk0LDAsMCwwLDExLjkyLTExLjkydi04Ljc2aDN2OC43NkExNC45NCwxNC45NCwwLDAsMSwyMjMuNTUsNDU0Ljc5WiIgY2xhc3M9ImNscy0zIi8+PHBvbHlnb24gcG9pbnRzPSIyMjkuNjggNDMyLjA4IDI0NC4yNiA0MzIuMDggMjM2Ljk3IDQyNC44IDIyOS42OCA0MzIuMDgiIGNsYXNzPSJjbHMtMyIvPjxwYXRoIGQ9Ik0xMjAsMTI3LjhIOTIuMjR2LTNIMTIwYTExLjk0LDExLjk0LDAsMCwwLDExLjkyLTExLjkydi04Ljc2aDN2OC43NkExNC45NCwxNC45NCwwLDAsMSwxMjAsMTI3LjhaIiBjbGFzcz0iY2xzLTQiLz48cG9seWdvbiBwb2ludHM9IjEyNi4xMiAxMDUuMDkgMTQwLjcgMTA1LjA5IDEzMy40MSA5Ny44MSAxMjYuMTIgMTA1LjA5IiBjbGFzcz0iY2xzLTQiLz48cGF0aCBkPSJNMjIzLjU1LDE2OC42OEgxOTUuOHYtM2gyNy43NWExMS45NCwxMS45NCwwLDAsMCwxMS45Mi0xMS45MlYxNDVoM3Y4Ljc2QTE0Ljk0LDE0Ljk0LDAsMCwxLDIyMy41NSwxNjguNjhaIiBjbGFzcz0iY2xzLTIiLz48cGF0aCBkPSJNMjIzLjU1LDg2LjczSDE0NC42NnYtM2g3OC44OWExMS45NCwxMS45NCwwLDAsMCwxMS45Mi0xMS45MlY2My4wNWgzdjguNzZBMTQuOTQsMTQuOTQsMCwwLDEsMjIzLjU1LDg2LjczWiIgY2xhc3M9ImNscy0yIi8+PHBhdGggZD0iTTE5OC42MSwyNTEuMDloMjcuNzR2LTNIMTk4LjYxYTExLjkzLDExLjkzLDAsMCwxLTExLjkzLTExLjkydi05LjQxaC0zdjkuNDFBMTQuOTQsMTQuOTQsMCwwLDAsMTk4LjYxLDI1MS4wOVoiIGNsYXNzPSJjbHMtMiIvPjxwb2x5Z29uIHBvaW50cz0iMTkyLjQ3IDIyNy43NCAxNzcuOSAyMjcuNzQgMTg1LjE4IDIyMC40NSAxOTIuNDcgMjI3Ljc0IiBjbGFzcz0iY2xzLTIiLz48cGF0aCBkPSJNODEuNjYsNDQzLjhhOS40Nyw5LjQ3LDAsMSwxLTkuNDcsOS40Nyw5LjQ4LDkuNDgsMCwwLDEsOS40Ny05LjQ3bTAtM2ExMi40NywxMi40NywwLDEsMCwxMi40NywxMi40N0ExMi40OCwxMi40OCwwLDAsMCw4MS42Niw0NDAuOFoiIGNsYXNzPSJjbHMtNSIvPjxwYXRoIGQ9Ik0yMzcsNDAyLjkyYTkuNDcsOS40NywwLDEsMS05LjQ3LDkuNDcsOS40OCw5LjQ4LDAsMCwxLDkuNDctOS40N20wLTNhMTIuNDcsMTIuNDcsMCwxLDAsMTIuNDcsMTIuNDdBMTIuNDcsMTIuNDcsMCwwLDAsMjM3LDM5OS45MloiIGNsYXNzPSJjbHMtMyIvPjxwYXRoIGQ9Ik0yODguNzQsMzYyYTkuNDcsOS40NywwLDEsMS05LjQ3LDkuNDcsOS40OCw5LjQ4LDAsMCwxLDkuNDctOS40N20wLTNhMTIuNDcsMTIuNDcsMCwxLDAsMTIuNDcsMTIuNDdBMTIuNDcsMTIuNDcsMCwwLDAsMjg4Ljc0LDM1OVoiIGNsYXNzPSJjbHMtNiIvPjxwYXRoIGQ9Ik0zNDAuNTEsMzYyYTkuNDcsOS40NywwLDEsMS05LjQ3LDkuNDcsOS40Nyw5LjQ3LDAsMCwxLDkuNDctOS40N20wLTNBMTIuNDcsMTIuNDcsMCwxLDAsMzUzLDM3MS41MSwxMi40NywxMi40NywwLDAsMCwzNDAuNTEsMzU5WiIgY2xhc3M9ImNscy0xIi8+PHBhdGggZD0iTTI4OC43NCwzMjEuMTZhOS40Nyw5LjQ3LDAsMSwxLTkuNDcsOS40Nyw5LjQ4LDkuNDgsMCwwLDEsOS40Ny05LjQ3bTAtM2ExMi40NywxMi40NywwLDEsMCwxMi40NywxMi40NywxMi40NywxMi40NywwLDAsMC0xMi40Ny0xMi40N1oiIGNsYXNzPSJjbHMtNiIvPjxwYXRoIGQ9Ik0zNDAuNTEsMzIxLjE2YTkuNDcsOS40NywwLDEsMS05LjQ3LDkuNDcsOS40Nyw5LjQ3LDAsMCwxLDkuNDctOS40N20wLTNBMTIuNDcsMTIuNDcsMCwxLDAsMzUzLDMzMC42M2ExMi40NywxMi40NywwLDAsMC0xMi40Ni0xMi40N1oiIGNsYXNzPSJjbHMtMSIvPjxwYXRoIGQ9Ik0yMzcsMjgwLjI4YTkuNDcsOS40NywwLDEsMS05LjQ3LDkuNDcsOS40OCw5LjQ4LDAsMCwxLDkuNDctOS40N20wLTNhMTIuNDcsMTIuNDcsMCwxLDAsMTIuNDcsMTIuNDdBMTIuNDcsMTIuNDcsMCwwLDAsMjM3LDI3Ny4yOFoiIGNsYXNzPSJjbHMtMyIvPjxwYXRoIGQ9Ik0zNDAuNTEsMjgwLjI4YTkuNDcsOS40NywwLDEsMS05LjQ3LDkuNDcsOS40Nyw5LjQ3LDAsMCwxLDkuNDctOS40N20wLTNBMTIuNDcsMTIuNDcsMCwxLDAsMzUzLDI4OS43NWExMi40NywxMi40NywwLDAsMC0xMi40Ni0xMi40N1oiIGNsYXNzPSJjbHMtMSIvPjxwYXRoIGQ9Ik0yMzcsMjM5LjRhOS40Nyw5LjQ3LDAsMSwxLTkuNDcsOS40N0E5LjQ4LDkuNDgsMCwwLDEsMjM3LDIzOS40bTAtM2ExMi40NywxMi40NywwLDEsMCwxMi40NywxMi40N0ExMi40NywxMi40NywwLDAsMCwyMzcsMjM2LjRaIiBjbGFzcz0iY2xzLTMiLz48cGF0aCBkPSJNMTg1LjIsMTk4LjUyYTkuNDcsOS40NywwLDEsMS05LjQ3LDkuNDYsOS40Nyw5LjQ3LDAsMCwxLDkuNDctOS40Nm0wLTNBMTIuNDcsMTIuNDcsMCwxLDAsMTk3LjY3LDIwOGExMi40NiwxMi40NiwwLDAsMC0xMi40Ny0xMi40NloiIGNsYXNzPSJjbHMtMiIvPjxwYXRoIGQ9Ik0xODUuMiwxNTcuNjNhOS40Nyw5LjQ3LDAsMSwxLTkuNDcsOS40Nyw5LjQ4LDkuNDgsMCwwLDEsOS40Ny05LjQ3bTAtM2ExMi40NywxMi40NywwLDEsMCwxMi40NywxMi40NywxMi40NywxMi40NywwLDAsMC0xMi40Ny0xMi40N1oiIGNsYXNzPSJjbHMtMiIvPjxwYXRoIGQ9Ik04MS42NiwxMTYuNzVhOS40Nyw5LjQ3LDAsMSwxLTkuNDcsOS40Nyw5LjQ4LDkuNDgsMCwwLDEsOS40Ny05LjQ3bTAtM2ExMi40NywxMi40NywwLDEsMCwxMi40NywxMi40NywxMi40NywxMi40NywwLDAsMC0xMi40Ny0xMi40N1oiIGNsYXNzPSJjbHMtNSIvPjxwYXRoIGQ9Ik0yMzcsMTE2Ljc1YTkuNDcsOS40NywwLDEsMS05LjQ3LDkuNDcsOS40OCw5LjQ4LDAsMCwxLDkuNDctOS40N20wLTNhMTIuNDcsMTIuNDcsMCwxLDAsMTIuNDcsMTIuNDdBMTIuNDcsMTIuNDcsMCwwLDAsMjM3LDExMy43NVoiIGNsYXNzPSJjbHMtMyIvPjxwYXRoIGQ9Ik0xMzMuNDMsNzUuODdBOS40Nyw5LjQ3LDAsMSwxLDEyNCw4NS4zNGE5LjQ4LDkuNDgsMCwwLDEsOS40Ny05LjQ3bTAtM0ExMi40NywxMi40NywwLDEsMCwxNDUuOSw4NS4zNGExMi40NywxMi40NywwLDAsMC0xMi40Ny0xMi40N1oiIGNsYXNzPSJjbHMtNCIvPjxwYXRoIGQ9Ik04MS42NiwzNWE5LjQ3LDkuNDcsMCwxLDEtOS40Nyw5LjQ3QTkuNDgsOS40OCwwLDAsMSw4MS42NiwzNW0wLTNBMTIuNDcsMTIuNDcsMCwxLDAsOTQuMTMsNDQuNDYsMTIuNDcsMTIuNDcsMCwwLDAsODEuNjYsMzJaIiBjbGFzcz0iY2xzLTUiLz48cGF0aCBkPSJNMjM3LDM1YTkuNDcsOS40NywwLDEsMS05LjQ3LDkuNDdBOS40OCw5LjQ4LDAsMCwxLDIzNywzNW0wLTNhMTIuNDcsMTIuNDcsMCwxLDAsMTIuNDcsMTIuNDdBMTIuNDcsMTIuNDcsMCwwLDAsMjM3LDMyWiIgY2xhc3M9ImNscy0zIi8+PHJlY3QgaGVpZ2h0PSIxNi4xNyIgd2lkdGg9IjMiIHk9IjQ3Mi4wNSIgeD0iODAuMTYiIGNsYXNzPSJjbHMtNSIvPjxwb2x5Z29uIHBvaW50cz0iODguOTUgNDczLjAzIDc0LjM3IDQ3My4wMyA4MS42NiA0NjUuNzQgODguOTUgNDczLjAzIiBjbGFzcz0iY2xzLTUiLz48cmVjdCBoZWlnaHQ9IjQ3LjU1IiB3aWR0aD0iMyIgeT0iNDQwLjY3IiB4PSIyMzUuNDciIGNsYXNzPSJjbHMtMyIvPjxyZWN0IGhlaWdodD0iMTEuNjUiIHdpZHRoPSIzIiB5PSIyNjcuNjQiIHg9IjIzNS40NyIgY2xhc3M9ImNscy0zIi8+PHBvbHlnb24gcG9pbnRzPSIyNDQuMjYgMjY4LjYyIDIyOS42OCAyNjguNjIgMjM2Ljk3IDI2MS4zMyAyNDQuMjYgMjY4LjYyIiBjbGFzcz0iY2xzLTMiLz48cmVjdCBoZWlnaHQ9IjExLjY1IiB3aWR0aD0iMyIgeT0iMzQ5LjQxIiB4PSIyODcuMjQiIGNsYXNzPSJjbHMtNiIvPjxwb2x5Z29uIHBvaW50cz0iMjk2LjAzIDM1MC4zOCAyODEuNDUgMzUwLjM4IDI4OC43NCAzNDMuMSAyOTYuMDMgMzUwLjM4IiBjbGFzcz0iY2xzLTYiLz48cmVjdCBoZWlnaHQ9IjExLjY1IiB3aWR0aD0iMyIgeT0iMzQ5LjQxIiB4PSIzMzkuMDEiIGNsYXNzPSJjbHMtMSIvPjxwb2x5Z29uIHBvaW50cz0iMzQ3LjggMzUwLjM4IDMzMy4yMiAzNTAuMzggMzQwLjUxIDM0My4xIDM0Ny44IDM1MC4zOCIgY2xhc3M9ImNscy0xIi8+PHJlY3QgaGVpZ2h0PSIxMS42NSIgd2lkdGg9IjMiIHk9IjMwOC41NSIgeD0iMzM5LjAxIiBjbGFzcz0iY2xzLTEiLz48cG9seWdvbiBwb2ludHM9IjM0Ny44IDMwOS41MyAzMzMuMjIgMzA5LjUzIDM0MC41MSAzMDIuMjQgMzQ3LjggMzA5LjUzIiBjbGFzcz0iY2xzLTEiLz48cmVjdCBoZWlnaHQ9IjExLjY1IiB3aWR0aD0iMyIgeT0iMTg1Ljg1IiB4PSIxODMuNzQiIGNsYXNzPSJjbHMtMiIvPjxwb2x5Z29uIHBvaW50cz0iMTkyLjUzIDE4Ni44MyAxNzcuOTYgMTg2LjgzIDE4NS4yNCAxNzkuNTQgMTkyLjUzIDE4Ni44MyIgY2xhc3M9ImNscy0yIi8+PHJlY3QgaGVpZ2h0PSI5Mi43NiIgd2lkdGg9IjMiIHk9IjE0NSIgeD0iMjM1LjQ3IiBjbGFzcz0iY2xzLTMiLz48cG9seWdvbiBwb2ludHM9IjI0NC4yNiAxNDUuOTggMjI5LjY4IDE0NS45OCAyMzYuOTcgMTM4LjY5IDI0NC4yNiAxNDUuOTgiIGNsYXNzPSJjbHMtMyIvPjxyZWN0IGhlaWdodD0iNTIuNjkiIHdpZHRoPSIzIiB5PSI2My4yNCIgeD0iMjM1LjQ3IiBjbGFzcz0iY2xzLTMiLz48cG9seWdvbiBwb2ludHM9IjI0NC4yNiA2NC4yMSAyMjkuNjggNjQuMjEgMjM2Ljk3IDU2LjkzIDI0NC4yNiA2NC4yMSIgY2xhc3M9ImNscy0zIi8+PHJlY3QgaGVpZ2h0PSI1Mi4xIiB3aWR0aD0iMyIgeT0iNjMuMjQiIHg9IjgwLjE2IiBjbGFzcz0iY2xzLTUiLz48cG9seWdvbiBwb2ludHM9Ijg4Ljk1IDY0LjIxIDc0LjM3IDY0LjIxIDgxLjY2IDU2LjkzIDg4Ljk1IDY0LjIxIiBjbGFzcz0iY2xzLTUiLz48cmVjdCBoZWlnaHQ9IjI3LjYyIiB3aWR0aD0iMyIgeT0iNi4zMSIgeD0iMjM1LjQ3IiBjbGFzcz0iY2xzLTMiLz48cG9seWdvbiBwb2ludHM9IjI0NC4yNiA3LjI5IDIyOS42OCA3LjI5IDIzNi45NyAwIDI0NC4yNiA3LjI5IiBjbGFzcz0iY2xzLTMiLz48cmVjdCBoZWlnaHQ9IjI3LjAzIiB3aWR0aD0iMyIgeT0iNi4zMSIgeD0iODAuMTYiIGNsYXNzPSJjbHMtNSIvPjxwb2x5Z29uIHBvaW50cz0iODguOTUgNy4yOSA3NC4zNyA3LjI5IDgxLjY2IDAgODguOTUgNy4yOSIgY2xhc3M9ImNscy01Ii8+PHJlY3QgaGVpZ2h0PSIyOTcuODYiIHdpZHRoPSIzIiB5PSIxNDUiIHg9IjgwLjE2IiBjbGFzcz0iY2xzLTUiLz48cG9seWdvbiBwb2ludHM9Ijg4Ljk1IDE0NS45OCA3NC4zNyAxNDUuOTggODEuNjYgMTM4LjY5IDg4Ljk1IDE0NS45OCIgY2xhc3M9ImNscy01Ii8+PHJlY3QgaGVpZ2h0PSI5My4xNiIgd2lkdGg9IjMiIHk9IjMwOC41MyIgeD0iMjM1LjQ3IiBjbGFzcz0iY2xzLTMiLz48cG9seWdvbiBwb2ludHM9IjI0NC4yNiAzMDkuNSAyMjkuNjggMzA5LjUgMjM2Ljk3IDMwMi4yMSAyNDQuMjYgMzA5LjUiIGNsYXNzPSJjbHMtMyIvPjxwYXRoIGQ9Ik02Ni4xNCw1MDkuMDcsNjMsNDk5SDYzYy4xMSwyLjA1LjE3LDMuNDIuMTcsNC4xdjZINjAuN1Y0OTYuMjJoMy43bDMsOS44M2gwbDMuMjItOS44M2gzLjcxdjEyLjg1SDcxLjg5VjUwM2MwLS4yOSwwLS42MiwwLTFzMC0xLjM4LjExLTNINzJsLTMuMzIsMTAuMDZaIiBjbGFzcz0iY2xzLTciLz48cGF0aCBkPSJNODMuNyw1MDkuMDdsLS41Mi0xLjM0aC0uMDdhNCw0LDAsMCwxLTEuNCwxLjE5LDQuNDYsNC40NiwwLDAsMS0xLjg2LjMzLDMsMywwLDAsMS0yLjIzLS44MSwzLjEyLDMuMTIsMCwwLDEtLjgxLTIuMywyLjU4LDIuNTgsMCwwLDEsMS4wOS0yLjMxLDYuMjcsNi4yNywwLDAsMSwzLjMtLjgybDEuNzEtLjA2di0uNDNBMS4zNCwxLjM0LDAsMCwwLDgxLjM4LDUwMWE3LDcsMCwwLDAtMi43Ny43MWwtLjg5LTEuODFhOCw4LDAsMCwxLDMuNzYtLjg5LDQuNjksNC42OSwwLDAsMSwzLC44NiwzLjE4LDMuMTgsMCwwLDEsMS4wNiwyLjYydjYuNTVabS0uNzktNC41NS0xLDBhMy4zNSwzLjM1LDAsMCwwLTEuNzQuNDMsMS4zMSwxLjMxLDAsMCwwLS41NywxLjE3YzAsLjc2LjQzLDEuMTQsMS4zLDEuMTRhMi4wNywyLjA3LDAsMCwwLDEuNDktLjU0LDEuODksMS44OSwwLDAsMCwuNTYtMS40MloiIGNsYXNzPSJjbHMtNyIvPjxwYXRoIGQ9Ik04OC4yMSw0OTYuN2MwLS44Ny40OS0xLjMxLDEuNDYtMS4zMXMxLjQ2LjQ0LDEuNDYsMS4zMWExLjMxLDEuMzEsMCwwLDEtLjM2LDEsMS41NiwxLjU2LDAsMCwxLTEuMS4zNEM4OC43LDQ5OCw4OC4yMSw0OTcuNTgsODguMjEsNDk2LjdaTTkxLDUwOS4wN0g4OC4zM3YtOS44M0g5MVoiIGNsYXNzPSJjbHMtNyIvPjxwYXRoIGQ9Ik0xMDIuODksNTA5LjA3aC0yLjY4di01Ljc0YTIuNjcsMi42NywwLDAsMC0uMzgtMS41OSwxLjM2LDEuMzYsMCwwLDAtMS4yLS41NEExLjgzLDEuODMsMCwwLDAsOTcsNTAyYTQuNjksNC42OSwwLDAsMC0uNSwyLjQ5djQuNjJIOTMuODJ2LTkuODNoMi4wNWwuMzYsMS4yNmguMTVhMi45MywyLjkzLDAsMCwxLDEuMjMtMS4wOCw0LjI3LDQuMjcsMCwwLDEsMS43OS0uMzYsMy40MSwzLjQxLDAsMCwxLDIuNi45MywzLjY4LDMuNjgsMCwwLDEsLjg5LDIuNjdaIiBjbGFzcz0iY2xzLTciLz48cGF0aCBkPSJNMjEyLjgyLDUwMi41MmE2LjMzLDYuMzMsMCwwLDEtMS44MSw0Ljg2LDcuMzQsNy4zNCwwLDAsMS01LjIyLDEuNjloLTMuNjRWNDk2LjIyaDRhNi43OSw2Ljc5LDAsMCwxLDQuODksMS42NkE2LjEyLDYuMTIsMCwwLDEsMjEyLjgyLDUwMi41MlptLTIuODMuMDdxMC00LjE0LTMuNjYtNC4xNGgtMS40NXY4LjM3aDEuMTdDMjA4LjY3LDUwNi44MiwyMTAsNTA1LjQxLDIxMCw1MDIuNTlaIiBjbGFzcz0iY2xzLTciLz48cGF0aCBkPSJNMjE5LjcyLDUwOS4yNWE1LjA3LDUuMDcsMCwwLDEtMy43MS0xLjMxLDUsNSwwLDAsMS0xLjM0LTMuNzEsNS40Nyw1LjQ3LDAsMCwxLDEuMjMtMy44Miw0LjQyLDQuNDIsMCwwLDEsMy40Mi0xLjM1LDQuMzIsNC4zMiwwLDAsMSwzLjI0LDEuMTksNC40NSw0LjQ1LDAsMCwxLDEuMTYsMy4yN3YxLjMxaC02LjMzYTIuNTksMi41OSwwLDAsMCwuNjcsMS43OCwyLjM4LDIuMzgsMCwwLDAsMS43OC42NCw3LjU5LDcuNTksMCwwLDAsMS42OC0uMTgsOC45MSw4LjkxLDAsMCwwLDEuNjUtLjU5djIuMDdhNS45Miw1LjkyLDAsMCwxLTEuNS41MkE5LjEyLDkuMTIsMCwwLDEsMjE5LjcyLDUwOS4yNVptLS4zOC04LjI4YTEuNywxLjcsMCwwLDAtMS4zNC41NCwyLjQ3LDIuNDcsMCwwLDAtLjU1LDEuNTNoMy43NmEyLjE5LDIuMTksMCwwLDAtLjUyLTEuNTNBMS43NCwxLjc0LDAsMCwwLDIxOS4zNCw1MDFaIiBjbGFzcz0iY2xzLTciLz48cGF0aCBkPSJNMjI4LjI0LDUwOS4wN2wtMy43NC05LjgzaDIuOGwxLjksNS42YTkuODIsOS44MiwwLDAsMSwuMzksMmguMDZhOSw5LDAsMCwxLC4zOS0ybDEuODktNS42aDIuODFMMjMxLDUwOS4wN1oiIGNsYXNzPSJjbHMtNyIvPjxwYXRoIGQ9Ik0yNDAuNTksNTA5LjI1YTUuMDksNS4wOSwwLDAsMS0zLjcxLTEuMzEsNSw1LDAsMCwxLTEuMzQtMy43MSw1LjQ3LDUuNDcsMCwwLDEsMS4yNC0zLjgyLDUsNSwwLDAsMSw2LjY2LS4xNiw0LjQ5LDQuNDksMCwwLDEsMS4xNiwzLjI3djEuMzFoLTYuMzRhMi41OSwyLjU5LDAsMCwwLC42OCwxLjc4LDIuMzYsMi4zNiwwLDAsMCwxLjc3LjY0LDcuNTksNy41OSwwLDAsMCwxLjY4LS4xOCw4LjY2LDguNjYsMCwwLDAsMS42NS0uNTl2Mi4wN2E1LjkyLDUuOTIsMCwwLDEtMS41LjUyQTksOSwwLDAsMSwyNDAuNTksNTA5LjI1Wm0tLjM4LTguMjhhMS42OCwxLjY4LDAsMCwwLTEuMzMuNTQsMi40NywyLjQ3LDAsMCwwLS41NiwxLjUzaDMuNzZhMi4yNCwyLjI0LDAsMCwwLS41MS0xLjUzQTEuNzgsMS43OCwwLDAsMCwyNDAuMjEsNTAxWiIgY2xhc3M9ImNscy03Ii8+PHBhdGggZD0iTTI0OS40Niw1MDkuMDdoLTIuNjhWNDk1LjM5aDIuNjhaIiBjbGFzcz0iY2xzLTciLz48cGF0aCBkPSJNMjYxLjIsNTA0LjE0YTUuMjQsNS4yNCwwLDAsMS0xLjI3LDMuNzUsNC41NCw0LjU0LDAsMCwxLTMuNTIsMS4zNiw1LDUsMCwwLDEtMi41LS42Miw0LjIsNC4yLDAsMCwxLTEuNjYtMS43OCw2LjExLDYuMTEsMCwwLDEtLjU4LTIuNzEsNS4yMiw1LjIyLDAsMCwxLDEuMjYtMy43NCw0LjYxLDQuNjEsMCwwLDEsMy41My0xLjM0LDUsNSwwLDAsMSwyLjUuNjIsNC4xLDQuMSwwLDAsMSwxLjY2LDEuNzZBNS45LDUuOSwwLDAsMSwyNjEuMiw1MDQuMTRabS02Ljc5LDBhNC4xNCw0LjE0LDAsMCwwLC40OCwyLjIxLDIsMiwwLDAsMCwzLjEsMCw0LjIsNC4yLDAsMCwwLC40Ny0yLjIxQTQsNCwwLDAsMCwyNTgsNTAyYTIsMiwwLDAsMC0zLjEsMEE0LDQsMCwwLDAsMjU0LjQxLDUwNC4xNFoiIGNsYXNzPSJjbHMtNyIvPjxwYXRoIGQ9Ik0yNjguODEsNTA5LjI1QTMuMjQsMy4yNCwwLDAsMSwyNjYuMSw1MDhIMjY2Yy4xLjgyLjE1LDEuMjkuMTUsMS40MnY0aC0yLjY5VjQ5OS4yNGgyLjE4bC4zOCwxLjI4aC4xM2EzLjA5LDMuMDksMCwwLDEsMi43OC0xLjQ2LDMuMjIsMy4yMiwwLDAsMSwyLjczLDEuMzQsNi4yOSw2LjI5LDAsMCwxLDEsMy43NCw3LjI5LDcuMjksMCwwLDEtLjQ2LDIuNzMsMy44NSwzLjg1LDAsMCwxLTEuMzEsMS43N0EzLjQyLDMuNDIsMCwwLDEsMjY4LjgxLDUwOS4yNVpNMjY4LDUwMS4yYTEuNzEsMS43MSwwLDAsMC0xLjQ1LjYxLDMuNTUsMy41NSwwLDAsMC0uNDcsMnYuMjlhNC4wOSw0LjA5LDAsMCwwLC40NywyLjI3LDEuNjcsMS42NywwLDAsMCwxLjQ5LjY5YzEuMiwwLDEuOC0xLDEuOC0zYTQuMTgsNC4xOCwwLDAsMC0uNDUtMi4xN0ExLjUyLDEuNTIsMCwwLDAsMjY4LDUwMS4yWiIgY2xhc3M9ImNscy03Ii8+PHBhdGggZD0iTTI2MC42MSw0MzIuNWgtMi4wOXYtMTBoNS43M3YxLjczaC0zLjY0djIuNThIMjY0djEuNzNoLTMuMzlaIiBjbGFzcz0iY2xzLTciLz48cGF0aCBkPSJNMjY5LjUsNDMyLjY0YTMuOTMsMy45MywwLDAsMS0yLjg4LTEsMy44MywzLjgzLDAsMCwxLTEtMi44OSw0LjI0LDQuMjQsMCwwLDEsMS0zLDMuODksMy44OSwwLDAsMSw1LjE4LS4xMiwzLjQ4LDMuNDgsMCwwLDEsLjksMi41NXYxaC00LjkzYTIsMiwwLDAsMCwuNTMsMS4zOSwxLjgzLDEuODMsMCwwLDAsMS4zOC40OSw1LjQ2LDUuNDYsMCwwLDAsMS4zLS4xNCw2LjI5LDYuMjksMCwwLDAsMS4yOS0uNDZ2MS42MmE1LjIxLDUuMjEsMCwwLDEtMS4xNy40QTcuMjksNy4yOSwwLDAsMSwyNjkuNSw0MzIuNjRabS0uMjktNi40NGExLjMxLDEuMzEsMCwwLDAtMSwuNDIsMS45MSwxLjkxLDAsMCwwLS40MywxLjE5aDIuOTJhMS43NCwxLjc0LDAsMCwwLS40LTEuMTlBMS4zNiwxLjM2LDAsMCwwLDI2OS4yMSw0MjYuMloiIGNsYXNzPSJjbHMtNyIvPjxwYXRoIGQ9Ik0yNzkuMTcsNDMyLjVsLS40MS0xaC0uMDVhMy4wOSwzLjA5LDAsMCwxLTEuMDguOTIsMy41NywzLjU3LDAsMCwxLTEuNDYuMjYsMi4zNCwyLjM0LDAsMCwxLTEuNzMtLjYzLDIuNDMsMi40MywwLDAsMS0uNjMtMS43OSwyLDIsMCwwLDEsLjg1LTEuOCw1LDUsMCwwLDEsMi41Ny0uNjRsMS4zMiwwdi0uMzNhMSwxLDAsMCwwLTEuMTktMS4xNyw1LjQsNS40LDAsMCwwLTIuMTUuNTZsLS42OS0xLjQxYTYuMiw2LjIsMCwwLDEsMi45Mi0uNjksMy42MSwzLjYxLDAsMCwxLDIuMzYuNjcsMi40OCwyLjQ4LDAsMCwxLC44MiwydjUuMDlabS0uNjItMy41NC0uOCwwYTIuNTQsMi41NCwwLDAsMC0xLjM2LjMyLDEsMSwwLDAsMC0uNDQuOTJjMCwuNTkuMzMuODgsMSwuODhhMS42LDEuNiwwLDAsMCwxLjE2LS40MiwxLjQzLDEuNDMsMCwwLDAsLjQzLTEuMVoiIGNsYXNzPSJjbHMtNyIvPjxwYXRoIGQ9Ik0yODYsNDMxYTQuODgsNC44OCwwLDAsMCwxLjMxLS4yNHYxLjU1YTQuNzIsNC43MiwwLDAsMS0xLjkxLjM1LDIuMywyLjMsMCwwLDEtMS44Mi0uNjQsMi43NCwyLjc0LDAsMCwxLS41Ny0xLjg5di0zLjY5aC0xdi0uODhsMS4xNS0uNy42LTEuNjFoMS4zM3YxLjYzaDIuMTR2MS41NmgtMi4xNHYzLjY5YS44LjgsMCwwLDAsLjI1LjY1QTEsMSwwLDAsMCwyODYsNDMxWiIgY2xhc3M9ImNscy03Ii8+PHBhdGggZD0iTTI5NC4yNiw0MzIuNWwtLjI4LTFoLS4xMWEyLjIxLDIuMjEsMCwwLDEtLjk1LjgzLDMuMywzLjMsMCwwLDEtMS40LjI5LDIuNjcsMi42NywwLDAsMS0yLS43MiwyLjkxLDIuOTEsMCwwLDEtLjY4LTIuMDh2LTVoMi4wOHY0LjQ2YTIuMTgsMi4xOCwwLDAsMCwuMjksMS4yNCwxLjA3LDEuMDcsMCwwLDAsLjk0LjQyLDEuNDIsMS40MiwwLDAsMCwxLjI3LS41OSwzLjY0LDMuNjQsMCwwLDAsLjM5LTEuOTR2LTMuNTloMi4wOHY3LjY0WiIgY2xhc3M9ImNscy03Ii8+PHBhdGggZD0iTTMwMi4zMSw0MjQuNzFhMy40OCwzLjQ4LDAsMCwxLC43MS4wNmwtLjE2LDJhMi4xOCwyLjE4LDAsMCwwLS42MS0uMDcsMi4yMiwyLjIyLDAsMCwwLTEuNTYuNTEsMS44OCwxLjg4LDAsMCwwLS41NiwxLjQ0djMuODloLTIuMDh2LTcuNjRoMS41OGwuMywxLjI4SDMwMGEyLjcyLDIuNzIsMCwwLDEsMS0xQTIuMywyLjMsMCwwLDEsMzAyLjMxLDQyNC43MVoiIGNsYXNzPSJjbHMtNyIvPjxwYXRoIGQ9Ik0zMDcuODYsNDMyLjY0YTMuOTMsMy45MywwLDAsMS0yLjg4LTEsMy44NywzLjg3LDAsMCwxLTEtMi44OSw0LjI0LDQuMjQsMCwwLDEsMS0zLDMuNDMsMy40MywwLDAsMSwyLjY2LTEuMDUsMy4zNCwzLjM0LDAsMCwxLDIuNTIuOTMsMy40OCwzLjQ4LDAsMCwxLC45LDIuNTV2MWgtNC45M2EyLjA2LDIuMDYsMCwwLDAsLjUzLDEuMzksMS44NiwxLjg2LDAsMCwwLDEuMzguNDksNS41NCw1LjU0LDAsMCwwLDEuMzEtLjE0LDYuMjEsNi4yMSwwLDAsMCwxLjI4LS40NnYxLjYyYTQuODksNC44OSwwLDAsMS0xLjE3LjRBNy4yMiw3LjIyLDAsMCwxLDMwNy44Niw0MzIuNjRabS0uMjktNi40NGExLjMzLDEuMzMsMCwwLDAtMSwuNDIsMiwyLDAsMCwwLS40MywxLjE5SDMwOWExLjc0LDEuNzQsMCwwLDAtLjQxLTEuMTlBMS4zNiwxLjM2LDAsMCwwLDMwNy41Nyw0MjYuMloiIGNsYXNzPSJjbHMtNyIvPjxwYXRoIGQ9Ik0zMjEsNDMyLjVoLTIuMTF2LTUuNzhsMC0xLDAtMWMtLjM2LjM1LS42LjU4LS43NC42OWwtMS4xNC45Mi0xLTEuMjcsMy4yMi0yLjU2SDMyMVoiIGNsYXNzPSJjbHMtNyIvPjxwYXRoIGQ9Ik0xMjAuMzYsMjYxLjl2My44M2gtMi4xMnYtMTBoMi45MWE1LDUsMCwwLDEsMywuNzQsMywzLDAsMCwxLC41LDMuODIsMy4yMiwzLjIyLDAsMCwxLTEuMzgsMS4wOHEyLjI3LDMuMzgsMi45NCw0LjM1aC0yLjM1bC0yLjM5LTMuODNabTAtMS43MkgxMjFhMi41NSwyLjU1LDAsMCwwLDEuNDgtLjM0LDEuMTgsMS4xOCwwLDAsMCwuNDgtMSwxLjA5LDEuMDksMCwwLDAtLjQ5LTEsMywzLDAsMCwwLTEuNTEtLjNoLS42NFoiIGNsYXNzPSJjbHMtNyIvPjxwYXRoIGQ9Ik0xMzAuNzgsMjY1Ljg3YTMuOTMsMy45MywwLDAsMS0yLjg5LTEsMy44NiwzLjg2LDAsMCwxLTEtMi44OCw0LjI0LDQuMjQsMCwwLDEsMS0zLDMuNDMsMy40MywwLDAsMSwyLjY2LTEuMDUsMy4zOCwzLjM4LDAsMCwxLDIuNTIuOTIsMy41MSwzLjUxLDAsMCwxLC45LDIuNTV2MUgxMjlhMiwyLDAsMCwwLC41MywxLjM5LDEuODcsMS44NywwLDAsMCwxLjM4LjUsNi4xMiw2LjEyLDAsMCwwLDEuMzEtLjE0LDYuNjEsNi42MSwwLDAsMCwxLjI4LS40NnYxLjYxYTQuOTEsNC45MSwwLDAsMS0xLjE3LjQxQTcuMjUsNy4yNSwwLDAsMSwxMzAuNzgsMjY1Ljg3Wm0tLjMtNi40NGExLjMzLDEuMzMsMCwwLDAtMSwuNDIsMiwyLDAsMCwwLS40MywxLjJoMi45M2ExLjc1LDEuNzUsMCwwLDAtLjQxLTEuMkExLjM2LDEuMzYsMCwwLDAsMTMwLjQ4LDI1OS40M1oiIGNsYXNzPSJjbHMtNyIvPjxwYXRoIGQ9Ik0xMzcuNjcsMjY1LjczaC0yLjA4VjI1NS4xaDIuMDhaIiBjbGFzcz0iY2xzLTciLz48cGF0aCBkPSJNMTQzLjMyLDI2NS44N2E0LDQsMCwwLDEtMi44OS0xLDMuODYsMy44NiwwLDAsMS0xLTIuODgsNC4yNCw0LjI0LDAsMCwxLDEtMywzLjg5LDMuODksMCwwLDEsNS4xNy0uMTMsMy40OCwzLjQ4LDAsMCwxLC45MSwyLjU1djFoLTQuOTNhMiwyLDAsMCwwLC41MiwxLjM5LDEuODcsMS44NywwLDAsMCwxLjM4LjUsNi4xMiw2LjEyLDAsMCwwLDEuMzEtLjE0LDYuOTQsNi45NCwwLDAsMCwxLjI5LS40NnYxLjYxYTUuMjQsNS4yNCwwLDAsMS0xLjE3LjQxQTcuMzUsNy4zNSwwLDAsMSwxNDMuMzIsMjY1Ljg3Wm0tLjI5LTYuNDRhMS4zMSwxLjMxLDAsMCwwLTEsLjQyLDEuODYsMS44NiwwLDAsMC0uNDMsMS4yaDIuOTJhMS43NSwxLjc1LDAsMCwwLS40LTEuMkExLjM2LDEuMzYsMCwwLDAsMTQzLDI1OS40M1oiIGNsYXNzPSJjbHMtNyIvPjxwYXRoIGQ9Ik0xNTMsMjY1LjczbC0uNC0xaC0uMDVhMy4xMywzLjEzLDAsMCwxLTEuMDkuOTIsMy41LDMuNSwwLDAsMS0xLjQ1LjI1LDIuMzQsMi4zNCwwLDAsMS0xLjczLS42MywyLjQxLDIuNDEsMCwwLDEtLjYzLTEuNzksMiwyLDAsMCwxLC44NS0xLjc5QTQuODQsNC44NCwwLDAsMSwxNTEsMjYxbDEuMzMsMHYtLjM0YTEsMSwwLDAsMC0xLjE5LTEuMTZBNS4zNiw1LjM2LDAsMCwwLDE0OSwyNjBsLS42OS0xLjRhNi4yLDYuMiwwLDAsMSwyLjkyLS42OSwzLjY5LDMuNjksMCwwLDEsMi4zNi42NiwyLjQ4LDIuNDgsMCwwLDEsLjgyLDJ2NS4wOVptLS42MS0zLjU0LS44MSwwYTIuNjIsMi42MiwwLDAsMC0xLjM1LjMzLDEsMSwwLDAsMC0uNDQuOTJjMCwuNTguMzMuODgsMSwuODhhMS42LDEuNiwwLDAsMCwxLjE2LS40MiwxLjQ3LDEuNDcsMCwwLDAsLjQzLTEuMTFaIiBjbGFzcz0iY2xzLTciLz48cGF0aCBkPSJNMTYxLjkyLDI2My40N2EyLjEsMi4xLDAsMCwxLS44MiwxLjc5LDQsNCwwLDAsMS0yLjQ0LjYxLDguMTEsOC4xMSwwLDAsMS0xLjQyLS4xMSw2LjEzLDYuMTMsMCwwLDEtMS4xLS4zM1YyNjMuN2E2LjM5LDYuMzksMCwwLDAsMS4zLjQ2LDUuMDksNS4wOSwwLDAsMCwxLjI5LjE5Yy43NSwwLDEuMTMtLjIyLDEuMTMtLjY2YS41NS41NSwwLDAsMC0uMTUtLjQsMi4xNywyLjE3LDAsMCwwLS41Mi0uMzVjLS4yNC0uMTMtLjU3LS4yOC0xLS40NWE2LjQ0LDYuNDQsMCwwLDEtMS4zLS42OSwyLDIsMCwwLDEtLjYtLjcyLDIuNDQsMi40NCwwLDAsMS0uMTktMSwxLjgyLDEuODIsMCwwLDEsLjc5LTEuNTcsMy44MSwzLjgxLDAsMCwxLDIuMjQtLjU2LDYuMzgsNi4zOCwwLDAsMSwyLjY5LjZsLS42MywxLjVjLS4zOC0uMTYtLjc0LS4yOS0xLjA3LS40YTMuNjEsMy42MSwwLDAsMC0xLS4xNmMtLjYyLDAtLjkzLjE3LS45My41YS41OS41OSwwLDAsMCwuMy40OSw4Ljg0LDguODQsMCwwLDAsMS4zLjYxLDYuMDcsNi4wNywwLDAsMSwxLjMyLjY3LDIsMiwwLDAsMSwuNjEuNzNBMi4yNSwyLjI1LDAsMCwxLDE2MS45MiwyNjMuNDdaIiBjbGFzcz0iY2xzLTciLz48cGF0aCBkPSJNMTY3LDI2NS44N2E0LDQsMCwwLDEtMi44OS0xLDMuODYsMy44NiwwLDAsMS0xLTIuODgsNC4yNCw0LjI0LDAsMCwxLDEtM0EzLjQzLDMuNDMsMCwwLDEsMTY2LjcsMjU4YTMuMzgsMy4zOCwwLDAsMSwyLjUyLjkyLDMuNTEsMy41MSwwLDAsMSwuOSwyLjU1djFoLTQuOTNhMiwyLDAsMCwwLC41MywxLjM5LDEuODcsMS44NywwLDAsMCwxLjM4LjUsNi4xMiw2LjEyLDAsMCwwLDEuMzEtLjE0LDYuNjEsNi42MSwwLDAsMCwxLjI4LS40NnYxLjYxYTQuOTEsNC45MSwwLDAsMS0xLjE3LjQxQTcuMjUsNy4yNSwwLDAsMSwxNjcsMjY1Ljg3Wm0tLjMtNi40NGExLjMzLDEuMzMsMCwwLDAtMSwuNDIsMiwyLDAsMCwwLS40MywxLjJoMi45M2ExLjc1LDEuNzUsMCwwLDAtLjQxLTEuMkExLjM2LDEuMzYsMCwwLDAsMTY2LjcxLDI1OS40M1oiIGNsYXNzPSJjbHMtNyIvPjxwYXRoIGQ9Ik0xODEuOTEsMjY1LjczaC03di0xLjQ2bDIuNTEtMi41NGMuNzQtLjc2LDEuMjMtMS4yOSwxLjQ2LTEuNThhMy45MiwzLjkyLDAsMCwwLC40OS0uODIsMi4wOCwyLjA4LDAsMCwwLC4xNS0uNzgsMS4xNiwxLjE2LDAsMCwwLS4zMy0uOSwxLjMyLDEuMzIsMCwwLDAtLjg5LS4yOSwyLjU0LDIuNTQsMCwwLDAtMS4xMy4yNyw2LjA5LDYuMDksMCwwLDAtMS4xNC43NkwxNzQuODksMjU3YTcuMzQsNy4zNCwwLDAsMSwxLjIzLS44OSw0LDQsMCwwLDEsMS4wNi0uNCw1LjA3LDUuMDcsMCwwLDEsMS4yOC0uMTQsMy43OSwzLjc5LDAsMCwxLDEuNjYuMzQsMi42MSwyLjYxLDAsMCwxLDEuMTEsMSwyLjQ5LDIuNDksMCwwLDEsLjQsMS40LDMuMzEsMy4zMSwwLDAsMS0uMjUsMS4zLDQuODgsNC44OCwwLDAsMS0uNzUsMS4yNCwxOS4xLDE5LjEsMCwwLDEtMS43OSwxLjgxbC0xLjI5LDEuMjF2LjFoNC4zNloiIGNsYXNzPSJjbHMtNyIvPjxwYXRoIGQ9Ik0xODMuMTUsMjY0Ljc2YTEuMTMsMS4xMywwLDAsMSwuMzEtLjg3LDEuMjIsMS4yMiwwLDAsMSwuOS0uMjksMS4xOSwxLjE5LDAsMCwxLC44Ny4zLDEuMTIsMS4xMiwwLDAsMSwuMzEuODYsMS4xNCwxLjE0LDAsMCwxLS4zMS44NSwxLjE3LDEuMTcsMCwwLDEtLjg3LjMxLDEuMjMsMS4yMywwLDAsMS0uODktLjNBMS4xNSwxLjE1LDAsMCwxLDE4My4xNSwyNjQuNzZaIiBjbGFzcz0iY2xzLTciLz48cGF0aCBkPSJNMTkzLjg0LDI2MC43NGE3LDcsMCwwLDEtLjg2LDMuODcsMywzLDAsMCwxLTIuNjQsMS4yNiwyLjkyLDIuOTIsMCwwLDEtMi42MS0xLjMsNi44LDYuOCwwLDAsMS0uODgtMy44Myw3LjA5LDcuMDksMCwwLDEsLjg1LTMuOSwzLjMyLDMuMzIsMCwwLDEsNS4yNS4wNkE2Ljg1LDYuODUsMCwwLDEsMTkzLjg0LDI2MC43NFptLTQuODksMGE3LjgsNy44LDAsMCwwLC4zMiwyLjYzLDEuMTEsMS4xMSwwLDAsMCwyLjEzLDAsMTAuNjUsMTAuNjUsMCwwLDAsMC01LjI2LDEuMTIsMS4xMiwwLDAsMC0xLjA2LS44MSwxLjEsMS4xLDAsMCwwLTEuMDcuODFBNy44Myw3LjgzLDAsMCwwLDE4OSwyNjAuNzRaIiBjbGFzcz0iY2xzLTciLz48cGF0aCBkPSJNMTMwLDM3LjY0aC0yLjExVjMzLjMyaC00djQuMzJoLTIuMTJ2LTEwSDEyNHYzLjkyaDRWMjcuNjRIMTMwWiIgY2xhc3M9ImNscy03Ii8+PHBhdGggZD0iTTEzOS4zMywzMy44YTQuMTIsNC4xMiwwLDAsMS0xLDIuOTIsMy41OCwzLjU4LDAsMCwxLTIuNzQsMS4wNSwzLjgyLDMuODIsMCwwLDEtMS45NC0uNDgsMy4yMSwzLjIxLDAsMCwxLTEuMy0xLjM4LDQuNjgsNC42OCwwLDAsMS0uNDUtMi4xMSw0LjA4LDQuMDgsMCwwLDEsMS0yLjkxLDMuNiwzLjYsMCwwLDEsMi43NS0xLDMuODUsMy44NSwwLDAsMSwxLjk0LjQ4LDMuMjIsMy4yMiwwLDAsMSwxLjI5LDEuMzdBNC42NCw0LjY0LDAsMCwxLDEzOS4zMywzMy44Wm0tNS4yOCwwYTMuMjEsMy4yMSwwLDAsMCwuMzcsMS43MiwxLjMyLDEuMzIsMCwwLDAsMS4yMS41OCwxLjI5LDEuMjksMCwwLDAsMS4yLS41OCwzLjE5LDMuMTksMCwwLDAsLjM3LTEuNzIsMy4xMSwzLjExLDAsMCwwLS4zNy0xLjcsMS4zNCwxLjM0LDAsMCwwLTEuMjEtLjU3LDEuMzIsMS4zMiwwLDAsMC0xLjIuNTdBMy4wOSwzLjA5LDAsMCwwLDEzNC4wNSwzMy44WiIgY2xhc3M9ImNscy03Ii8+PHBhdGggZD0iTTE0NC4yOCwzNi4xMWE0LjUyLDQuNTIsMCwwLDAsMS4zMS0uMjR2MS41NWE0LjU4LDQuNTgsMCwwLDEtMS45Mi4zNSwyLjM1LDIuMzUsMCwwLDEtMS44Mi0uNjMsMi43NSwyLjc1LDAsMCwxLS41Ny0xLjlWMzEuNTZoLTF2LS44OGwxLjE1LS43LjYtMS42MWgxLjM0VjMwaDIuMTR2MS41N2gtMi4xNHYzLjY4YS44LjgsMCwwLDAsLjI1LjY2QTEsMSwwLDAsMCwxNDQuMjgsMzYuMTFaIiBjbGFzcz0iY2xzLTciLz48cGF0aCBkPSJNMTUxLjM2LDMxLjU2aC0xLjgxdjYuMDhoLTIuMDhWMzEuNTZoLTEuMTV2LTFsMS4xNS0uNTZ2LS41NmEyLjQ4LDIuNDgsMCwwLDEsLjY0LTEuOSwyLjksMi45LDAsMCwxLDIuMDYtLjYxLDUuMjIsNS4yMiwwLDAsMSwxLjkyLjMzbC0uNTMsMS41M2E0LDQsMCwwLDAtMS4xNy0uMi43Ny43NywwLDAsMC0uNjQuMjYsMS4xMiwxLjEyLDAsMCwwLS4yLjY4VjMwaDEuODFabTEuMS0zLjU0cTAtMSwxLjE0LTFjLjc2LDAsMS4xMy4zNCwxLjEzLDFhMSwxLDAsMCwxLS4yOC43NSwxLjE5LDEuMTksMCwwLDEtLjg1LjI3UTE1Mi40NiwyOSwxNTIuNDYsMjhabTIuMTgsOS42MmgtMi4wOVYzMGgyLjA5WiIgY2xhc3M9ImNscy03Ii8+PHBhdGggZD0iTTE1OC4zOCwzMy43MywxNTUuOTIsMzBoMi4zN2wxLjQ4LDIuNDQsMS41LTIuNDRoMi4zNmwtMi40OCwzLjc0LDIuNiwzLjkxaC0yLjM3TDE1OS43NywzNWwtMS42MSwyLjYyaC0yLjM3WiIgY2xhc3M9ImNscy03Ii8+PHBhdGggZD0iTTE3Mi43NywzMS41NkgxNzF2Ni4wOGgtMi4wOVYzMS41NmgtMS4xNHYtMWwxLjE0LS41NnYtLjU2YTIuNDgsMi40OCwwLDAsMSwuNjUtMS45LDIuODksMi44OSwwLDAsMSwyLjA1LS42MSw1LjMxLDUuMzEsMCwwLDEsMS45My4zM0wxNzMsMjguNzhhMy45MywzLjkzLDAsMCwwLTEuMTYtLjIuNzUuNzUsMCwwLDAtLjY0LjI2LDEuMTIsMS4xMiwwLDAsMC0uMi42OFYzMGgxLjhaIiBjbGFzcz0iY2xzLTciLz48cGF0aCBkPSJNMTgwLjkyLDMzLjhhNC4wOCw0LjA4LDAsMCwxLTEsMi45MiwzLjU2LDMuNTYsMCwwLDEtMi43NCwxLjA1LDMuODUsMy44NSwwLDAsMS0xLjk0LS40OEEzLjE5LDMuMTksMCwwLDEsMTc0LDM1LjkxYTQuNjgsNC42OCwwLDAsMS0uNDUtMi4xMSw0LjA4LDQuMDgsMCwwLDEsMS0yLjkxLDMuNiwzLjYsMCwwLDEsMi43NS0xLDMuODUsMy44NSwwLDAsMSwxLjk0LjQ4LDMuMjIsMy4yMiwwLDAsMSwxLjI5LDEuMzdBNC41MSw0LjUxLDAsMCwxLDE4MC45MiwzMy44Wm0tNS4yOSwwYTMuMywzLjMsMCwwLDAsLjM3LDEuNzIsMS4zNCwxLjM0LDAsMCwwLDEuMjIuNTgsMS4zMiwxLjMyLDAsMCwwLDEuMi0uNTgsMy4yOSwzLjI5LDAsMCwwLC4zNi0xLjcyLDMuMTEsMy4xMSwwLDAsMC0uMzctMS43LDEuNTYsMS41NiwwLDAsMC0yLjQxLDBBMy4wOSwzLjA5LDAsMCwwLDE3NS42MywzMy44WiIgY2xhc3M9ImNscy03Ii8+PHBhdGggZD0iTTE4Ni45LDI5Ljg1YTMuNDgsMy40OCwwLDAsMSwuNzEuMDZsLS4xNiwyYTIuMTgsMi4xOCwwLDAsMC0uNjEtLjA3LDIuMjIsMi4yMiwwLDAsMC0xLjU2LjUxLDEuODYsMS44NiwwLDAsMC0uNTYsMS40NHYzLjg5aC0yLjA4VjMwaDEuNThsLjMxLDEuMjloLjFhMi45LDIuOSwwLDAsMSwxLTFBMi4zNiwyLjM2LDAsMCwxLDE4Ni45LDI5Ljg1WiIgY2xhc3M9ImNscy03Ii8+PHBhdGggZD0iTTE1MS44LDU0LjQ0aC03VjUzbDIuNS0yLjU0Yy43NS0uNzYsMS4yMy0xLjI5LDEuNDYtMS41OGEzLjUzLDMuNTMsMCwwLDAsLjQ5LS44MiwyLjA4LDIuMDgsMCwwLDAsLjE1LS43OCwxLjEyLDEuMTIsMCwwLDAtLjMzLS44OSwxLjI3LDEuMjcsMCwwLDAtLjg4LS4zLDIuNTEsMi41MSwwLDAsMC0xLjEzLjI3LDUuNTEsNS41MSwwLDAsMC0xLjE0Ljc2bC0xLjE1LTEuMzZhNy4zNCw3LjM0LDAsMCwxLDEuMjItLjg5LDQuNDcsNC40NywwLDAsMSwxLjA2LS40LDUuNiw1LjYsMCwwLDEsMS4yOS0uMTQsMy43NywzLjc3LDAsMCwxLDEuNjUuMzQsMi42MSwyLjYxLDAsMCwxLDEuMTEsMSwyLjUsMi41LDAsMCwxLC40LDEuNDEsMy40NCwzLjQ0LDAsMCwxLS4yNCwxLjI5LDQuODgsNC44OCwwLDAsMS0uNzUsMS4yNCwxNy4yNiwxNy4yNiwwLDAsMS0xLjgsMS44MWwtMS4yOCwxLjIxdi4xaDQuMzVaIiBjbGFzcz0iY2xzLTciLz48cGF0aCBkPSJNMTUzLjA1LDUzLjQ2YTEuMTgsMS4xOCwwLDAsMSwuMy0uODcsMS4yNSwxLjI1LDAsMCwxLC45LS4yOSwxLjIyLDEuMjIsMCwwLDEsLjg4LjMsMS4zMiwxLjMyLDAsMCwxLDAsMS43MSwxLjE3LDEuMTcsMCwwLDEtLjg3LjMxLDEuMjQsMS4yNCwwLDAsMS0uODktLjNBMS4xNSwxLjE1LDAsMCwxLDE1My4wNSw1My40NloiIGNsYXNzPSJjbHMtNyIvPjxwYXRoIGQ9Ik0xNjMuNzMsNDkuNDRhNyw3LDAsMCwxLS44NiwzLjg4LDMsMywwLDAsMS0yLjY0LDEuMjUsMywzLDAsMCwxLTIuNjEtMS4zLDYuODgsNi44OCwwLDAsMS0uODgtMy44Myw3LDcsMCwwLDEsLjg2LTMuOSwzLjMzLDMuMzMsMCwwLDEsNS4yNS4wNkE2Ljg2LDYuODYsMCwwLDEsMTYzLjczLDQ5LjQ0Wm0tNC44OSwwYTcuOTEsNy45MSwwLDAsMCwuMzIsMi42NCwxLjEsMS4xLDAsMCwwLDEuMDcuNzksMS4xMiwxLjEyLDAsMCwwLDEuMDctLjgxLDcuNTIsNy41MiwwLDAsMCwuMzItMi42Miw3LjUyLDcuNTIsMCwwLDAtLjMzLTIuNjQsMS4xMSwxLjExLDAsMCwwLTIuMTMsMEE3LjgzLDcuODMsMCwwLDAsMTU4Ljg0LDQ5LjQ0WiIgY2xhc3M9ImNscy03Ii8+PHBhdGggZD0iTTM2My43MywzODcuMjloLTIuMDl2LTEwaDUuNzNWMzc5aC0zLjY0djIuNTdoMy4zOXYxLjczaC0zLjM5WiIgY2xhc3M9ImNscy03Ii8+PHBhdGggZD0iTTM3Mi42MiwzODcuNDNhNCw0LDAsMCwxLTIuODktMSwzLjg2LDMuODYsMCwwLDEtMS0yLjg4LDQuMjUsNC4yNSwwLDAsMSwxLTMsMy44OSwzLjg5LDAsMCwxLDUuMTctLjEzLDMuNDgsMy40OCwwLDAsMSwuOTEsMi41NXYxaC00LjkzYTIsMiwwLDAsMCwuNTIsMS4zOSwxLjg3LDEuODcsMCwwLDAsMS4zOC41LDYuMTIsNi4xMiwwLDAsMCwxLjMxLS4xNCw2Ljk0LDYuOTQsMCwwLDAsMS4yOS0uNDZ2MS42MWE1LjI0LDUuMjQsMCwwLDEtMS4xNy40MUE3LjM1LDcuMzUsMCwwLDEsMzcyLjYyLDM4Ny40M1ptLS4zLTYuNDRhMS4zMSwxLjMxLDAsMCwwLTEsLjQyLDEuODYsMS44NiwwLDAsMC0uNDMsMS4xOWgyLjkyYTEuNzQsMS43NCwwLDAsMC0uNC0xLjE5QTEuMzcsMS4zNywwLDAsMCwzNzIuMzIsMzgxWiIgY2xhc3M9ImNscy03Ii8+PHBhdGggZD0iTTM4Mi4yOCwzODcuMjlsLS40LTFoLS4wNWEzLjIyLDMuMjIsMCwwLDEtMS4wOS45MiwzLjUsMy41LDAsMCwxLTEuNDUuMjUsMi4zNCwyLjM0LDAsMCwxLTEuNzMtLjYzLDIuNDEsMi40MSwwLDAsMS0uNjMtMS43OSwyLDIsMCwwLDEsLjg1LTEuNzksNC44NCw0Ljg0LDAsMCwxLDIuNTYtLjY0bDEuMzMsMHYtLjM0YTEsMSwwLDAsMC0xLjE5LTEuMTYsNS4zNiw1LjM2LDAsMCwwLTIuMTUuNTVsLS42OS0xLjRhNi4yLDYuMiwwLDAsMSwyLjkyLS43LDMuNjksMy42OSwwLDAsMSwyLjM2LjY3LDIuNDgsMi40OCwwLDAsMSwuODIsMnY1LjA5Wm0tLjYxLTMuNTQtLjgxLDBhMi42MiwyLjYyLDAsMCwwLTEuMzUuMzMsMSwxLDAsMCwwLS40NC45MWMwLC41OS4zMy44OSwxLC44OWExLjYsMS42LDAsMCwwLDEuMTYtLjQyLDEuNDcsMS40NywwLDAsMCwuNDMtMS4xMVoiIGNsYXNzPSJjbHMtNyIvPjxwYXRoIGQ9Ik0zODkuMTEsMzg1Ljc3YTQuNTIsNC41MiwwLDAsMCwxLjMxLS4yNHYxLjU1YTQuNzIsNC43MiwwLDAsMS0xLjkxLjM1LDIuMzYsMi4zNiwwLDAsMS0xLjgzLS42MywyLjc3LDIuNzcsMCwwLDEtLjU3LTEuOXYtMy42OGgtMXYtLjg4bDEuMTUtLjcuNi0xLjYyaDEuMzR2MS42M2gyLjE0djEuNTdIMzg4LjJ2My42OGEuOC44LDAsMCwwLC4yNS42NkExLDEsMCwwLDAsMzg5LjExLDM4NS43N1oiIGNsYXNzPSJjbHMtNyIvPjxwYXRoIGQ9Ik0zOTcuMzgsMzg3LjI5bC0uMjgtMUgzOTdhMi4xOSwyLjE5LDAsMCwxLS45NS44MiwzLjMsMy4zLDAsMCwxLTEuNC4yOSwyLjY2LDIuNjYsMCwwLDEtMi0uNzIsMi44OCwyLjg4LDAsMCwxLS42OS0yLjA3di01SDM5NHY0LjQ3YTIuMiwyLjIsMCwwLDAsLjI5LDEuMjQsMS4wOSwxLjA5LDAsMCwwLC45NC40MSwxLjQsMS40LDAsMCwwLDEuMjYtLjU4LDMuNjQsMy42NCwwLDAsMCwuMzktMS45NHYtMy42SDM5OXY3LjY0WiIgY2xhc3M9ImNscy03Ii8+PHBhdGggZD0iTTQwNS40MywzNzkuNTFhMy41NSwzLjU1LDAsMCwxLC43MS4wNmwtLjE2LDEuOTVhMi43NywyLjc3LDAsMCwwLS42Mi0uMDYsMi4yMSwyLjIxLDAsMCwwLTEuNTUuNTEsMS44NSwxLjg1LDAsMCwwLS41NiwxLjQzdjMuODloLTIuMDh2LTcuNjRoMS41N2wuMzEsMS4yOWguMWEyLjkxLDIuOTEsMCwwLDEsMS0xQTIuNDIsMi40MiwwLDAsMSw0MDUuNDMsMzc5LjUxWiIgY2xhc3M9ImNscy03Ii8+PHBhdGggZD0iTTQxMSwzODcuNDNhMy45MywzLjkzLDAsMCwxLTIuODgtMSwzLjgzLDMuODMsMCwwLDEtMS0yLjg4LDQuMjQsNC4yNCwwLDAsMSwxLTMsMy45LDMuOSwwLDAsMSw1LjE4LS4xMywzLjUxLDMuNTEsMCwwLDEsLjksMi41NXYxaC00LjkzYTIsMiwwLDAsMCwuNTMsMS4zOSwxLjg1LDEuODUsMCwwLDAsMS4zOC41LDYsNiwwLDAsMCwxLjMtLjE0LDYuOTQsNi45NCwwLDAsMCwxLjI5LS40NnYxLjYxYTUuMjQsNS4yNCwwLDAsMS0xLjE3LjQxQTcuMzUsNy4zNSwwLDAsMSw0MTEsMzg3LjQzWm0tLjI5LTYuNDRhMS4zMywxLjMzLDAsMCwwLTEsLjQyLDEuOTEsMS45MSwwLDAsMC0uNDMsMS4xOWgyLjkyYTEuNjksMS42OSwwLDAsMC0uNC0xLjE5QTEuMzYsMS4zNiwwLDAsMCw0MTAuNjksMzgxWiIgY2xhc3M9ImNscy03Ii8+PHBhdGggZD0iTTQyNS44OCwzODcuMjloLTd2LTEuNDdsMi41MS0yLjUzYy43NC0uNzYsMS4yMy0xLjI5LDEuNDUtMS41OGE0LDQsMCwwLDAsLjUtLjgyLDIuMDgsMi4wOCwwLDAsMCwuMTUtLjc4LDEuMTMsMS4xMywwLDAsMC0uMzQtLjksMS4zLDEuMywwLDAsMC0uODgtLjI5LDIuNTQsMi41NCwwLDAsMC0xLjEzLjI3QTUuNjQsNS42NCwwLDAsMCw0MjAsMzgwbC0xLjE1LTEuMzZhNy4zNCw3LjM0LDAsMCwxLDEuMjItLjg5LDQuMjIsNC4yMiwwLDAsMSwxLjA2LS40LDUuMjEsNS4yMSwwLDAsMSwxLjI5LS4xNCwzLjc3LDMuNzcsMCwwLDEsMS42NS4zNCwyLjcsMi43LDAsMCwxLDEuMTIsMSwyLjU3LDIuNTcsMCwwLDEsLjM5LDEuNCwzLjQ5LDMuNDksMCwwLDEtLjI0LDEuMyw0Ljg4LDQuODgsMCwwLDEtLjc1LDEuMjQsMTkuMSwxOS4xLDAsMCwxLTEuNzksMS44MWwtMS4yOSwxLjIxdi4xaDQuMzVaIiBjbGFzcz0iY2xzLTciLz48cGF0aCBkPSJNMTM0LjgzLDc0LjY3aC0zVjU3Ljg2YTExLjkzLDExLjkzLDAsMCwwLTExLjkyLTExLjkyaC0yMHYtM2gyMGExNC45MywxNC45MywwLDAsMSwxNC45MiwxNC45MloiIGNsYXNzPSJjbHMtNCIvPjxwb2x5Z29uIHBvaW50cz0iMTAxLjQyIDM3LjE1IDEwMS40MiA1MS43MyA5NC4xMyA0NC40NCAxMDEuNDIgMzcuMTUiIGNsYXNzPSJjbHMtNCIvPjxwYXRoIGQ9Ik0yNzUuMzIsNDE0SDI0Ny41N3YtM2gyNy43NUExMS45NCwxMS45NCwwLDAsMCwyODcuMjQsMzk5di04Ljc2aDNWMzk5QTE0Ljk0LDE0Ljk0LDAsMCwxLDI3NS4zMiw0MTRaIiBjbGFzcz0iY2xzLTYiLz48cG9seWdvbiBwb2ludHM9IjI4MS40NSAzOTEuMjQgMjk2LjAzIDM5MS4yNCAyODguNzQgMzgzLjk2IDI4MS40NSAzOTEuMjQiIGNsYXNzPSJjbHMtNiIvPjxwYXRoIGQ9Ik0yOTAuMTYsMzIwaC0zdi0xNi44YTExLjkzLDExLjkzLDAsMCwwLTExLjkyLTExLjkzaC0yMHYtM2gyMGExNC45NCwxNC45NCwwLDAsMSwxNC45MiwxNC45M1oiIGNsYXNzPSJjbHMtNiIvPjxwb2x5Z29uIHBvaW50cz0iMjU2Ljc1IDI4Mi40NSAyNTYuNzUgMjk3LjAzIDI0OS40NiAyODkuNzQgMjU2Ljc1IDI4Mi40NSIgY2xhc3M9ImNscy02Ii8+PHBhdGggZD0iTTM0MiwyNzkuODdoLTN2LTE2LjhhMTEuOTQsMTEuOTQsMCwwLDAtMTEuOTItMTEuOTNIMjU1LjIxdi0zaDcxLjg4QTE1LDE1LDAsMCwxLDM0MiwyNjMuMDdaIiBjbGFzcz0iY2xzLTEiLz48cG9seWdvbiBwb2ludHM9IjI1Ni43NSAyNDIuMzUgMjU2Ljc1IDI1Ni45MyAyNDkuNDYgMjQ5LjY0IDI1Ni43NSAyNDIuMzUiIGNsYXNzPSJjbHMtMSIvPjxyZWN0IGhlaWdodD0iMS4wOCIgd2lkdGg9IjI1LjQzIiB5PSI0NTIuNzMiIHg9IjQ0Ljk3IiBjbGFzcz0iY2xzLTUiLz48cmVjdCByeD0iMy4zIiBoZWlnaHQ9IjE4Ljk0IiB3aWR0aD0iNDYuMyIgeT0iNDQzLjgxIiBjbGFzcz0iY2xzLTUiLz48cGF0aCBkPSJNMTIuMDksNDU3LjdsLTIuOTEtNy42NGgyLjE4bDEuNDgsNC4zNWE4LjcsOC43LDAsMCwxLC4zMSwxLjU3aDBhNi43Nyw2Ljc3LDAsMCwxLC4zLTEuNTdMMTUsNDUwLjA2aDIuMThsLTIuOTEsNy42NFoiIGNsYXNzPSJjbHMtOCIvPjxwYXRoIGQ9Ik0yMi45Myw0NTcuN0gyMC44MnYtNS43OGwwLS45NSwwLTFjLS4zNS4zNS0uNTkuNTgtLjczLjY5bC0xLjE1LjkyLTEtMS4yNywzLjIyLTIuNTdoMS43NFoiIGNsYXNzPSJjbHMtOCIvPjxwYXRoIGQ9Ik0yNS45NCw0NTYuNzJhMS4xOCwxLjE4LDAsMCwxLC4zLS44NywxLjMsMS4zLDAsMCwxLC45LS4yOSwxLjIyLDEuMjIsMCwwLDEsLjg4LjMsMS4xNywxLjE3LDAsMCwxLC4zMS44NiwxLjE1LDEuMTUsMCwwLDEtLjMyLjg1LDEuMTcsMS4xNywwLDAsMS0uODcuMzEsMS4yNCwxLjI0LDAsMCwxLS44OS0uM0ExLjEzLDEuMTMsMCwwLDEsMjUuOTQsNDU2LjcyWiIgY2xhc3M9ImNscy04Ii8+PHBhdGggZD0iTTM2LjYyLDQ1Mi43YTcsNywwLDAsMS0uODYsMy44OCwzLDMsMCwwLDEtMi42NCwxLjI2LDMsMywwLDAsMS0yLjYxLTEuMyw2Ljk0LDYuOTQsMCwwLDEtLjg4LTMuODQsNyw3LDAsMCwxLC44Ni0zLjksMywzLDAsMCwxLDIuNjMtMS4yNSwyLjkzLDIuOTMsMCwwLDEsMi42MSwxLjMxQTYuODgsNi44OCwwLDAsMSwzNi42Miw0NTIuN1ptLTQuODksMGE3LjgzLDcuODMsMCwwLDAsLjMyLDIuNjQsMS4xLDEuMSwwLDAsMCwxLjA3Ljc5LDEuMTIsMS4xMiwwLDAsMCwxLjA3LS44LDcuODgsNy44OCwwLDAsMCwuMzItMi42Myw3LjYsNy42LDAsMCwwLS4zMy0yLjY0LDEuMTEsMS4xMSwwLDAsMC0yLjEzLDBBNy45MSw3LjkxLDAsMCwwLDMxLjczLDQ1Mi43WiIgY2xhc3M9ImNscy04Ii8+PHJlY3QgaGVpZ2h0PSIxLjA4IiB3aWR0aD0iMjUuNDMiIHk9IjEyNS42OCIgeD0iNDQuOTciIGNsYXNzPSJjbHMtNSIvPjxyZWN0IHJ4PSIzLjMiIGhlaWdodD0iMTguOTQiIHdpZHRoPSI0Ni4zIiB5PSIxMTYuNzUiIGNsYXNzPSJjbHMtNSIvPjxwYXRoIGQ9Ik0xMi4wOSwxMzAuNjQsOS4xOCwxMjNoMi4xOGwxLjQ4LDQuMzZhOC43Nyw4Ljc3LDAsMCwxLC4zMSwxLjU2aDBhNi42LDYuNiwwLDAsMSwuMy0xLjU2TDE1LDEyM2gyLjE4bC0yLjkxLDcuNjRaIiBjbGFzcz0iY2xzLTgiLz48cGF0aCBkPSJNMjQuNjksMTMwLjY0aC03di0xLjQ3bDIuNTEtMi41M2MuNzUtLjc2LDEuMjMtMS4yOSwxLjQ2LTEuNThhMy41MywzLjUzLDAsMCwwLC40OS0uODIsMi4wOCwyLjA4LDAsMCwwLC4xNS0uNzgsMS4xNiwxLjE2LDAsMCwwLS4zMy0uOSwxLjMxLDEuMzEsMCwwLDAtLjg4LS4yOSwyLjUxLDIuNTEsMCwwLDAtMS4xMy4yNyw1LjEzLDUuMTMsMCwwLDAtMS4xNC43NmwtMS4xNS0xLjM2YTcuMzQsNy4zNCwwLDAsMSwxLjIyLS44OSw0LjA4LDQuMDgsMCwwLDEsMS4wNi0uNCw1LjEsNS4xLDAsMCwxLDEuMjktLjE0LDMuNzcsMy43NywwLDAsMSwxLjY1LjM0LDIuNTUsMi41NSwwLDAsMSwxLjExLDEsMi40OSwyLjQ5LDAsMCwxLC40LDEuNCwzLjUzLDMuNTMsMCwwLDEtLjI0LDEuMyw0Ljg4LDQuODgsMCwwLDEtLjc1LDEuMjQsMTguMywxOC4zLDAsMCwxLTEuOCwxLjgxbC0xLjI4LDEuMjF2LjFoNC4zNVoiIGNsYXNzPSJjbHMtOCIvPjxwYXRoIGQ9Ik0yNS45NCwxMjkuNjdhMS4xNSwxLjE1LDAsMCwxLC4zLS44NywxLjI1LDEuMjUsMCwwLDEsLjktLjMsMS4xOCwxLjE4LDAsMCwxLC44OC4zMSwxLjMyLDEuMzIsMCwwLDEsMCwxLjcxLDEuMTcsMS4xNywwLDAsMS0uODcuMzEsMS4yMSwxLjIxLDAsMCwxLS44OS0uMzFBMS4xMSwxLjExLDAsMCwxLDI1Ljk0LDEyOS42N1oiIGNsYXNzPSJjbHMtOCIvPjxwYXRoIGQ9Ik0zNi42MiwxMjUuNjVhNyw3LDAsMCwxLS44NiwzLjg3LDMsMywwLDAsMS0yLjY0LDEuMjYsMywzLDAsMCwxLTIuNjEtMS4zLDYuODgsNi44OCwwLDAsMS0uODgtMy44Myw3LDcsMCwwLDEsLjg2LTMuOSwzLDMsMCwwLDEsMi42My0xLjI2LDIuOTQsMi45NCwwLDAsMSwyLjYxLDEuMzJBNi44NSw2Ljg1LDAsMCwxLDM2LjYyLDEyNS42NVptLTQuODksMGE3LjgsNy44LDAsMCwwLC4zMiwyLjYzLDEuMTEsMS4xMSwwLDAsMCwxLjA3LjgsMS4xMiwxLjEyLDAsMCwwLDEuMDctLjgxLDcuODEsNy44MSwwLDAsMCwuMzItMi42Miw3LjUyLDcuNTIsMCwwLDAtLjMzLTIuNjQsMS4xMSwxLjExLDAsMCwwLTIuMTMsMEE3LjgzLDcuODMsMCwwLDAsMzEuNzMsMTI1LjY1WiIgY2xhc3M9ImNscy04Ii8+PHJlY3QgaGVpZ2h0PSIxLjA4IiB3aWR0aD0iMjUuNDMiIHk9IjQzLjkiIHg9IjQ0Ljk3IiBjbGFzcz0iY2xzLTUiLz48cmVjdCByeD0iMy4zIiBoZWlnaHQ9IjE4Ljk0IiB3aWR0aD0iNDYuMyIgeT0iMzQuOTciIGNsYXNzPSJjbHMtNSIvPjxwYXRoIGQ9Ik0xMi4wOSw0OC44Niw5LjE4LDQxLjIyaDIuMThsMS40OCw0LjM2YTguNzcsOC43NywwLDAsMSwuMzEsMS41NmgwYTYuNiw2LjYsMCwwLDEsLjMtMS41NkwxNSw0MS4yMmgyLjE4bC0yLjkxLDcuNjRaIiBjbGFzcz0iY2xzLTgiLz48cGF0aCBkPSJNMjQuNjksNDguODZoLTdWNDcuMzlsMi41MS0yLjUzYy43NS0uNzYsMS4yMy0xLjI5LDEuNDYtMS41OGEzLjUzLDMuNTMsMCwwLDAsLjQ5LS44MiwyLjA4LDIuMDgsMCwwLDAsLjE1LS43OCwxLjE2LDEuMTYsMCwwLDAtLjMzLS45LDEuMzEsMS4zMSwwLDAsMC0uODgtLjI5LDIuNTEsMi41MSwwLDAsMC0xLjEzLjI3LDUuMTMsNS4xMywwLDAsMC0xLjE0Ljc2bC0xLjE1LTEuMzdhNy43OSw3Ljc5LDAsMCwxLDEuMjItLjg4LDQuMDgsNC4wOCwwLDAsMSwxLjA2LS40LDUuMSw1LjEsMCwwLDEsMS4yOS0uMTQsMy43NywzLjc3LDAsMCwxLDEuNjUuMzRBMi41OSwyLjU5LDAsMCwxLDI0LDQwYTIuNTIsMi41MiwwLDAsMSwuNCwxLjQxLDMuNTMsMy41MywwLDAsMS0uMjQsMS4zQTQuODgsNC44OCwwLDAsMSwyMy40Miw0NGExOC4zLDE4LjMsMCwwLDEtMS44LDEuODFMMjAuMzQsNDd2LjFoNC4zNVoiIGNsYXNzPSJjbHMtOCIvPjxwYXRoIGQ9Ik0yNS45NCw0Ny44OWExLjE1LDEuMTUsMCwwLDEsLjMtLjg3LDEuMjUsMS4yNSwwLDAsMSwuOS0uM0ExLjIyLDEuMjIsMCwwLDEsMjgsNDdhMS4yLDEuMiwwLDAsMSwuMzEuODcsMS4xNSwxLjE1LDAsMCwxLS4zMi44NSwxLjQsMS40LDAsMCwxLTEuNzYsMEExLjExLDEuMTEsMCwwLDEsMjUuOTQsNDcuODlaIiBjbGFzcz0iY2xzLTgiLz48cGF0aCBkPSJNMzQuOTEsNDguODZIMzIuOFY0My4wOGwwLS45NSwwLTFjLS4zNS4zNS0uNTkuNTgtLjczLjY5TDMxLDQyLjdsLTEtMS4yNywzLjIyLTIuNTZoMS43NFoiIGNsYXNzPSJjbHMtOCIvPjwvc3ZnPg==;" vertex="1" parent="1">
          <mxGeometry x="40" y="160" width="426" height="513" as="geometry" />
        </mxCell>
        <mxCell id="M33k4MeXB_4xiT2NlTzb-7" value="" style="shape=image;verticalLabelPosition=bottom;labelBackgroundColor=default;verticalAlign=top;aspect=fixed;imageAspect=0;editableCssRules=.*;image=data:image/svg+xml,PHN2ZyB4bWxucz0iaHR0cDovL3d3dy53My5vcmcvMjAwMC9zdmciIHZpZXdCb3g9IjAgMCAzMzAuMDI0OTYzMzc4OTA2MjUgNTIyLjMzMzg2MjMwNDY4NzUiIGlkPSJCcmFuY2hlcyIgd2lkdGg9IjMzMC4wMjQ5NjMzNzg5MDYyNSIgaGVpZ2h0PSI1MjIuMzMzODYyMzA0Njg3NSI+PGRlZnM+PHN0eWxlPi5jbHMtMXtmaWxsOiNhZTNkOTU7fS5jbHMtMntmaWxsOiMzNzZkYjQ7fS5jbHMtM3tmaWxsOiM0OGJjOTY7fS5jbHMtNHtmaWxsOiNiOWMwYzM7fS5jbHMtNXtmaWxsOiMzYmFiYzg7fS5jbHMtNntmaWxsOiM3ZTQyOTg7fS5jbHMtN3tmaWxsOm5vbmU7fTwvc3R5bGU+PC9kZWZzPjxwYXRoIGQ9Ik0yMzIuNjIsNDY0SDEyMC4yN3YtM0gyMzIuNjJhMTEuOTQsMTEuOTQsMCwwLDAsMTEuOTItMTEuOTJWMzQ0LjkxaDNWNDQ5LjA4QTE1LDE1LDAsMCwxLDIzMi42Miw0NjRaIiBjbGFzcz0iY2xzLTEiLz48cG9seWdvbiBwb2ludHM9IjIzOC43NSAzNDUuODkgMjUzLjMzIDM0NS44OSAyNDYuMDQgMzM4LjYgMjM4Ljc1IDM0NS44OSIgY2xhc3M9ImNscy0xIi8+PHBhdGggZD0iTTEzMS4xMiw0NjRINzQuNjV2LTNoNTYuNDdBMTEuOTQsMTEuOTQsMCwwLDAsMTQzLDQ0OS4wOFYzOTAuMzZoM3Y1OC43MkExNSwxNSwwLDAsMSwxMzEuMTIsNDY0WiIgY2xhc3M9ImNscy0yIi8+PHBvbHlnb24gcG9pbnRzPSIxMzcuMjUgMzkxLjM0IDE1MS44MyAzOTEuMzQgMTQ0LjU0IDM4NC4wNSAxMzcuMjUgMzkxLjM0IiBjbGFzcz0iY2xzLTIiLz48cmVjdCBoZWlnaHQ9IjExNC4xMiIgd2lkdGg9IjMiIHk9IjMzNi43NyIgeD0iNDEuNTQiIGNsYXNzPSJjbHMtMyIvPjxyZWN0IGhlaWdodD0iMjMuMzQiIHdpZHRoPSIzIiB5PSIyOTIuMjQiIHg9IjQxLjU0IiBjbGFzcz0iY2xzLTMiLz48cmVjdCBoZWlnaHQ9IjMxLjY4IiB3aWR0aD0iMyIgeT0iNDczIiB4PSI0MS41NCIgY2xhc3M9ImNscy0zIi8+PHJlY3QgaGVpZ2h0PSIyMy42OSIgd2lkdGg9IjMiIHk9IjI0NS44OCIgeD0iNDEuNTQiIGNsYXNzPSJjbHMtMyIvPjxyZWN0IGhlaWdodD0iNjcuNjQiIHdpZHRoPSIzIiB5PSIxNTUuODYiIHg9IjQxLjU0IiBjbGFzcz0iY2xzLTMiLz48cmVjdCBoZWlnaHQ9IjY5LjcxIiB3aWR0aD0iMyIgeT0iNjQuMDEiIHg9IjQxLjU0IiBjbGFzcz0iY2xzLTMiLz48cGF0aCBkPSJNNC4yMyw1MjIuMTVsLTIuNC03Ljg0SDEuNzZjLjA5LDEuNTkuMTMsMi42Ni4xMywzLjE5djQuNjVIMHYtMTBIMi44OGwyLjM3LDcuNjRoMGwyLjUxLTcuNjRoMi44OHYxMGgtMnYtNC43M2MwLS4yMiwwLS40OCwwLS43N3MwLTEuMDcuMDktMi4zM0g4Ljc1bC0yLjU4LDcuODNaIiBjbGFzcz0iY2xzLTQiLz48cGF0aCBkPSJNMTcuODksNTIyLjE1bC0uNC0xaC0uMDZhMy4wOSwzLjA5LDAsMCwxLTEuMDguOTIsMy41MiwzLjUyLDAsMCwxLTEuNDUuMjYsMi4zNSwyLjM1LDAsMCwxLTEuNzQtLjYzLDIuNDMsMi40MywwLDAsMS0uNjMtMS43OSwyLDIsMCwwLDEsLjg1LTEuOCw1LDUsMCwwLDEsMi41Ny0uNjRsMS4zMiwwdi0uMzNhMSwxLDAsMCwwLTEuMTktMS4xNyw1LjQ0LDUuNDQsMCwwLDAtMi4xNS41NkwxMy4yNCw1MTVhNi4yNCw2LjI0LDAsMCwxLDIuOTMtLjY5LDMuNjUsMy42NSwwLDAsMSwyLjM2LjY3LDIuNTEsMi41MSwwLDAsMSwuODIsMnY1LjA5Wm0tLjYyLTMuNTQtLjgsMGEyLjU0LDIuNTQsMCwwLDAtMS4zNi4zMiwxLDEsMCwwLDAtLjQ0LjkyYzAsLjU5LjM0Ljg4LDEsLjg4YTEuNjQsMS42NCwwLDAsMCwxLjE2LS40MSwxLjQ3LDEuNDcsMCwwLDAsLjQzLTEuMTFaIiBjbGFzcz0iY2xzLTQiLz48cGF0aCBkPSJNMjEuNCw1MTIuNTNxMC0xLDEuMTQtMWMuNzUsMCwxLjEzLjM0LDEuMTMsMWExLDEsMCwwLDEtLjI4Ljc2LDEuMTksMS4xOSwwLDAsMS0uODUuMjdDMjEuNzgsNTEzLjU2LDIxLjQsNTEzLjIyLDIxLjQsNTEyLjUzWm0yLjE4LDkuNjJIMjEuNDl2LTcuNjRoMi4wOVoiIGNsYXNzPSJjbHMtNCIvPjxwYXRoIGQ9Ik0zMi44Miw1MjIuMTVIMzAuNzN2LTQuNDZhMi4xNCwyLjE0LDAsMCwwLS4yOS0xLjI1LDEuMDksMS4wOSwwLDAsMC0uOTQtLjQxLDEuNDEsMS40MSwwLDAsMC0xLjI2LjU5LDMuNiwzLjYsMCwwLDAtLjM5LDEuOTN2My42SDI1Ljc2di03LjY0aDEuNmwuMjgsMWguMTFhMi4zNSwyLjM1LDAsMCwxLDEtLjgzLDMuMywzLjMsMCwwLDEsMS40LS4yOSwyLjY1LDIuNjUsMCwwLDEsMiwuNzMsMi44OCwyLjg4LDAsMCwxLC42OSwyLjA4WiIgY2xhc3M9ImNscy00Ii8+PHBhdGggZD0iTTM4Ljc3LDUxMi4xNmgzLjExYTYsNiwwLDAsMSwzLjA4LjYsMi4xMSwyLjExLDAsMCwxLDEsMS45MiwyLjQyLDIuNDIsMCwwLDEtLjQyLDEuNDcsMS42NywxLjY3LDAsMCwxLTEuMTEuN3YuMDZhMi4yNCwyLjI0LDAsMCwxLDEuMzcuOCwyLjg4LDIuODgsMCwwLDEtLjU3LDMuNjcsNC4yNyw0LjI3LDAsMCwxLTIuNjguNzdIMzguNzdabTIuMTIsNGgxLjIzYTIuMjksMi4yOSwwLDAsMCwxLjI0LS4yNiwxLDEsMCwwLDAsLjM5LS44OC44OS44OSwwLDAsMC0uNDItLjgzLDIuNzcsMi43NywwLDAsMC0xLjMzLS4yNUg0MC44OVptMCwxLjY5djIuNmgxLjM4YTIsMiwwLDAsMCwxLjI5LS4zNCwxLjIyLDEuMjIsMCwwLDAsLjQyLTFjMC0uODMtLjYtMS4yNC0xLjc4LTEuMjRaIiBjbGFzcz0iY2xzLTQiLz48cGF0aCBkPSJNNTIuMjcsNTE0LjM2YTIuODMsMi44MywwLDAsMSwuNzEuMDdsLS4xNiwyYTIuMTgsMi4xOCwwLDAsMC0uNjEtLjA3LDIuMjIsMi4yMiwwLDAsMC0xLjU2LjUxLDEuODgsMS44OCwwLDAsMC0uNTYsMS40NHYzLjg5SDQ4di03LjY0aDEuNThsLjMxLDEuMjhINTBhMi44LDIuOCwwLDAsMSwxLTFBMi4zLDIuMywwLDAsMSw1Mi4yNyw1MTQuMzZaIiBjbGFzcz0iY2xzLTQiLz48cGF0aCBkPSJNNTkuMjIsNTIyLjE1bC0uNC0xaC0uMDZhMy4wOSwzLjA5LDAsMCwxLTEuMDguOTIsMy41MiwzLjUyLDAsMCwxLTEuNDUuMjYsMi4zNSwyLjM1LDAsMCwxLTEuNzQtLjYzLDIuNDMsMi40MywwLDAsMS0uNjMtMS43OSwyLDIsMCwwLDEsLjg1LTEuOCw1LDUsMCwwLDEsMi41Ny0uNjRsMS4zMiwwdi0uMzNhMSwxLDAsMCwwLTEuMTgtMS4xNyw1LjQ0LDUuNDQsMCwwLDAtMi4xNi41Nkw1NC41Nyw1MTVhNi4yNCw2LjI0LDAsMCwxLDIuOTMtLjY5LDMuNjUsMy42NSwwLDAsMSwyLjM2LjY3LDIuNTEsMi41MSwwLDAsMSwuODIsMnY1LjA5Wm0tLjYyLTMuNTQtLjgsMGEyLjU0LDIuNTQsMCwwLDAtMS4zNi4zMiwxLDEsMCwwLDAtLjQ0LjkyYzAsLjU5LjM0Ljg4LDEsLjg4YTEuNjQsMS42NCwwLDAsMCwxLjE2LS40MSwxLjQ3LDEuNDcsMCwwLDAsLjQzLTEuMTFaIiBjbGFzcz0iY2xzLTQiLz48cGF0aCBkPSJNNjkuODgsNTIyLjE1SDY3Ljc5di00LjQ2YTIuMjIsMi4yMiwwLDAsMC0uMjktMS4yNSwxLjA5LDEuMDksMCwwLDAtLjk0LS40MSwxLjQxLDEuNDEsMCwwLDAtMS4yNi41OSwzLjYsMy42LDAsMCwwLS4zOSwxLjkzdjMuNkg2Mi44MnYtNy42NGgxLjZsLjI4LDFoLjExYTIuMjMsMi4yMywwLDAsMSwxLS44MywzLjI2LDMuMjYsMCwwLDEsMS4zOS0uMjksMi42NSwyLjY1LDAsMCwxLDIsLjczLDIuODgsMi44OCwwLDAsMSwuNjksMi4wOFoiIGNsYXNzPSJjbHMtNCIvPjxwYXRoIGQ9Ik03NS4xMyw1MjIuMjlxLTMuNTcsMC0zLjU3LTMuOTJhNC4xOCw0LjE4LDAsMCwxLDEtMywzLjY2LDMuNjYsMCwwLDEsMi43OC0xLDUuMzcsNS4zNywwLDAsMSwyLjM4LjUybC0uNjEsMS42MmMtLjMzLS4xNC0uNjQtLjI0LS45Mi0uMzNhMy4xMiwzLjEyLDAsMCwwLS44NS0uMTJjLTEuMDgsMC0xLjYzLjc3LTEuNjMsMi4zMXMuNTUsMi4yNCwxLjYzLDIuMjRhMy41NSwzLjU1LDAsMCwwLDIuMTQtLjY3djEuNzlhMy40NiwzLjQ2LDAsMCwxLTEsLjQ0QTUuMzIsNS4zMiwwLDAsMSw3NS4xMyw1MjIuMjlaIiBjbGFzcz0iY2xzLTQiLz48cGF0aCBkPSJNODYuMjgsNTIyLjE1SDg0LjE5di00LjQ2YzAtMS4xMS0uNDEtMS42Ni0xLjIzLTEuNjZhMS4zOSwxLjM5LDAsMCwwLTEuMjYuNiwzLjYsMy42LDAsMCwwLS4zOSwxLjkydjMuNkg3OS4yMlY1MTEuNTFoMi4wOXYyLjE3YzAsLjE3LDAsLjU3LDAsMS4xOWwtLjA1LjYxaC4xMWEyLjQzLDIuNDMsMCwwLDEsMi4yMi0xLjEyLDIuNjksMi42OSwwLDAsMSwyLC43MywyLjg5LDIuODksMCwwLDEsLjcsMi4wOFoiIGNsYXNzPSJjbHMtNCIvPjxwYXRoIGQ9Ik0yNjgsMzMwLjQyaC0yLjA5di0xMGg1LjczdjEuNzRIMjY4djIuNThoMy4zOXYxLjczSDI2OFoiIGNsYXNzPSJjbHMtNCIvPjxwYXRoIGQ9Ik0yNzYuODUsMzMwLjU1YTQsNCwwLDAsMS0yLjg5LTEsMy44NCwzLjg0LDAsMCwxLTEtMi44OCw0LjI0LDQuMjQsMCwwLDEsMS0zLDMuODksMy44OSwwLDAsMSw1LjE3LS4xMywzLjQ4LDMuNDgsMCwwLDEsLjkxLDIuNTV2MUgyNzVhMiwyLDAsMCwwLC41MiwxLjM5LDEuODMsMS44MywwLDAsMCwxLjM4LjUsNiw2LDAsMCwwLDEuMzEtLjE0LDYuOTQsNi45NCwwLDAsMCwxLjI5LS40NlYzMzBhNC43OCw0Ljc4LDAsMCwxLTEuMTcuNDFBNy4zNSw3LjM1LDAsMCwxLDI3Ni44NSwzMzAuNTVabS0uMjktNi40NGExLjMxLDEuMzEsMCwwLDAtMSwuNDIsMS45MiwxLjkyLDAsMCwwLS40MywxLjJIMjc4YTEuNzUsMS43NSwwLDAsMC0uNC0xLjJBMS4zNiwxLjM2LDAsMCwwLDI3Ni41NiwzMjQuMTFaIiBjbGFzcz0iY2xzLTQiLz48cGF0aCBkPSJNMjg2LjUyLDMzMC40MmwtLjQxLTFoLS4wNWEzLDMsMCwwLDEtMS4wOS45MiwzLjUsMy41LDAsMCwxLTEuNDUuMjUsMi4zNCwyLjM0LDAsMCwxLTEuNzMtLjYzLDIuNCwyLjQsMCwwLDEtLjYzLTEuNzksMiwyLDAsMCwxLC44NS0xLjc5LDQuODQsNC44NCwwLDAsMSwyLjU2LS42NGwxLjMzLDB2LS4zNGExLDEsMCwwLDAtMS4xOS0xLjE2LDUuNCw1LjQsMCwwLDAtMi4xNS41NmwtLjY5LTEuNDFhNi4yLDYuMiwwLDAsMSwyLjkyLS42OSwzLjYzLDMuNjMsMCwwLDEsMi4zNi42NywyLjQ0LDIuNDQsMCwwLDEsLjgyLDJ2NS4xWm0tLjYyLTMuNTQtLjgxLDBhMi42MiwyLjYyLDAsMCwwLTEuMzUuMzMsMSwxLDAsMCwwLS40NC45MmMwLC41OC4zMy44OCwxLC44OGExLjYsMS42LDAsMCwwLDEuMTYtLjQyLDEuNDcsMS40NywwLDAsMCwuNDMtMS4xMVoiIGNsYXNzPSJjbHMtNCIvPjxwYXRoIGQ9Ik0yOTMuMzQsMzI4Ljg5YTQuNTIsNC41MiwwLDAsMCwxLjMxLS4yNHYxLjU1YTQuNTYsNC41NiwwLDAsMS0xLjkxLjM1LDIuMzYsMi4zNiwwLDAsMS0xLjgzLS42MywyLjc1LDIuNzUsMCwwLDEtLjU3LTEuOXYtMy42OGgtMXYtLjg4bDEuMTQtLjcuNjEtMS42MWgxLjMzdjEuNjJoMi4xNHYxLjU3aC0yLjE0VjMyOGEuOC44LDAsMCwwLC4yNS42NkExLDEsMCwwLDAsMjkzLjM0LDMyOC44OVoiIGNsYXNzPSJjbHMtNCIvPjxwYXRoIGQ9Ik0zMDEuNjEsMzMwLjQybC0uMjgtMWgtLjExYTIuMTksMi4xOSwwLDAsMS0xLC44MiwzLjE2LDMuMTYsMCwwLDEtMS40LjI5LDIuNjYsMi42NiwwLDAsMS0yLS43MiwyLjg4LDIuODgsMCwwLDEtLjY5LTIuMDd2LTVoMi4wOXY0LjQ3YTIuMiwyLjIsMCwwLDAsLjI5LDEuMjQsMS4wOSwxLjA5LDAsMCwwLC45NC40MSwxLjQsMS40LDAsMCwwLDEuMjYtLjU4LDMuNjQsMy42NCwwLDAsMCwuMzktMS45NHYtMy42aDIuMDl2Ny42NVoiIGNsYXNzPSJjbHMtNCIvPjxwYXRoIGQ9Ik0zMDkuNjYsMzIyLjYzYTMuNTUsMy41NSwwLDAsMSwuNzEuMDZsLS4xNiwyYTIuNjUsMi42NSwwLDAsMC0yLjE3LjQ0LDEuODYsMS44NiwwLDAsMC0uNTYsMS40NHYzLjg5SDMwNS40di03LjY1SDMwN2wuMywxLjI5aC4xMWEyLjgyLDIuODIsMCwwLDEsMS0xQTIuMzYsMi4zNiwwLDAsMSwzMDkuNjYsMzIyLjYzWiIgY2xhc3M9ImNscy00Ii8+PHBhdGggZD0iTTMxNS4yMSwzMzAuNTVhMy45MywzLjkzLDAsMCwxLTIuODgtMSwzLjg1LDMuODUsMCwwLDEtMS0yLjg4LDQuMjQsNC4yNCwwLDAsMSwxLTMsMy45LDMuOSwwLDAsMSw1LjE4LS4xMywzLjUxLDMuNTEsMCwwLDEsLjksMi41NXYxSDMxMy40YTIsMiwwLDAsMCwuNTMsMS4zOSwxLjgzLDEuODMsMCwwLDAsMS4zOC41LDYsNiwwLDAsMCwxLjMtLjE0LDYuOTQsNi45NCwwLDAsMCwxLjI5LS40NlYzMzBhNC42NCw0LjY0LDAsMCwxLTEuMTcuNDFBNy4yOSw3LjI5LDAsMCwxLDMxNS4yMSwzMzAuNTVabS0uMjktNi40NGExLjMzLDEuMzMsMCwwLDAtMSwuNDIsMiwyLDAsMCwwLS40MywxLjJoMi45MmExLjcsMS43LDAsMCwwLS40LTEuMkExLjM2LDEuMzYsMCwwLDAsMzE0LjkyLDMyNC4xMVoiIGNsYXNzPSJjbHMtNCIvPjxwYXRoIGQ9Ik0zMjkuNzMsMzIyLjY2YTIuMzUsMi4zNSwwLDAsMS0uNTcsMS41OSwyLjksMi45LDAsMCwxLTEuNi45djBhMy4yMSwzLjIxLDAsMCwxLDEuODQuNzQsMi4wNiwyLjA2LDAsMCwxLC42MiwxLjU3LDIuNjcsMi42NywwLDAsMS0xLDIuMjUsNC43Niw0Ljc2LDAsMCwxLTMsLjgsNy4yNyw3LjI3LDAsMCwxLTIuODktLjU0di0xLjc5YTYuNjYsNi42NiwwLDAsMCwxLjI4LjQ3LDUuMSw1LjEsMCwwLDAsMS4zOC4xOSwyLjY5LDIuNjksMCwwLDAsMS41NS0uMzYsMS4yOSwxLjI5LDAsMCwwLC40OS0xLjE0LDEsMSwwLDAsMC0uNTctMSw0LjMzLDQuMzMsMCwwLDAtMS44My0uMjloLS43NnYtMS42MmguNzdhMy40OSwzLjQ5LDAsMCwwLDEuNy0uMzEsMS4wOSwxLjA5LDAsMCwwLC41NC0xYzAtLjc1LS40OC0xLjEzLTEuNDItMS4xM2EzLjI3LDMuMjcsMCwwLDAtMSwuMTYsNSw1LDAsMCwwLTEuMTMuNTdsLTEtMS40NmE1LjUsNS41LDAsMCwxLDMuMjctMSw0LjIxLDQuMjEsMCwwLDEsMi40NS42M0EyLDIsMCwwLDEsMzI5LjczLDMyMi42NloiIGNsYXNzPSJjbHMtNCIvPjxwYXRoIGQ9Ik0xNjEuNDIsMzk1Ljc4aC0yLjA4di0xMGg1LjcydjEuNzRoLTMuNjR2Mi41OGgzLjM5djEuNzJoLTMuMzlaIiBjbGFzcz0iY2xzLTQiLz48cGF0aCBkPSJNMTcwLjMxLDM5NS45MWEzLjkzLDMuOTMsMCwwLDEtMi44OC0xLDMuODUsMy44NSwwLDAsMS0xLTIuODgsNC4yNCw0LjI0LDAsMCwxLDEtM0EzLjQzLDMuNDMsMCwwLDEsMTcwLDM4OGEzLjM4LDMuMzgsMCwwLDEsMi41Mi45MiwzLjUxLDMuNTEsMCwwLDEsLjksMi41NXYxSDE2OC41YTIsMiwwLDAsMCwuNTMsMS4zOSwxLjg3LDEuODcsMCwwLDAsMS4zOC41LDYuMTIsNi4xMiwwLDAsMCwxLjMxLS4xNCw2Ljg2LDYuODYsMCwwLDAsMS4yOC0uNDZ2MS42MWE0LjUxLDQuNTEsMCwwLDEtMS4xNy40MUE3LjI5LDcuMjksMCwwLDEsMTcwLjMxLDM5NS45MVptLS4yOS02LjQ0YTEuMzMsMS4zMywwLDAsMC0xLC40MiwyLDIsMCwwLDAtLjQzLDEuMmgyLjkzYTEuNzUsMS43NSwwLDAsMC0uNDEtMS4yQTEuMzYsMS4zNiwwLDAsMCwxNzAsMzg5LjQ3WiIgY2xhc3M9ImNscy00Ii8+PHBhdGggZD0iTTE4MCwzOTUuNzhsLS40LTFoLS4wNmEzLjIsMy4yLDAsMCwxLTEuMDguOTIsMy41MywzLjUzLDAsMCwxLTEuNDUuMjUsMi4zNSwyLjM1LDAsMCwxLTEuNzQtLjYzLDIuNDEsMi40MSwwLDAsMS0uNjMtMS43OSwyLDIsMCwwLDEsLjg1LTEuNzksNC45LDQuOSwwLDAsMSwyLjU3LS42NGwxLjMyLDB2LS4zNGExLDEsMCwwLDAtMS4xOC0xLjE2LDUuNTgsNS41OCwwLDAsMC0yLjE2LjU1bC0uNjktMS40YTYuMjQsNi4yNCwwLDAsMSwyLjkzLS42OSwzLjY1LDMuNjUsMCwwLDEsMi4zNi42NywyLjQ3LDIuNDcsMCwwLDEsLjgyLDJ2NS4xWm0tLjYyLTMuNTUtLjgsMGEyLjYzLDIuNjMsMCwwLDAtMS4zNi4zMywxLDEsMCwwLDAtLjQ0LjkyYzAsLjU4LjM0Ljg4LDEsLjg4YTEuNTksMS41OSwwLDAsMCwxLjE2LS40MiwxLjQ3LDEuNDcsMCwwLDAsLjQzLTEuMTFaIiBjbGFzcz0iY2xzLTQiLz48cGF0aCBkPSJNMTg2LjgsMzk0LjI1YTQuNDYsNC40NiwwLDAsMCwxLjMxLS4yNHYxLjU1YTQuNSw0LjUsMCwwLDEtMS45MS4zNSwyLjM1LDIuMzUsMCwwLDEtMS44Mi0uNjMsMi43NSwyLjc1LDAsMCwxLS41Ny0xLjlWMzg5LjdoLTF2LS44OGwxLjE1LS43LjYtMS42MWgxLjMzdjEuNjJIMTg4djEuNTdoLTIuMTR2My42OGEuODQuODQsMCwwLDAsLjI1LjY2QTEsMSwwLDAsMCwxODYuOCwzOTQuMjVaIiBjbGFzcz0iY2xzLTQiLz48cGF0aCBkPSJNMTk1LjA3LDM5NS43OGwtLjI4LTFoLS4xMWEyLjE5LDIuMTksMCwwLDEtMSwuODIsMy4xMywzLjEzLDAsMCwxLTEuNC4yOSwyLjY5LDIuNjksMCwwLDEtMi0uNzIsMi45MiwyLjkyLDAsMCwxLS42OC0yLjA3di01aDIuMDh2NC40N2EyLjEyLDIuMTIsMCwwLDAsLjMsMS4yNCwxLjA3LDEuMDcsMCwwLDAsLjkzLjQxLDEuNDEsMS40MSwwLDAsMCwxLjI3LS41OCwzLjY0LDMuNjQsMCwwLDAsLjM5LTEuOTR2LTMuNmgyLjA4djcuNjVaIiBjbGFzcz0iY2xzLTQiLz48cGF0aCBkPSJNMjAzLjEzLDM4OGEzLjQ0LDMuNDQsMCwwLDEsLjcuMDZsLS4xNiwyYTIuMTMsMi4xMywwLDAsMC0uNjEtLjA3LDIuMjIsMi4yMiwwLDAsMC0xLjU2LjUxLDEuODUsMS44NSwwLDAsMC0uNTUsMS40NHYzLjg5aC0yLjA5di03LjY1aDEuNThsLjMxLDEuMjloLjFhMi45MSwyLjkxLDAsMCwxLDEtMUEyLjM3LDIuMzcsMCwwLDEsMjAzLjEzLDM4OFoiIGNsYXNzPSJjbHMtNCIvPjxwYXRoIGQ9Ik0yMDguNjgsMzk1LjkxYTQsNCwwLDAsMS0yLjg5LTEsMy44NSwzLjg1LDAsMCwxLTEtMi44OCw0LjI0LDQuMjQsMCwwLDEsMS0zLDMuNDMsMy40MywwLDAsMSwyLjY2LTEuMDUsMy4zOCwzLjM4LDAsMCwxLDIuNTIuOTIsMy41MSwzLjUxLDAsMCwxLC45LDIuNTV2MWgtNC45MmEyLDIsMCwwLDAsLjUyLDEuMzksMS44NywxLjg3LDAsMCwwLDEuMzguNSw2LjEyLDYuMTIsMCwwLDAsMS4zMS0uMTQsNi42MSw2LjYxLDAsMCwwLDEuMjgtLjQ2djEuNjFhNC41MSw0LjUxLDAsMCwxLTEuMTcuNDFBNy4yNSw3LjI1LDAsMCwxLDIwOC42OCwzOTUuOTFabS0uMy02LjQ0YTEuMzQsMS4zNCwwLDAsMC0xLC40MiwyLDIsMCwwLDAtLjQzLDEuMmgyLjkzYTEuNzUsMS43NSwwLDAsMC0uNC0xLjJBMS4zNywxLjM3LDAsMCwwLDIwOC4zOCwzODkuNDdaIiBjbGFzcz0iY2xzLTQiLz48cGF0aCBkPSJNMjIzLjU4LDM5NS43OGgtN3YtMS40N2wyLjUxLTIuNTRjLjc1LS43NiwxLjIzLTEuMjksMS40Ni0xLjU4YTMuNTMsMy41MywwLDAsMCwuNDktLjgyLDIuMDgsMi4wOCwwLDAsMCwuMTUtLjc4LDEuMTIsMS4xMiwwLDAsMC0uMzMtLjg5LDEuMjgsMS4yOCwwLDAsMC0uODktLjMsMi41LDIuNSwwLDAsMC0xLjEyLjI3LDUuODMsNS44MywwLDAsMC0xLjE1Ljc2bC0xLjE0LTEuMzZhNy4zNCw3LjM0LDAsMCwxLDEuMjItLjg5LDQuNDcsNC40NywwLDAsMSwxLjA2LS40LDUuMDcsNS4wNywwLDAsMSwxLjI4LS4xNCwzLjc5LDMuNzksMCwwLDEsMS42Ni4zNCwyLjYxLDIuNjEsMCwwLDEsMS4xMSwxLDIuNSwyLjUsMCwwLDEsLjQsMS40MSwzLjQ0LDMuNDQsMCwwLDEtLjI0LDEuMjksNS4xOSw1LjE5LDAsMCwxLS43NSwxLjI0LDE3LjI2LDE3LjI2LDAsMCwxLTEuOCwxLjgxbC0xLjI4LDEuMjF2LjFoNC4zNVoiIGNsYXNzPSJjbHMtNCIvPjxwYXRoIGQ9Ik02OC44LDQ4My42N0g2Ni43MnYtMTBoNS43M3YxLjc0SDY4LjhWNDc4aDMuMzl2MS43M0g2OC44WiIgY2xhc3M9ImNscy00Ii8+PHBhdGggZD0iTTc3LjcsNDgzLjgxYTQsNCwwLDAsMS0yLjg5LTEsMy44NiwzLjg2LDAsMCwxLTEtMi44OCw0LjI0LDQuMjQsMCwwLDEsMS0zLDMuNDMsMy40MywwLDAsMSwyLjY2LTEuMDUsMy4zNCwzLjM0LDAsMCwxLDIuNTIuOTIsMy41LDMuNSwwLDAsMSwuOSwyLjU1djFINzUuODhhMiwyLDAsMCwwLC41MywxLjM5LDEuODcsMS44NywwLDAsMCwxLjM4LjUsNS41Myw1LjUzLDAsMCwwLDEuMzEtLjE1LDYsNiwwLDAsMCwxLjI4LS40NXYxLjYxYTQuOTEsNC45MSwwLDAsMS0xLjE3LjQxQTcuMjUsNy4yNSwwLDAsMSw3Ny43LDQ4My44MVptLS4zLTYuNDRhMS4zMywxLjMzLDAsMCwwLTEsLjQyLDIsMiwwLDAsMC0uNDMsMS4xOWgyLjkzYTEuNzQsMS43NCwwLDAsMC0uNDEtMS4xOUExLjM2LDEuMzYsMCwwLDAsNzcuNCw0NzcuMzdaIiBjbGFzcz0iY2xzLTQiLz48cGF0aCBkPSJNODcuMzYsNDgzLjY3bC0uNC0xSDg2LjlhMywzLDAsMCwxLTEuMDguOTIsMy41MiwzLjUyLDAsMCwxLTEuNDUuMjYsMi4zNywyLjM3LDAsMCwxLTEuNzQtLjYzLDIuNDMsMi40MywwLDAsMS0uNjMtMS43OSwyLDIsMCwwLDEsLjg1LTEuNzksNC45LDQuOSwwLDAsMSwyLjU3LS42NGwxLjMzLDB2LS4zNGExLDEsMCwwLDAtMS4xOS0xLjE2LDUuNDQsNS40NCwwLDAsMC0yLjE2LjU1bC0uNjktMS40MWE2LjI0LDYuMjQsMCwwLDEsMi45My0uNjksMy43LDMuNywwLDAsMSwyLjM2LjY3LDIuNTEsMi41MSwwLDAsMSwuODIsMnY1LjA5Wm0tLjYxLTMuNTQtLjgxLDBhMi41NiwyLjU2LDAsMCwwLTEuMzUuMzMsMSwxLDAsMCwwLS40NS45MWMwLC41OS4zNC44OSwxLC44OWExLjU5LDEuNTksMCwwLDAsMS4xNi0uNDIsMS40OCwxLjQ4LDAsMCwwLC40NC0xLjExWiIgY2xhc3M9ImNscy00Ii8+PHBhdGggZD0iTTk0LjE4LDQ4Mi4xNWE0LjUyLDQuNTIsMCwwLDAsMS4zMi0uMjR2MS41NWE0Ljc0LDQuNzQsMCwwLDEtMS45Mi4zNSwyLjM1LDIuMzUsMCwwLDEtMS44Mi0uNjMsMi43NywyLjc3LDAsMCwxLS41Ny0xLjlWNDc3LjZoLTF2LS44OWwxLjE1LS42OS42LTEuNjJoMS4zM1Y0NzZoMi4xNHYxLjU3SDkzLjI3djMuNjhhLjg0Ljg0LDAsMCwwLC4yNS42NkExLDEsMCwwLDAsOTQuMTgsNDgyLjE1WiIgY2xhc3M9ImNscy00Ii8+PHBhdGggZD0iTTEwMi40Niw0ODMuNjdsLS4yOC0xaC0uMTFhMi4yNCwyLjI0LDAsMCwxLS45NS44MiwzLjMyLDMuMzIsMCwwLDEtMS40MS4yOSwyLjY5LDIuNjksMCwwLDEtMi0uNzJBMi45MywyLjkzLDAsMCwxLDk3LDQ4MXYtNWgyLjA5djQuNDZhMi4xNCwyLjE0LDAsMCwwLC4yOSwxLjI1LDEuMDksMS4wOSwwLDAsMCwuOTQuNDEsMS40MSwxLjQxLDAsMCwwLDEuMjYtLjU5LDMuNTcsMy41NywwLDAsMCwuMzktMS45M1Y0NzZoMi4wOXY3LjY0WiIgY2xhc3M9ImNscy00Ii8+PHBhdGggZD0iTTExMC41MSw0NzUuODlhMy4zNywzLjM3LDAsMCwxLC43LjA2bC0uMTUsMS45NWEyLjc3LDIuNzcsMCwwLDAtLjYyLS4wNiwyLjI0LDIuMjQsMCwwLDAtMS41Ni41MSwxLjg1LDEuODUsMCwwLDAtLjU1LDEuNDN2My44OWgtMi4wOVY0NzZoMS41OGwuMzEsMS4yOWguMWEyLjkxLDIuOTEsMCwwLDEsMS0xQTIuNCwyLjQsMCwwLDEsMTEwLjUxLDQ3NS44OVoiIGNsYXNzPSJjbHMtNCIvPjxwYXRoIGQ9Ik0xMTYuMDYsNDgzLjgxYTQsNCwwLDAsMS0yLjg5LTEsMy44NiwzLjg2LDAsMCwxLTEtMi44OCw0LjI0LDQuMjQsMCwwLDEsMS0zLDMuNDEsMy40MSwwLDAsMSwyLjY1LTEuMDUsMy4zNCwzLjM0LDAsMCwxLDIuNTIuOTIsMy40NiwzLjQ2LDAsMCwxLC45MSwyLjU1djFoLTQuOTNhMiwyLDAsMCwwLC41MiwxLjM5LDEuODcsMS44NywwLDAsMCwxLjM4LjUsNS40Nyw1LjQ3LDAsMCwwLDEuMzEtLjE1LDYuMjIsNi4yMiwwLDAsMCwxLjI5LS40NXYxLjYxYTUuMjQsNS4yNCwwLDAsMS0xLjE3LjQxQTcuMzUsNy4zNSwwLDAsMSwxMTYuMDYsNDgzLjgxWm0tLjI5LTYuNDRhMS4zMSwxLjMxLDAsMCwwLTEsLjQyLDEuOTEsMS45MSwwLDAsMC0uNDMsMS4xOWgyLjkyYTEuNzQsMS43NCwwLDAsMC0uNC0xLjE5QTEuMzYsMS4zNiwwLDAsMCwxMTUuNzcsNDc3LjM3WiIgY2xhc3M9ImNscy00Ii8+PHBhdGggZD0iTTEyOS4yLDQ4My42N2gtMi4xMXYtNS43OGwwLS45NSwwLTFjLS4zNS4zNS0uNTkuNTgtLjczLjY5bC0xLjE1LjkyLTEtMS4yNywzLjIyLTIuNTZoMS43NFoiIGNsYXNzPSJjbHMtNCIvPjxwYXRoIGQ9Ik0xNDUuMjUsMjU1LjM0aC0yLjA4di0xMGg1LjczdjEuNzRoLTMuNjV2Mi41N2gzLjM5djEuNzNoLTMuMzlaIiBjbGFzcz0iY2xzLTQiLz48cGF0aCBkPSJNMTU0LjE1LDI1NS40OGE0LDQsMCwwLDEtMi44OS0xLDMuODYsMy44NiwwLDAsMS0xLTIuODgsNC4yNCw0LjI0LDAsMCwxLDEtMywzLjQzLDMuNDMsMCwwLDEsMi42Ni0xLjA1LDMuMzQsMy4zNCwwLDAsMSwyLjUyLjkyLDMuNSwzLjUsMCwwLDEsLjksMi41NXYxaC00LjkyYTIsMiwwLDAsMCwuNTIsMS4zOSwxLjg3LDEuODcsMCwwLDAsMS4zOC41LDUuNTMsNS41MywwLDAsMCwxLjMxLS4xNSw2LDYsMCwwLDAsMS4yOC0uNDV2MS42MWE0LjkxLDQuOTEsMCwwLDEtMS4xNy40MUE4LDgsMCwwLDEsMTU0LjE1LDI1NS40OFptLS4zLTYuNDRhMS4zMywxLjMzLDAsMCwwLTEsLjQyLDIsMiwwLDAsMC0uNDMsMS4xOWgyLjkzYTEuNzQsMS43NCwwLDAsMC0uNC0xLjE5QTEuMzksMS4zOSwwLDAsMCwxNTMuODUsMjQ5WiIgY2xhc3M9ImNscy00Ii8+PHBhdGggZD0iTTE2My44MSwyNTUuMzRsLS40LTFoLS4wNmEzLDMsMCwwLDEtMS4wOC45MiwzLjQ4LDMuNDgsMCwwLDEtMS40NS4yNiwyLjMzLDIuMzMsMCwwLDEtMS43My0uNjMsMi4zOSwyLjM5LDAsMCwxLS42NC0xLjc5LDIsMiwwLDAsMSwuODUtMS43OSw0LjksNC45LDAsMCwxLDIuNTctLjY0bDEuMzMsMHYtLjM0YTEsMSwwLDAsMC0xLjE5LTEuMTYsNS40NCw1LjQ0LDAsMCwwLTIuMTYuNTVsLS42OS0xLjQxYTYuMjQsNi4yNCwwLDAsMSwyLjkzLS42OSwzLjY5LDMuNjksMCwwLDEsMi4zNi42NywyLjQ4LDIuNDgsMCwwLDEsLjgyLDJ2NS4wOVptLS42MS0zLjU0LS44MSwwYTIuNTYsMi41NiwwLDAsMC0xLjM1LjMzLDEsMSwwLDAsMC0uNDUuOTFjMCwuNTkuMzQuODksMSwuODlhMS41OSwxLjU5LDAsMCwwLDEuMTYtLjQyLDEuNDgsMS40OCwwLDAsMCwuNDQtMS4xMVoiIGNsYXNzPSJjbHMtNCIvPjxwYXRoIGQ9Ik0xNzAuNjQsMjUzLjgyYTQuNTIsNC41MiwwLDAsMCwxLjMxLS4yNHYxLjU1YTQuNzQsNC43NCwwLDAsMS0xLjkyLjM1LDIuMzUsMi4zNSwwLDAsMS0xLjgyLS42MywyLjc3LDIuNzcsMCwwLDEtLjU3LTEuOXYtMy42OGgtMXYtLjg5bDEuMTUtLjY5LjYtMS42MmgxLjM0djEuNjNoMi4xNHYxLjU3aC0yLjE0VjI1M2EuOC44LDAsMCwwLC4yNS42NkExLDEsMCwwLDAsMTcwLjY0LDI1My44MloiIGNsYXNzPSJjbHMtNCIvPjxwYXRoIGQ9Ik0xNzguOTEsMjU1LjM0bC0uMjgtMWgtLjExYTIuMjQsMi4yNCwwLDAsMS0xLC44MiwzLjMsMy4zLDAsMCwxLTEuNC4yOSwyLjY2LDIuNjYsMCwwLDEtMi0uNzIsMi44OCwyLjg4LDAsMCwxLS42OS0yLjA4di01aDIuMDl2NC40NmEyLjE0LDIuMTQsMCwwLDAsLjI5LDEuMjUsMS4wOSwxLjA5LDAsMCwwLC45NC40MSwxLjQxLDEuNDEsMCwwLDAsMS4yNi0uNTksMy41NywzLjU3LDAsMCwwLC4zOS0xLjkzdi0zLjZoMi4wOXY3LjY0WiIgY2xhc3M9ImNscy00Ii8+PHBhdGggZD0iTTE4NywyNDcuNTZhMy4zNywzLjM3LDAsMCwxLC43LjA2bC0uMTUsMS45NWEyLjc3LDIuNzcsMCwwLDAtLjYyLS4wNiwyLjIxLDIuMjEsMCwwLDAtMS41NS41MSwxLjgyLDEuODIsMCwwLDAtLjU2LDEuNDN2My44OWgtMi4wOVYyNDcuN2gxLjU4bC4zMSwxLjI5aC4xYTIuOTEsMi45MSwwLDAsMSwxLTFBMi40LDIuNCwwLDAsMSwxODcsMjQ3LjU2WiIgY2xhc3M9ImNscy00Ii8+PHBhdGggZD0iTTE5Mi41MSwyNTUuNDhhMy45MywzLjkzLDAsMCwxLTIuODgtMSwzLjgzLDMuODMsMCwwLDEtMS0yLjg4LDQuMjQsNC4yNCwwLDAsMSwxLTMsMy45LDMuOSwwLDAsMSw1LjE4LS4xMywzLjUsMy41LDAsMCwxLC45LDIuNTV2MUgxOTAuN2EyLDIsMCwwLDAsLjUzLDEuMzksMS44NCwxLjg0LDAsMCwwLDEuMzguNSw1LjQ1LDUuNDUsMCwwLDAsMS4zLS4xNSw2LjIyLDYuMjIsMCwwLDAsMS4yOS0uNDV2MS42MWE1LjI0LDUuMjQsMCwwLDEtMS4xNy40MUE4LjEyLDguMTIsMCwwLDEsMTkyLjUxLDI1NS40OFptLS4yOS02LjQ0YTEuMzEsMS4zMSwwLDAsMC0xLC40MiwxLjkxLDEuOTEsMCwwLDAtLjQzLDEuMTloMi45MmExLjc0LDEuNzQsMCwwLDAtLjQtMS4xOUExLjM2LDEuMzYsMCwwLDAsMTkyLjIyLDI0OVoiIGNsYXNzPSJjbHMtNCIvPjxwYXRoIGQ9Ik0yMDcuNjQsMjUzLjI3aC0xLjJ2Mi4wN2gtMi4wN3YtMi4wN0gyMDAuMVYyNTEuOGw0LjM5LTYuNDVoMS45NXY2LjI4aDEuMlptLTMuMjctMS42NHYtMS42OXEwLS40NCwwLTEuMjNjMC0uNTQsMC0uODUuMDYtLjk0aC0uMDZhNy4yOCw3LjI4LDAsMCwxLS42LDEuMDlMMjAyLDI1MS42M1oiIGNsYXNzPSJjbHMtNCIvPjxyZWN0IGhlaWdodD0iMTYuMTciIHdpZHRoPSIzIiB5PSIzOTAuMzYiIHg9IjkyLjI5IiBjbGFzcz0iY2xzLTUiLz48cG9seWdvbiBwb2ludHM9IjEwMS4wOCAzOTEuMzQgODYuNSAzOTEuMzQgOTMuNzkgMzg0LjA1IDEwMS4wOCAzOTEuMzQiIGNsYXNzPSJjbHMtNSIvPjxyZWN0IGhlaWdodD0iMzYuNDciIHdpZHRoPSIzIiB5PSI2LjMxIiB4PSI0MS41NCIgY2xhc3M9ImNscy0zIi8+PHBvbHlnb24gcG9pbnRzPSI1MC4zMiA3LjI5IDM1Ljc1IDcuMjkgNDMuMDMgMCA1MC4zMiA3LjI5IiBjbGFzcz0iY2xzLTMiLz48cmVjdCBoZWlnaHQ9IjE1Ljg0IiB3aWR0aD0iMyIgeT0iMzQ0LjkxIiB4PSIxNDMuMDQiIGNsYXNzPSJjbHMtMiIvPjxwb2x5Z29uIHBvaW50cz0iMTUxLjgzIDM0NS44OSAxMzcuMjUgMzQ1Ljg5IDE0NC41NCAzMzguNiAxNTEuODMgMzQ1Ljg5IiBjbGFzcz0iY2xzLTIiLz48cGF0aCBkPSJNODAuMzYsNDY0SDU0LjQ3di0zSDgwLjM2YTExLjk0LDExLjk0LDAsMCwwLDExLjkzLTExLjkyVjQzNS44MWgzdjEzLjI3QTE1LDE1LDAsMCwxLDgwLjM2LDQ2NFoiIGNsYXNzPSJjbHMtNSIvPjxwb2x5Z29uIHBvaW50cz0iODYuNSA0MzYuNzkgMTAxLjA4IDQzNi43OSA5My43OSA0MjkuNSA4Ni41IDQzNi43OSIgY2xhc3M9ImNscy01Ii8+PHBhdGggZD0iTTE4MS44NywyMzYuNzNINTUuNXYtM0gxODEuODdhMTEuOTQsMTEuOTQsMCwwLDAsMTEuOTItMTEuOTJWMjA4LjU2aDN2MTMuMjVBMTQuOTQsMTQuOTQsMCwwLDEsMTgxLjg3LDIzNi43M1oiIGNsYXNzPSJjbHMtNiIvPjxwb2x5Z29uIHBvaW50cz0iMTg4IDIwOS41NCAyMDIuNTggMjA5LjU0IDE5NS4yOSAyMDIuMjUgMTg4IDIwOS41NCIgY2xhc3M9ImNscy02Ii8+PHBhdGggZD0iTTE5Ni43OSwxNzcuMzFoLTNWMTU3Ljc1YTExLjk0LDExLjk0LDAsMCwwLTExLjkyLTExLjkySDYxLjgxdi0zSDE4MS44N2ExNSwxNSwwLDAsMSwxNC45MiwxNC45MloiIGNsYXNzPSJjbHMtNiIvPjxwb2x5Z29uIHBvaW50cz0iNjIuNzkgMTM3LjA0IDYyLjc5IDE1MS42MiA1NS41IDE0NC4zMyA2Mi43OSAxMzcuMDQiIGNsYXNzPSJjbHMtNiIvPjxwYXRoIGQ9Ik0yNDcuNTQsODYuNDFoLTNWNjYuODVhMTEuOTQsMTEuOTQsMCwwLDAtMTEuOTItMTEuOTJINjEuODF2LTNIMjMyLjYyYTE1LDE1LDAsMCwxLDE0LjkyLDE0LjkyWiIgY2xhc3M9ImNscy0xIi8+PHBvbHlnb24gcG9pbnRzPSI2Mi43OSA0Ni4xNCA2Mi43OSA2MC43MiA1NS41IDUzLjQzIDYyLjc5IDQ2LjE0IiBjbGFzcz0iY2xzLTEiLz48cGF0aCBkPSJNOTUuMjksMzYxaC0zVjMzOS41NWExMS45NCwxMS45NCwwLDAsMC0xMS45My0xMS45Mkg2MS44MXYtM0g4MC4zNmExNSwxNSwwLDAsMSwxNC45MywxNC45MloiIGNsYXNzPSJjbHMtNSIvPjxwb2x5Z29uIHBvaW50cz0iNjIuNzkgMzE4Ljg0IDYyLjc5IDMzMy40MiA1NS41IDMyNi4xMyA2Mi43OSAzMTguODQiIGNsYXNzPSJjbHMtNSIvPjxwYXRoIGQ9Ik0xNDcsMzE1LjU4aC0zVjI5NC4xYTExLjk0LDExLjk0LDAsMCwwLTExLjkyLTExLjkySDYxLjgxdi0zaDcwLjI2QTE0Ljk0LDE0Ljk0LDAsMCwxLDE0NywyOTQuMVoiIGNsYXNzPSJjbHMtMiIvPjxwb2x5Z29uIHBvaW50cz0iNjIuNzkgMjczLjM5IDYyLjc5IDI4Ny45NyA1NS41IDI4MC42OCA2Mi43OSAyNzMuMzkiIGNsYXNzPSJjbHMtMiIvPjxwYXRoIGQ9Ik00Myw0NTNhOS40Nyw5LjQ3LDAsMSwxLTkuNDcsOS40N0E5LjQ3LDkuNDcsMCwwLDEsNDMsNDUzbTAtM0ExMi40NywxMi40NywwLDEsMCw1NS41LDQ2Mi40OCwxMi40NywxMi40NywwLDAsMCw0Myw0NTBaIiBjbGFzcz0iY2xzLTMiLz48cGF0aCBkPSJNOTMuNzksMzYyLjExYTkuNDcsOS40NywwLDEsMS05LjQ3LDkuNDcsOS40Nyw5LjQ3LDAsMCwxLDkuNDctOS40N20wLTNhMTIuNDcsMTIuNDcsMCwxLDAsMTIuNDYsMTIuNDcsMTIuNDcsMTIuNDcsMCwwLDAtMTIuNDYtMTIuNDdaIiBjbGFzcz0iY2xzLTUiLz48cGF0aCBkPSJNMTQ0LjU0LDM2Mi4xMWE5LjQ3LDkuNDcsMCwxLDEtOS40Nyw5LjQ3LDkuNDgsOS40OCwwLDAsMSw5LjQ3LTkuNDdtMC0zQTEyLjQ3LDEyLjQ3LDAsMSwwLDE1NywzNzEuNThhMTIuNDcsMTIuNDcsMCwwLDAtMTIuNDctMTIuNDdaIiBjbGFzcz0iY2xzLTIiLz48cGF0aCBkPSJNNDMsMzE2LjY2YTkuNDcsOS40NywwLDEsMS05LjQ3LDkuNDdBOS40Nyw5LjQ3LDAsMCwxLDQzLDMxNi42Nm0wLTNBMTIuNDcsMTIuNDcsMCwxLDAsNTUuNSwzMjYuMTMsMTIuNDcsMTIuNDcsMCwwLDAsNDMsMzEzLjY2WiIgY2xhc3M9ImNscy0zIi8+PHBhdGggZD0iTTQzLDI3MS4yMWE5LjQ3LDkuNDcsMCwxLDEtOS40Nyw5LjQ3QTkuNDcsOS40NywwLDAsMSw0MywyNzEuMjFtMC0zQTEyLjQ3LDEyLjQ3LDAsMSwwLDU1LjUsMjgwLjY4LDEyLjQ3LDEyLjQ3LDAsMCwwLDQzLDI2OC4yMVoiIGNsYXNzPSJjbHMtMyIvPjxwYXRoIGQ9Ik00MywyMjUuNzZhOS40Nyw5LjQ3LDAsMSwxLTkuNDcsOS40N0E5LjQ3LDkuNDcsMCwwLDEsNDMsMjI1Ljc2bTAtM0ExMi40NywxMi40NywwLDEsMCw1NS41LDIzNS4yMywxMi40NywxMi40NywwLDAsMCw0MywyMjIuNzZaIiBjbGFzcz0iY2xzLTMiLz48cGF0aCBkPSJNMTk1LjI5LDE4MC4zMWE5LjQ3LDkuNDcsMCwxLDEtOS40Nyw5LjQ3LDkuNDgsOS40OCwwLDAsMSw5LjQ3LTkuNDdtMC0zYTEyLjQ3LDEyLjQ3LDAsMSwwLDEyLjQ3LDEyLjQ3LDEyLjQ3LDEyLjQ3LDAsMCwwLTEyLjQ3LTEyLjQ3WiIgY2xhc3M9ImNscy02Ii8+PHBhdGggZD0iTTQzLDEzNC44NmE5LjQ3LDkuNDcsMCwxLDEtOS40Nyw5LjQ3QTkuNDcsOS40NywwLDAsMSw0MywxMzQuODZtMC0zQTEyLjQ3LDEyLjQ3LDAsMSwwLDU1LjUsMTQ0LjMzLDEyLjQ3LDEyLjQ3LDAsMCwwLDQzLDEzMS44NloiIGNsYXNzPSJjbHMtMyIvPjxwYXRoIGQ9Ik0yNDYsODkuNDFhOS40Nyw5LjQ3LDAsMSwxLTkuNDcsOS40N0E5LjQ4LDkuNDgsMCwwLDEsMjQ2LDg5LjQxbTAtM2ExMi40NywxMi40NywwLDEsMCwxMi40NywxMi40N0ExMi40NywxMi40NywwLDAsMCwyNDYsODYuNDFaIiBjbGFzcz0iY2xzLTEiLz48cGF0aCBkPSJNNDMsNDRhOS40Nyw5LjQ3LDAsMSwxLTkuNDcsOS40NkE5LjQ3LDkuNDcsMCwwLDEsNDMsNDRtMC0zQTEyLjQ3LDEyLjQ3LDAsMSwwLDU1LjUsNTMuNDMsMTIuNDYsMTIuNDYsMCwwLDAsNDMsNDFaIiBjbGFzcz0iY2xzLTMiLz48Y2lyY2xlIHI9IjEyLjQ3IiBjeT0iNDE3LjAzIiBjeD0iOTMuNzkiIGNsYXNzPSJjbHMtNyIvPjxwYXRoIGQ9Ik05My43OSw0MDcuNTZBOS40Nyw5LjQ3LDAsMSwxLDg0LjMyLDQxN2E5LjQ3LDkuNDcsMCwwLDEsOS40Ny05LjQ3bTAtM0ExMi40NywxMi40NywwLDEsMCwxMDYuMjUsNDE3YTEyLjQ3LDEyLjQ3LDAsMCwwLTEyLjQ2LTEyLjQ3WiIgY2xhc3M9ImNscy03Ii8+PHBhdGggZD0iTTkzLjc5LDQwNy41NkE5LjQ3LDkuNDcsMCwxLDEsODQuMzIsNDE3YTkuNDcsOS40NywwLDAsMSw5LjQ3LTkuNDdtMC0zQTEyLjQ3LDEyLjQ3LDAsMSwwLDEwNi4yNSw0MTdhMTIuNDcsMTIuNDcsMCwwLDAtMTIuNDYtMTIuNDdaIiBjbGFzcz0iY2xzLTUiLz48cGF0aCBkPSJNMTQ0LjU0LDMxNi42NmE5LjQ3LDkuNDcsMCwxLDEtOS40Nyw5LjQ3LDkuNDgsOS40OCwwLDAsMSw5LjQ3LTkuNDdtMC0zQTEyLjQ3LDEyLjQ3LDAsMSwwLDE1NywzMjYuMTNhMTIuNDcsMTIuNDcsMCwwLDAtMTIuNDctMTIuNDdaIiBjbGFzcz0iY2xzLTIiLz48cmVjdCBoZWlnaHQ9IjM2LjUzIiB3aWR0aD0iMyIgeT0iMjc3LjEzIiB4PSIyNDQuNTQiIGNsYXNzPSJjbHMtMSIvPjxwb2x5Z29uIHBvaW50cz0iMjUzLjMzIDI3OC4xMSAyMzguNzUgMjc4LjExIDI0Ni4wNCAyNzAuODIgMjUzLjMzIDI3OC4xMSIgY2xhc3M9ImNscy0xIi8+PHJlY3QgaGVpZ2h0PSIxMzAuODMiIHdpZHRoPSIzIiB5PSIxMTcuNjYiIHg9IjI0NC41NCIgY2xhc3M9ImNscy0xIi8+PHBvbHlnb24gcG9pbnRzPSIyNTMuMzMgMTE4LjY0IDIzOC43NSAxMTguNjQgMjQ2LjA0IDExMS4zNSAyNTMuMzMgMTE4LjY0IiBjbGFzcz0iY2xzLTEiLz48cGF0aCBkPSJNMjQ2LDI0OC44OGE5LjQ3LDkuNDcsMCwxLDEtOS40Nyw5LjQ3LDkuNDgsOS40OCwwLDAsMSw5LjQ3LTkuNDdtMC0zYTEyLjQ3LDEyLjQ3LDAsMSwwLDEyLjQ3LDEyLjQ3QTEyLjQ3LDEyLjQ3LDAsMCwwLDI0NiwyNDUuODhaIiBjbGFzcz0iY2xzLTEiLz48cGF0aCBkPSJNMjQ2LDMxNi42NmE5LjQ3LDkuNDcsMCwxLDEtOS40Nyw5LjQ3LDkuNDgsOS40OCwwLDAsMSw5LjQ3LTkuNDdtMC0zYTEyLjQ3LDEyLjQ3LDAsMSwwLDEyLjQ3LDEyLjQ3QTEyLjQ3LDEyLjQ3LDAsMCwwLDI0NiwzMTMuNjZaIiBjbGFzcz0iY2xzLTEiLz48L3N2Zz4=;" vertex="1" parent="1">
          <mxGeometry x="540" y="160" width="330" height="522" as="geometry" />
        </mxCell>
        <mxCell id="M33k4MeXB_4xiT2NlTzb-9" value="" style="shape=image;verticalLabelPosition=bottom;labelBackgroundColor=default;verticalAlign=top;aspect=fixed;imageAspect=0;editableCssRules=.*;image=data:image/svg+xml,PHN2ZyB4bWxucz0iaHR0cDovL3d3dy53My5vcmcvMjAwMC9zdmciIHZpZXdCb3g9IjAgMCAxNzMuNjQ1NTM4MzMwMDc4MTIgMzExLjA3Mzg4MzA1NjY0MDYiIGlkPSJCcmFuY2hlcyIgd2lkdGg9IjE3My42NDU1MzgzMzAwNzgxMiIgaGVpZ2h0PSIzMTEuMDczODgzMDU2NjQwNiI+PGRlZnM+PHN0eWxlPi5jbHMtMXtmaWxsOiMzNzZkYjQ7fS5jbHMtMntmaWxsOiM0OGJjOTY7fS5jbHMtM3tmaWxsOiMzYmFiYzg7fS5jbHMtNHtmaWxsOiNiOWMwYzM7fTwvc3R5bGU+PC9kZWZzPjxwYXRoIGQ9Ik0xMDQuMzksODAuMTloLTc3di0zaDc3YTExLjk0LDExLjk0LDAsMCwwLDExLjkyLTExLjkyVjUyaDNWNjUuMjdBMTQuOTMsMTQuOTMsMCwwLDEsMTA0LjM5LDgwLjE5WiIgY2xhc3M9ImNscy0xIi8+PHBvbHlnb24gcG9pbnRzPSIxMTAuNTIgNTIuOTYgMTI1LjEgNTIuOTYgMTE3LjgxIDQ1LjY3IDExMC41MiA1Mi45NiIgY2xhc3M9ImNscy0xIi8+PHJlY3QgaGVpZ2h0PSIxNy4zOCIgd2lkdGg9IjMiIHk9IjIzMS40OSIgeD0iMTQuODEiIGNsYXNzPSJjbHMtMiIvPjxyZWN0IGhlaWdodD0iNDkuNTMiIHdpZHRoPSIzIiB5PSIxNTkuODEiIHg9IjE0LjgxIiBjbGFzcz0iY2xzLTIiLz48cmVjdCBoZWlnaHQ9IjQ3LjQyIiB3aWR0aD0iMyIgeT0iOTAuMjEiIHg9IjE0LjgxIiBjbGFzcz0iY2xzLTIiLz48cmVjdCBoZWlnaHQ9IjM5Ljg3IiB3aWR0aD0iMyIgeT0iMTI4LjkzIiB4PSI2NS41NiIgY2xhc3M9ImNscy0zIi8+PHJlY3QgaGVpZ2h0PSI5Ny44IiB3aWR0aD0iMyIgeT0iNi4zMSIgeD0iNjUuNTYiIGNsYXNzPSJjbHMtMyIvPjxwb2x5Z29uIHBvaW50cz0iNzQuMzUgNy4yOSA1OS43NyA3LjI5IDY3LjA2IDAgNzQuMzUgNy4yOSIgY2xhc3M9ImNscy0zIi8+PHJlY3QgaGVpZ2h0PSIxNi4xNyIgd2lkdGg9IjMiIHk9IjI3OS4yMyIgeD0iMTQuODEiIGNsYXNzPSJjbHMtMiIvPjxwb2x5Z29uIHBvaW50cz0iMjMuNiAyODAuMjEgOS4wMiAyODAuMjEgMTYuMzEgMjcyLjkyIDIzLjYgMjgwLjIxIiBjbGFzcz0iY2xzLTIiLz48cmVjdCBoZWlnaHQ9IjYwLjc1IiB3aWR0aD0iMyIgeT0iNi4zMSIgeD0iMTQuODEiIGNsYXNzPSJjbHMtMiIvPjxwb2x5Z29uIHBvaW50cz0iMjMuNiA3LjI5IDkuMDIgNy4yOSAxNi4zMSAwIDIzLjYgNy4yOSIgY2xhc3M9ImNscy0yIi8+PHJlY3QgaGVpZ2h0PSIxNi41MyIgd2lkdGg9IjMiIHk9IjYuMzEiIHg9IjExNi4zMSIgY2xhc3M9ImNscy0xIi8+PHBvbHlnb24gcG9pbnRzPSIxMjUuMSA3LjI5IDExMC41MiA3LjI5IDExNy44MSAwIDEyNS4xIDcuMjkiIGNsYXNzPSJjbHMtMSIvPjxwYXRoIGQ9Ik01My42NCwyMjEuODhIMjcuODZ2LTNINTMuNjRBMTEuOTQsMTEuOTQsMCwwLDAsNjUuNTYsMjA3di04LjI0aDNWMjA3QTE0Ljk0LDE0Ljk0LDAsMCwxLDUzLjY0LDIyMS44OFoiIGNsYXNzPSJjbHMtMyIvPjxwb2x5Z29uIHBvaW50cz0iNTkuNzcgMTk5LjY5IDc0LjM1IDE5OS42OSA2Ny4wNiAxOTIuNDEgNTkuNzcgMTk5LjY5IiBjbGFzcz0iY2xzLTMiLz48cGF0aCBkPSJNNTMuNjQsMTUwLjU0SDI3Ljg2di0zSDUzLjY0YTExLjkzLDExLjkzLDAsMCwwLDExLjkyLTExLjkydi01LjE2aDN2NS4xNkExNC45NCwxNC45NCwwLDAsMSw1My42NCwxNTAuNTRaIiBjbGFzcz0iY2xzLTMiLz48cG9seWdvbiBwb2ludHM9IjU5Ljc3IDEzMy4zOCA3NC4zNSAxMzMuMzggNjcuMDYgMTI2LjA5IDU5Ljc3IDEzMy4zOCIgY2xhc3M9ImNscy0zIi8+PHBhdGggZD0iTTE2LjMxLDI1MWE5LjQ3LDkuNDcsMCwxLDEtOS40Nyw5LjQ2QTkuNDcsOS40NywwLDAsMSwxNi4zMSwyNTFtMC0zYTEyLjQ3LDEyLjQ3LDAsMSwwLDEyLjQ3LDEyLjQ2QTEyLjQ2LDEyLjQ2LDAsMCwwLDE2LjMxLDI0OFoiIGNsYXNzPSJjbHMtMiIvPjxwYXRoIGQ9Ik0xNi4zMSwyMTAuNzNhOS40Nyw5LjQ3LDAsMSwxLTkuNDcsOS40Nyw5LjQ4LDkuNDgsMCwwLDEsOS40Ny05LjQ3bTAtM0ExMi40NywxMi40NywwLDEsMCwyOC43OCwyMjAuMmExMi40NywxMi40NywwLDAsMC0xMi40Ny0xMi40N1oiIGNsYXNzPSJjbHMtMiIvPjxwYXRoIGQ9Ik02Ny4wNiwxNzAuNDdhOS40Nyw5LjQ3LDAsMSwxLTkuNDcsOS40Nyw5LjQ4LDkuNDgsMCwwLDEsOS40Ny05LjQ3bTAtM2ExMi40NywxMi40NywwLDEsMCwxMi40NywxMi40NywxMi40NywxMi40NywwLDAsMC0xMi40Ny0xMi40N1oiIGNsYXNzPSJjbHMtMyIvPjxwYXRoIGQ9Ik0xNi4zMSwxMzkuNjhhOS40Nyw5LjQ3LDAsMSwxLTkuNDcsOS40Nyw5LjQ4LDkuNDgsMCwwLDEsOS40Ny05LjQ3bTAtM2ExMi40NywxMi40NywwLDEsMCwxMi40NywxMi40NywxMi40NywxMi40NywwLDAsMC0xMi40Ny0xMi40N1oiIGNsYXNzPSJjbHMtMiIvPjxwYXRoIGQ9Ik02Ny4wNiwxMDQuMTRhOS40Nyw5LjQ3LDAsMSwxLTkuNDcsOS40Niw5LjQ3LDkuNDcsMCwwLDEsOS40Ny05LjQ2bTAtM0ExMi40NywxMi40NywwLDEsMCw3OS41MywxMTMuNmExMi40NiwxMi40NiwwLDAsMC0xMi40Ny0xMi40NloiIGNsYXNzPSJjbHMtMyIvPjxwYXRoIGQ9Ik0xNi4zMSw2OS4xOWE5LjQ3LDkuNDcsMCwxLDEtOS40Nyw5LjQ2LDkuNDcsOS40NywwLDAsMSw5LjQ3LTkuNDZtMC0zQTEyLjQ3LDEyLjQ3LDAsMSwwLDI4Ljc4LDc4LjY1LDEyLjQ2LDEyLjQ2LDAsMCwwLDE2LjMxLDY2LjE5WiIgY2xhc3M9ImNscy0yIi8+PHBhdGggZD0iTTExNy44MSwyMy43NGE5LjQ3LDkuNDcsMCwxLDEtOS40Nyw5LjQ3LDkuNDgsOS40OCwwLDAsMSw5LjQ3LTkuNDdtMC0zYTEyLjQ3LDEyLjQ3LDAsMSwwLDEyLjQ3LDEyLjQ3LDEyLjQ3LDEyLjQ3LDAsMCwwLTEyLjQ3LTEyLjQ3WiIgY2xhc3M9ImNscy0xIi8+PHBhdGggZD0iTTE2LjMxLDY5LjE5YTkuNDcsOS40NywwLDEsMS05LjQ3LDkuNDYsOS40Nyw5LjQ3LDAsMCwxLDkuNDctOS40Nm0wLTNBMTIuNDcsMTIuNDcsMCwxLDAsMjguNzgsNzguNjUsMTIuNDYsMTIuNDYsMCwwLDAsMTYuMzEsNjYuMTlaIiBjbGFzcz0iY2xzLTIiLz48cGF0aCBkPSJNMTYuMzEsMjEwLjczYTkuNDcsOS40NywwLDEsMS05LjQ3LDkuNDcsOS40OCw5LjQ4LDAsMCwxLDkuNDctOS40N20wLTNBMTIuNDcsMTIuNDcsMCwxLDAsMjguNzgsMjIwLjJhMTIuNDcsMTIuNDcsMCwwLDAtMTIuNDctMTIuNDdaIiBjbGFzcz0iY2xzLTIiLz48cGF0aCBkPSJNNjIuNjksMjM2LjQ3SDYwLjU3di01Ljc4bDAtLjk1LDAtMWMtLjM1LjM1LS42LjU4LS43My42OWwtMS4xNS45My0xLTEuMjhMNjEsMjI2LjQ4aDEuNzRaIiBjbGFzcz0iY2xzLTQiLz48cGF0aCBkPSJNNjUuNjksMjM1LjVhMS4xNSwxLjE1LDAsMCwxLC4zMS0uODcsMS4yNCwxLjI0LDAsMCwxLC45LS4zLDEuMiwxLjIsMCwwLDEsLjg3LjMxLDEuMTIsMS4xMiwwLDAsMSwuMzIuODYsMS4xNSwxLjE1LDAsMCwxLS4zMi44NSwxLjE3LDEuMTcsMCwwLDEtLjg3LjMxLDEuMjMsMS4yMywwLDAsMS0uODktLjNBMS4xNSwxLjE1LDAsMCwxLDY1LjY5LDIzNS41WiIgY2xhc3M9ImNscy00Ii8+PHBhdGggZD0iTTc2LjM4LDIzMS40OGE3LDcsMCwwLDEtLjg2LDMuODcsMywzLDAsMCwxLTIuNjQsMS4yNiwyLjk0LDIuOTQsMCwwLDEtMi42MS0xLjMsNi44LDYuOCwwLDAsMS0uODgtMy44Myw3LDcsMCwwLDEsLjg2LTMuOSwzLjMxLDMuMzEsMCwwLDEsNS4yNC4wNkE2Ljg1LDYuODUsMCwwLDEsNzYuMzgsMjMxLjQ4Wm0tNC44OSwwYTcuOCw3LjgsMCwwLDAsLjMyLDIuNjMsMS4xMSwxLjExLDAsMCwwLDIuMTMsMCwxMC42NSwxMC42NSwwLDAsMCwwLTUuMjYsMS4xMSwxLjExLDAsMCwwLTIuMTMsMEE3LjgzLDcuODMsMCwwLDAsNzEuNDksMjMxLjQ4WiIgY2xhc3M9ImNscy00Ii8+PHBhdGggZD0iTTg3LjY3LDIzMy43YTIuNTgsMi41OCwwLDAsMS0xLDIuMTMsNC4yNCw0LjI0LDAsMCwxLTIuNzEuNzgsNi4zNyw2LjM3LDAsMCwxLTIuODMtLjZ2LTJhMTIuMzYsMTIuMzYsMCwwLDAsMS43MS42NCw1LjE4LDUuMTgsMCwwLDAsMS4yOC4xOCwxLjgsMS44LDAsMCwwLDEuMDctLjI3Ljg5Ljg5LDAsMCwwLC4zNy0uNzkuODcuODcsMCwwLDAtLjE2LS41MiwxLjg5LDEuODksMCwwLDAtLjQ4LS40NCwxMy45NCwxMy45NCwwLDAsMC0xLjMtLjY4LDUuODksNS44OSwwLDAsMS0xLjM3LS44MywyLjk0LDIuOTQsMCwwLDEtLjczLS45MiwyLjU0LDIuNTQsMCwwLDEtLjI4LTEuMjMsMi41NywyLjU3LDAsMCwxLC45LTIuMDgsMy43MiwzLjcyLDAsMCwxLDIuNDktLjc2LDUuOTQsNS45NCwwLDAsMSwxLjQ4LjE4LDkuNzMsOS43MywwLDAsMSwxLjQ4LjUybC0uNjgsMS42NWExMC42NywxMC42NywwLDAsMC0xLjMyLS40Niw0LjE1LDQuMTUsMCwwLDAtMS0uMTMsMS4zMywxLjMzLDAsMCwwLS45Mi4yOC45Mi45MiwwLDAsMC0uMzMuNzMsMSwxLDAsMCwwLC4xMy40OSwxLjQ4LDEuNDgsMCwwLDAsLjQyLjQsMTEuMTEsMTEuMTEsMCwwLDAsMS4zNC43LDUuMzUsNS4zNSwwLDAsMSwxLjkyLDEuMzVBMi42LDIuNiwwLDAsMSw4Ny42NywyMzMuN1oiIGNsYXNzPSJjbHMtNCIvPjxwYXRoIGQ9Ik05Mi41NCwyMzVhNC41Miw0LjUyLDAsMCwwLDEuMzEtLjI0djEuNTVhNC43Miw0LjcyLDAsMCwxLTEuOTEuMzUsMi4zMywyLjMzLDAsMCwxLTEuODItLjYzLDIuNzIsMi43MiwwLDAsMS0uNTgtMS45VjIzMC40aC0xdi0uODhsMS4xNC0uNy42MS0xLjYyaDEuMzN2MS42M2gyLjE0djEuNTdIOTEuNjN2My42OGEuOC44LDAsMCwwLC4yNS42NkExLDEsMCwwLDAsOTIuNTQsMjM1WiIgY2xhc3M9ImNscy00Ii8+PHBhdGggZD0iTTEwMC4yNSwyMzYuNDdsLS40LTFoLS4wNmEzLjIsMy4yLDAsMCwxLTEuMDguOTIsMy41NSwzLjU1LDAsMCwxLTEuNDYuMjUsMi4zNCwyLjM0LDAsMCwxLTEuNzMtLjYzLDIuNDEsMi40MSwwLDAsMS0uNjMtMS43OSwyLDIsMCwwLDEsLjg1LTEuNzksNC44OCw0Ljg4LDAsMCwxLDIuNTctLjY0bDEuMzIsMHYtLjM0YTEsMSwwLDAsMC0xLjE5LTEuMTYsNS40LDUuNCwwLDAsMC0yLjE1LjU1bC0uNjktMS40MWE2LjI0LDYuMjQsMCwwLDEsMi45My0uNjksMy42NiwzLjY2LDAsMCwxLDIuMzUuNjcsMi40OCwyLjQ4LDAsMCwxLC44MywydjUuMDlabS0uNjItMy41NC0uOCwwYTIuNjMsMi42MywwLDAsMC0xLjM2LjMzLDEsMSwwLDAsMC0uNDQuOTFjMCwuNTkuMzQuODksMSwuODlhMS42LDEuNiwwLDAsMCwxLjE2LS40MiwxLjQ3LDEuNDcsMCwwLDAsLjQzLTEuMTFaIiBjbGFzcz0iY2xzLTQiLz48cGF0aCBkPSJNMTA4LjEsMjI4LjY5YTIuNDcsMi40NywwLDAsMSwyLjEyLDEuMDUsNC44Nyw0Ljg3LDAsMCwxLC43NywyLjksNC43OSw0Ljc5LDAsMCwxLS43OSwyLjkzLDIuNTYsMi41NiwwLDAsMS0yLjE1LDEsMi41MywyLjUzLDAsMCwxLTIuMTEtMWgtLjE1bC0uMzUuODRoLTEuNTlWMjI1Ljg0aDIuMDl2Mi40N2MwLC4zMiwwLC44Mi0uMDksMS41MWguMDlBMi40MSwyLjQxLDAsMCwxLDEwOC4xLDIyOC42OVptLS42NywxLjY3YTEuMjksMS4yOSwwLDAsMC0xLjEyLjQ3LDIuNzIsMi43MiwwLDAsMC0uMzcsMS41N3YuMjNhMy4yNiwzLjI2LDAsMCwwLC4zNiwxLjc2LDEuMzIsMS4zMiwwLDAsMCwxLjE2LjUzLDEuMTQsMS4xNCwwLDAsMCwxLS41OSwzLjEzLDMuMTMsMCwwLDAsLjM4LTEuNzIsMy4wOSwzLjA5LDAsMCwwLS4zOC0xLjY5QTEuMTksMS4xOSwwLDAsMCwxMDcuNDMsMjMwLjM2WiIgY2xhc3M9ImNscy00Ii8+PHBhdGggZD0iTTExNC44LDIzNi40N2gtMi4wOVYyMjUuODRoMi4wOVoiIGNsYXNzPSJjbHMtNCIvPjxwYXRoIGQ9Ik0xMjAuNDQsMjM2LjYxYTMuOTMsMy45MywwLDAsMS0yLjg4LTEsMy44NiwzLjg2LDAsMCwxLTEtMi44OCw0LjI0LDQuMjQsMCwwLDEsMS0zLDMuOSwzLjksMCwwLDEsNS4xOC0uMTMsMy41MSwzLjUxLDAsMCwxLC45LDIuNTV2MWgtNC45M2EyLDIsMCwwLDAsLjUzLDEuMzksMS44NywxLjg3LDAsMCwwLDEuMzguNSw2LDYsMCwwLDAsMS4zLS4xNCw2Ljk0LDYuOTQsMCwwLDAsMS4yOS0uNDZ2MS42MWE1LjA3LDUuMDcsMCwwLDEtMS4xNy40MUE3LjM1LDcuMzUsMCwwLDEsMTIwLjQ0LDIzNi42MVptLS4yOS02LjQ0YTEuMzMsMS4zMywwLDAsMC0xLC40MiwxLjkxLDEuOTEsMCwwLDAtLjQzLDEuMTloMi45MmExLjY5LDEuNjksMCwwLDAtLjQtMS4xOUExLjM2LDEuMzYsMCwwLDAsMTIwLjE1LDIzMC4xN1oiIGNsYXNzPSJjbHMtNCIvPjxwYXRoIGQ9Ik0xMTIuNjksOTIuNDFoLTIuMTJWODYuNjJsMC0xLDAtMWE4LjMzLDguMzMsMCwwLDEtLjczLjY5bC0xLjE1LjkzLTEtMS4yN0wxMTEsODIuNDFoMS43NFoiIGNsYXNzPSJjbHMtNCIvPjxwYXRoIGQ9Ik0xMTUuNjksOTEuNDNhMS4xOCwxLjE4LDAsMCwxLC4zMS0uODcsMS4yNSwxLjI1LDAsMCwxLC45LS4yOSwxLjIyLDEuMjIsMCwwLDEsLjg4LjMsMS4xNywxLjE3LDAsMCwxLC4zMS44NiwxLjE1LDEuMTUsMCwwLDEtLjMyLjg1LDEuMTcsMS4xNywwLDAsMS0uODcuMzEsMS4yMywxLjIzLDAsMCwxLS44OS0uM0ExLjE1LDEuMTUsMCwwLDEsMTE1LjY5LDkxLjQzWiIgY2xhc3M9ImNscy00Ii8+PHBhdGggZD0iTTEyNC42Nyw5Mi40MWgtMi4xMVY4Ni42MmwwLTEsMC0xYTcuMDcsNy4wNywwLDAsMS0uNzMuNjlsLTEuMTUuOTMtMS0xLjI3LDMuMjItMi41N2gxLjc0WiIgY2xhc3M9ImNscy00Ii8+PHBhdGggZD0iTTEzNy42Nyw4OS42M2EyLjU4LDIuNTgsMCwwLDEtMSwyLjEzLDQuMjQsNC4yNCwwLDAsMS0yLjcxLjc4LDYuMzcsNi4zNywwLDAsMS0yLjgzLS42VjkwYTExLjE4LDExLjE4LDAsMCwwLDEuNzEuNjQsNS4xOCw1LjE4LDAsMCwwLDEuMjguMTgsMS44OCwxLjg4LDAsMCwwLDEuMDctLjI2LjkyLjkyLDAsMCwwLC4zNy0uOC44Ny44NywwLDAsMC0uMTYtLjUyLDEuODksMS44OSwwLDAsMC0uNDgtLjQ0LDEyLjcsMTIuNywwLDAsMC0xLjMtLjY4LDUuOTEsNS45MSwwLDAsMS0xLjM3LS44MiwzLjEsMy4xLDAsMCwxLS43My0uOTMsMi41NCwyLjU0LDAsMCwxLS4yOC0xLjIzLDIuNTcsMi41NywwLDAsMSwuOS0yLjA4LDMuNzIsMy43MiwwLDAsMSwyLjQ5LS43Niw1Ljk0LDUuOTQsMCwwLDEsMS40OC4xOCwxMSwxMSwwLDAsMSwxLjQ4LjUybC0uNjgsMS42NWExMC4xMywxMC4xMywwLDAsMC0xLjMyLS40Niw0LjYxLDQuNjEsMCwwLDAtMS0uMTMsMS4zOCwxLjM4LDAsMCwwLS45Mi4yOC45Mi45MiwwLDAsMC0uMzMuNzMsMSwxLDAsMCwwLC4xMy40OSwxLjUsMS41LDAsMCwwLC40Mi40MSwxNC4xMiwxNC4xMiwwLDAsMCwxLjM0LjdBNS4xNCw1LjE0LDAsMCwxLDEzNy4xNSw4OCwyLjYsMi42LDAsMCwxLDEzNy42Nyw4OS42M1oiIGNsYXNzPSJjbHMtNCIvPjxwYXRoIGQ9Ik0xNDIuNTQsOTAuODhhNC41Miw0LjUyLDAsMCwwLDEuMzEtLjI0djEuNTVhNC41Niw0LjU2LDAsMCwxLTEuOTEuMzUsMi4zMywyLjMzLDAsMCwxLTEuODItLjYzLDIuNzUsMi43NSwwLDAsMS0uNTgtMS45Vjg2LjMzaC0xdi0uODhsMS4xNS0uNy42LTEuNjFoMS4zM3YxLjYyaDIuMTR2MS41N2gtMi4xNFY5MGEuOC44LDAsMCwwLC4yNS42NkExLDEsMCwwLDAsMTQyLjU0LDkwLjg4WiIgY2xhc3M9ImNscy00Ii8+PHBhdGggZD0iTTE1MC4yNSw5Mi40MWwtLjQtMWgtLjA2YTMuMDksMy4wOSwwLDAsMS0xLjA4LjkyLDMuNTMsMy41MywwLDAsMS0xLjQ1LjI1LDIuMzUsMi4zNSwwLDAsMS0xLjc0LS42MywyLjQsMi40LDAsMCwxLS42My0xLjc5LDIsMiwwLDAsMSwuODUtMS43OSw0LjksNC45LDAsMCwxLDIuNTctLjY0bDEuMzIsMHYtLjM0YTEsMSwwLDAsMC0xLjE4LTEuMTYsNS40NCw1LjQ0LDAsMCwwLTIuMTYuNTZsLS42OS0xLjQxYTYuMjQsNi4yNCwwLDAsMSwyLjkzLS42OSwzLjY1LDMuNjUsMCwwLDEsMi4zNi42NywyLjQ3LDIuNDcsMCwwLDEsLjgyLDJ2NS4xWm0tLjYyLTMuNTQtLjgsMGEyLjYzLDIuNjMsMCwwLDAtMS4zNi4zMywxLDEsMCwwLDAtLjQ0LjkyYzAsLjU5LjM0Ljg4LDEsLjg4YTEuNTksMS41OSwwLDAsMCwxLjE2LS40MiwxLjQ3LDEuNDcsMCwwLDAsLjQzLTEuMTFaIiBjbGFzcz0iY2xzLTQiLz48cGF0aCBkPSJNMTU4LjEsODQuNjJhMi40NSwyLjQ1LDAsMCwxLDIuMTIsMS4wNiw0Ljg0LDQuODQsMCwwLDEsLjc3LDIuODksNC43Myw0LjczLDAsMCwxLS43OSwyLjkzLDIuNzYsMi43NiwwLDAsMS00LjI2LjA3aC0uMTVsLS4zNC44NGgtMS42VjgxLjc3aDIuMDl2Mi40N2MwLC4zMiwwLC44Mi0uMDgsMS41MmguMDhBMi40LDIuNCwwLDAsMSwxNTguMSw4NC42MlptLS42NywxLjY3YTEuMzEsMS4zMSwwLDAsMC0xLjEyLjQ3LDIuNzIsMi43MiwwLDAsMC0uMzcsMS41N3YuMjNhMy4yNCwzLjI0LDAsMCwwLC4zNiwxLjc2LDEuMzEsMS4zMSwwLDAsMCwxLjE2LjU0LDEuMTUsMS4xNSwwLDAsMCwxLS42LDMuMTEsMy4xMSwwLDAsMCwuMzgtMS43MiwzLDMsMCwwLDAtLjM4LTEuNjlBMS4yLDEuMiwwLDAsMCwxNTcuNDMsODYuMjlaIiBjbGFzcz0iY2xzLTQiLz48cGF0aCBkPSJNMTY0LjgsOTIuNDFoLTIuMDlWODEuNzdoMi4wOVoiIGNsYXNzPSJjbHMtNCIvPjxwYXRoIGQ9Ik0xNzAuNDQsOTIuNTRhNCw0LDAsMCwxLTIuODgtMSwzLjg5LDMuODksMCwwLDEtMS0yLjg5LDQuMjQsNC4yNCwwLDAsMSwxLTMsMy40MywzLjQzLDAsMCwxLDIuNjYtMSwzLjM4LDMuMzgsMCwwLDEsMi41Mi45MiwzLjUxLDMuNTEsMCwwLDEsLjksMi41NXYxaC00LjkzYTIsMiwwLDAsMCwuNTMsMS4zOCwxLjgzLDEuODMsMCwwLDAsMS4zOC41LDYsNiwwLDAsMCwxLjMtLjE0LDYuOTQsNi45NCwwLDAsMCwxLjI5LS40NlY5MmE0LjUxLDQuNTEsMCwwLDEtMS4xNy40MUE3LjI5LDcuMjksMCwwLDEsMTcwLjQ0LDkyLjU0Wm0tLjI5LTYuNDRhMS4zMywxLjMzLDAsMCwwLTEsLjQyLDIsMiwwLDAsMC0uNDMsMS4yaDIuOTNhMS43NywxLjc3LDAsMCwwLS40MS0xLjJBMS4zNiwxLjM2LDAsMCwwLDE3MC4xNSw4Ni4xWiIgY2xhc3M9ImNscy00Ii8+PHBhdGggZD0iTTQuMjMsMzEwLjg5bC0yLjQtNy44NEgxLjc2Yy4wOSwxLjU5LjEzLDIuNjYuMTMsMy4xOXY0LjY1SDB2LTEwSDIuODhsMi4zNyw3LjY0aDBMNy44LDMwMC45aDIuODh2MTBoLTJ2LTQuNzNjMC0uMjIsMC0uNDgsMC0uNzdzMC0xLjA3LjA5LTIuMzNIOC43NWwtMi41OCw3LjgzWiIgY2xhc3M9ImNscy00Ii8+PHBhdGggZD0iTTE3Ljg5LDMxMC44OWwtLjQtMWgtLjA2YTMuMDksMy4wOSwwLDAsMS0xLjA4LjkyLDMuNTIsMy41MiwwLDAsMS0xLjQ1LjI2LDIuMzUsMi4zNSwwLDAsMS0xLjc0LS42MywyLjQzLDIuNDMsMCwwLDEtLjYzLTEuNzksMiwyLDAsMCwxLC44NS0xLjgsNSw1LDAsMCwxLDIuNTctLjY0bDEuMzIsMHYtLjMzYTEsMSwwLDAsMC0xLjE5LTEuMTcsNS40NCw1LjQ0LDAsMCwwLTIuMTUuNTZsLS42OS0xLjQxYTYuMjQsNi4yNCwwLDAsMSwyLjkzLS42OSwzLjY1LDMuNjUsMCwwLDEsMi4zNi42NywyLjUxLDIuNTEsMCwwLDEsLjgyLDJ2NS4wOVptLS42Mi0zLjU0LS44LDBhMi41NCwyLjU0LDAsMCwwLTEuMzYuMzIsMSwxLDAsMCwwLS40NC45MmMwLC41OS4zNC44OCwxLC44OGExLjU5LDEuNTksMCwwLDAsMS4xNi0uNDIsMS40MywxLjQzLDAsMCwwLC40My0xLjFaIiBjbGFzcz0iY2xzLTQiLz48cGF0aCBkPSJNMjEuNCwzMDEuMjdxMC0xLDEuMTQtMWMuNzUsMCwxLjEzLjM0LDEuMTMsMWExLDEsMCwwLDEtLjI4Ljc2LDEuMTksMS4xOSwwLDAsMS0uODUuMjdDMjEuNzgsMzAyLjMsMjEuNCwzMDIsMjEuNCwzMDEuMjdabTIuMTgsOS42MkgyMS40OXYtNy42NGgyLjA5WiIgY2xhc3M9ImNscy00Ii8+PHBhdGggZD0iTTMyLjgyLDMxMC44OUgzMC43M3YtNC40NmEyLjE0LDIuMTQsMCwwLDAtLjI5LTEuMjUsMS4wOSwxLjA5LDAsMCwwLS45NC0uNDEsMS40MSwxLjQxLDAsMCwwLTEuMjYuNTksMy41NywzLjU3LDAsMCwwLS4zOSwxLjkzdjMuNkgyNS43NnYtNy42NGgxLjZsLjI4LDFoLjExYTIuMzUsMi4zNSwwLDAsMSwxLS44MywzLjMsMy4zLDAsMCwxLDEuNC0uMjksMi42OCwyLjY4LDAsMCwxLDIsLjcyLDIuOTMsMi45MywwLDAsMSwuNjksMi4wOVoiIGNsYXNzPSJjbHMtNCIvPjwvc3ZnPg==;" vertex="1" parent="1">
          <mxGeometry x="983" y="160" width="279.74" height="500" as="geometry" />
        </mxCell>
      </root>
    </mxGraphModel>
  </diagram>
  <diagram id="g85dqwuY5GTB2-rli_fY" name="gltf">
    <mxGraphModel dx="476" dy="376" grid="1" gridSize="10" guides="1" tooltips="1" connect="1" arrows="1" fold="1" page="1" pageScale="1" pageWidth="827" pageHeight="1169" math="0" shadow="0">
      <root>
        <mxCell id="0" />
        <mxCell id="1" parent="0" />
        <mxCell id="z2de9iyy5rd1kPwx8NSp-1" value="G&lt;span style=&quot;background-color: transparent; color: light-dark(rgb(0, 0, 0), rgb(255, 255, 255));&quot;&gt;ltf&lt;/span&gt;" style="rounded=0;whiteSpace=wrap;html=1;verticalAlign=bottom;fillColor=#dae8fc;strokeColor=#6c8ebf;" vertex="1" parent="1">
          <mxGeometry x="280" y="360" width="160" height="360" as="geometry" />
        </mxCell>
        <mxCell id="z2de9iyy5rd1kPwx8NSp-15" style="edgeStyle=orthogonalEdgeStyle;rounded=0;orthogonalLoop=1;jettySize=auto;html=1;" edge="1" parent="1" source="z2de9iyy5rd1kPwx8NSp-2" target="z2de9iyy5rd1kPwx8NSp-12">
          <mxGeometry relative="1" as="geometry">
            <Array as="points">
              <mxPoint x="240" y="450" />
              <mxPoint x="240" y="400" />
            </Array>
          </mxGeometry>
        </mxCell>
        <mxCell id="z2de9iyy5rd1kPwx8NSp-17" style="edgeStyle=orthogonalEdgeStyle;rounded=0;orthogonalLoop=1;jettySize=auto;html=1;" edge="1" parent="1" source="z2de9iyy5rd1kPwx8NSp-2" target="z2de9iyy5rd1kPwx8NSp-14">
          <mxGeometry relative="1" as="geometry">
            <Array as="points">
              <mxPoint x="240" y="450" />
              <mxPoint x="240" y="460" />
            </Array>
          </mxGeometry>
        </mxCell>
        <mxCell id="z2de9iyy5rd1kPwx8NSp-2" value="场景组&lt;div&gt;皮肤组&lt;/div&gt;&lt;div&gt;动画组&lt;/div&gt;&lt;div&gt;节点组&lt;/div&gt;" style="rounded=0;whiteSpace=wrap;html=1;" vertex="1" parent="1">
          <mxGeometry x="300" y="410" width="120" height="80" as="geometry" />
        </mxCell>
        <mxCell id="z2de9iyy5rd1kPwx8NSp-18" style="edgeStyle=orthogonalEdgeStyle;rounded=0;orthogonalLoop=1;jettySize=auto;html=1;" edge="1" parent="1" source="z2de9iyy5rd1kPwx8NSp-3" target="z2de9iyy5rd1kPwx8NSp-13">
          <mxGeometry relative="1" as="geometry">
            <Array as="points">
              <mxPoint x="270" y="520" />
              <mxPoint x="270" y="520" />
            </Array>
          </mxGeometry>
        </mxCell>
        <mxCell id="z2de9iyy5rd1kPwx8NSp-3" value="材质组" style="rounded=0;whiteSpace=wrap;html=1;" vertex="1" parent="1">
          <mxGeometry x="300" y="500" width="120" height="30" as="geometry" />
        </mxCell>
        <mxCell id="z2de9iyy5rd1kPwx8NSp-4" value="网格组" style="rounded=0;whiteSpace=wrap;html=1;verticalAlign=bottom;fillColor=#d5e8d4;strokeColor=#82b366;" vertex="1" parent="1">
          <mxGeometry x="300" y="540" width="120" height="150" as="geometry" />
        </mxCell>
        <mxCell id="z2de9iyy5rd1kPwx8NSp-5" value="gltf网格1" style="rounded=0;whiteSpace=wrap;html=1;verticalAlign=bottom;fillColor=#ffe6cc;strokeColor=#d79b00;" vertex="1" parent="1">
          <mxGeometry x="310" y="550" width="100" height="80" as="geometry" />
        </mxCell>
        <mxCell id="z2de9iyy5rd1kPwx8NSp-6" value="gltf网格2" style="rounded=0;whiteSpace=wrap;html=1;fillColor=#ffe6cc;strokeColor=#d79b00;" vertex="1" parent="1">
          <mxGeometry x="310" y="640" width="100" height="25" as="geometry" />
        </mxCell>
        <mxCell id="z2de9iyy5rd1kPwx8NSp-11" style="edgeStyle=orthogonalEdgeStyle;rounded=0;orthogonalLoop=1;jettySize=auto;html=1;endArrow=none;endFill=0;strokeColor=#FF3333;" edge="1" parent="1" source="z2de9iyy5rd1kPwx8NSp-7" target="z2de9iyy5rd1kPwx8NSp-10">
          <mxGeometry relative="1" as="geometry">
            <Array as="points">
              <mxPoint x="490" y="570" />
              <mxPoint x="490" y="570" />
            </Array>
          </mxGeometry>
        </mxCell>
        <mxCell id="z2de9iyy5rd1kPwx8NSp-7" value="原语1" style="rounded=0;whiteSpace=wrap;html=1;fillColor=#e1d5e7;strokeColor=#9673a6;" vertex="1" parent="1">
          <mxGeometry x="320" y="560" width="80" height="20" as="geometry" />
        </mxCell>
        <mxCell id="z2de9iyy5rd1kPwx8NSp-8" value="原语2" style="rounded=0;whiteSpace=wrap;html=1;fillColor=#e1d5e7;strokeColor=#9673a6;" vertex="1" parent="1">
          <mxGeometry x="320" y="590" width="80" height="20" as="geometry" />
        </mxCell>
        <mxCell id="z2de9iyy5rd1kPwx8NSp-9" value="gltf资产" style="rounded=0;whiteSpace=wrap;html=1;" vertex="1" parent="1">
          <mxGeometry x="300" y="370" width="120" height="30" as="geometry" />
        </mxCell>
        <mxCell id="62xuVRJjF2I77jdPcdaM-2" style="edgeStyle=orthogonalEdgeStyle;rounded=0;orthogonalLoop=1;jettySize=auto;html=1;" edge="1" parent="1" source="z2de9iyy5rd1kPwx8NSp-10" target="62xuVRJjF2I77jdPcdaM-1">
          <mxGeometry relative="1" as="geometry" />
        </mxCell>
        <mxCell id="z2de9iyy5rd1kPwx8NSp-10" value="bevy 网格" style="rounded=0;whiteSpace=wrap;html=1;verticalAlign=bottom;fillColor=#dae8fc;strokeColor=#6c8ebf;" vertex="1" parent="1">
          <mxGeometry x="520" y="360" width="160" height="360" as="geometry" />
        </mxCell>
        <mxCell id="z2de9iyy5rd1kPwx8NSp-12" value="bevy 皮肤网格" style="rounded=0;whiteSpace=wrap;html=1;" vertex="1" parent="1">
          <mxGeometry x="80" y="380" width="120" height="40" as="geometry" />
        </mxCell>
        <mxCell id="z2de9iyy5rd1kPwx8NSp-13" value="bevy 材质" style="rounded=0;whiteSpace=wrap;html=1;" vertex="1" parent="1">
          <mxGeometry x="80" y="500" width="120" height="40" as="geometry" />
        </mxCell>
        <mxCell id="z2de9iyy5rd1kPwx8NSp-14" value="bevy 场景" style="rounded=0;whiteSpace=wrap;html=1;" vertex="1" parent="1">
          <mxGeometry x="80" y="440" width="120" height="40" as="geometry" />
        </mxCell>
        <mxCell id="T6XISEGn00Phtw-sQIff-1" style="edgeStyle=orthogonalEdgeStyle;rounded=0;orthogonalLoop=1;jettySize=auto;html=1;" edge="1" parent="1" source="z2de9iyy5rd1kPwx8NSp-19" target="z2de9iyy5rd1kPwx8NSp-10">
          <mxGeometry relative="1" as="geometry" />
        </mxCell>
        <mxCell id="z2de9iyy5rd1kPwx8NSp-19" value="加载gltf" style="rounded=0;whiteSpace=wrap;html=1;fillColor=#1ba1e2;fontColor=#ffffff;strokeColor=#006EAF;" vertex="1" parent="1">
          <mxGeometry x="440" y="240" width="80" height="40" as="geometry" />
        </mxCell>
        <mxCell id="T6XISEGn00Phtw-sQIff-2" style="edgeStyle=orthogonalEdgeStyle;rounded=0;orthogonalLoop=1;jettySize=auto;html=1;" edge="1" parent="1" source="z2de9iyy5rd1kPwx8NSp-20" target="z2de9iyy5rd1kPwx8NSp-10">
          <mxGeometry relative="1" as="geometry" />
        </mxCell>
        <mxCell id="z2de9iyy5rd1kPwx8NSp-20" value="bevy图形原语" style="rounded=0;whiteSpace=wrap;html=1;fillColor=#1ba1e2;fontColor=#ffffff;strokeColor=#006EAF;" vertex="1" parent="1">
          <mxGeometry x="560" y="240" width="80" height="40" as="geometry" />
        </mxCell>
        <mxCell id="T6XISEGn00Phtw-sQIff-3" style="edgeStyle=orthogonalEdgeStyle;rounded=0;orthogonalLoop=1;jettySize=auto;html=1;" edge="1" parent="1" source="z2de9iyy5rd1kPwx8NSp-22" target="z2de9iyy5rd1kPwx8NSp-10">
          <mxGeometry relative="1" as="geometry" />
        </mxCell>
        <mxCell id="z2de9iyy5rd1kPwx8NSp-22" value="手动创建" style="rounded=0;whiteSpace=wrap;html=1;fillColor=#B1E9FF;fontColor=#ffffff;strokeColor=#006EAF;" vertex="1" parent="1">
          <mxGeometry x="680" y="240" width="80" height="40" as="geometry" />
        </mxCell>
        <mxCell id="62xuVRJjF2I77jdPcdaM-4" style="edgeStyle=orthogonalEdgeStyle;rounded=0;orthogonalLoop=1;jettySize=auto;html=1;" edge="1" parent="1" source="62xuVRJjF2I77jdPcdaM-1" target="62xuVRJjF2I77jdPcdaM-3">
          <mxGeometry relative="1" as="geometry" />
        </mxCell>
        <mxCell id="62xuVRJjF2I77jdPcdaM-1" value="Mesh2d/Mesh3d" style="rounded=0;whiteSpace=wrap;html=1;" vertex="1" parent="1">
          <mxGeometry x="540" y="780" width="120" height="40" as="geometry" />
        </mxCell>
        <mxCell id="gJp-RyjANAHTDq2uio7z-2" style="edgeStyle=orthogonalEdgeStyle;rounded=0;orthogonalLoop=1;jettySize=auto;html=1;" edge="1" parent="1" source="62xuVRJjF2I77jdPcdaM-3" target="gJp-RyjANAHTDq2uio7z-1">
          <mxGeometry relative="1" as="geometry" />
        </mxCell>
        <mxCell id="62xuVRJjF2I77jdPcdaM-3" value="RenderMesh" style="rounded=0;whiteSpace=wrap;html=1;" vertex="1" parent="1">
          <mxGeometry x="540" y="860" width="120" height="40" as="geometry" />
        </mxCell>
        <mxCell id="62xuVRJjF2I77jdPcdaM-9" style="edgeStyle=orthogonalEdgeStyle;rounded=0;orthogonalLoop=1;jettySize=auto;html=1;endArrow=none;endFill=0;strokeColor=#FF3333;" edge="1" parent="1" source="62xuVRJjF2I77jdPcdaM-5" target="62xuVRJjF2I77jdPcdaM-8">
          <mxGeometry relative="1" as="geometry">
            <Array as="points">
              <mxPoint x="680" y="640" />
              <mxPoint x="680" y="640" />
            </Array>
          </mxGeometry>
        </mxCell>
        <mxCell id="62xuVRJjF2I77jdPcdaM-5" value="顶点" style="rounded=0;whiteSpace=wrap;html=1;verticalAlign=bottom;fillColor=#d5e8d4;strokeColor=#82b366;" vertex="1" parent="1">
          <mxGeometry x="540" y="380" width="120" height="270" as="geometry" />
        </mxCell>
        <mxCell id="62xuVRJjF2I77jdPcdaM-6" value="顶点属性" style="rounded=0;whiteSpace=wrap;html=1;verticalAlign=bottom;fillColor=#ffe6cc;strokeColor=#d79b00;" vertex="1" parent="1">
          <mxGeometry x="550" y="390" width="100" height="230" as="geometry" />
        </mxCell>
        <mxCell id="62xuVRJjF2I77jdPcdaM-12" style="edgeStyle=orthogonalEdgeStyle;rounded=0;orthogonalLoop=1;jettySize=auto;html=1;" edge="1" parent="1" source="62xuVRJjF2I77jdPcdaM-8" target="62xuVRJjF2I77jdPcdaM-11">
          <mxGeometry relative="1" as="geometry" />
        </mxCell>
        <mxCell id="62xuVRJjF2I77jdPcdaM-8" value="点/线/三角形" style="rounded=0;whiteSpace=wrap;html=1;" vertex="1" parent="1">
          <mxGeometry x="760" y="620" width="80" height="40" as="geometry" />
        </mxCell>
        <mxCell id="62xuVRJjF2I77jdPcdaM-11" value="GPU图原" style="rounded=0;whiteSpace=wrap;html=1;" vertex="1" parent="1">
          <mxGeometry x="880" y="620" width="80" height="40" as="geometry" />
        </mxCell>
        <mxCell id="62xuVRJjF2I77jdPcdaM-13" value="位置" style="rounded=0;whiteSpace=wrap;html=1;fillColor=#e1d5e7;strokeColor=#9673a6;" vertex="1" parent="1">
          <mxGeometry x="560" y="400" width="80" height="20" as="geometry" />
        </mxCell>
        <mxCell id="62xuVRJjF2I77jdPcdaM-14" value="UV映射" style="rounded=0;whiteSpace=wrap;html=1;fillColor=#e1d5e7;strokeColor=#9673a6;" vertex="1" parent="1">
          <mxGeometry x="560" y="428" width="80" height="20" as="geometry" />
        </mxCell>
        <mxCell id="62xuVRJjF2I77jdPcdaM-15" value="法线/切线" style="rounded=0;whiteSpace=wrap;html=1;fillColor=#e1d5e7;strokeColor=#9673a6;" vertex="1" parent="1">
          <mxGeometry x="560" y="485" width="80" height="20" as="geometry" />
        </mxCell>
        <mxCell id="62xuVRJjF2I77jdPcdaM-16" value="三角形索引" style="rounded=0;whiteSpace=wrap;html=1;fillColor=#e1d5e7;strokeColor=#9673a6;" vertex="1" parent="1">
          <mxGeometry x="560" y="457" width="80" height="20" as="geometry" />
        </mxCell>
        <mxCell id="62xuVRJjF2I77jdPcdaM-17" value="着色" style="rounded=0;whiteSpace=wrap;html=1;fillColor=#e1d5e7;strokeColor=#9673a6;" vertex="1" parent="1">
          <mxGeometry x="560" y="513" width="80" height="20" as="geometry" />
        </mxCell>
        <mxCell id="62xuVRJjF2I77jdPcdaM-18" value="权重" style="rounded=0;whiteSpace=wrap;html=1;fillColor=#e1d5e7;strokeColor=#9673a6;" vertex="1" parent="1">
          <mxGeometry x="560" y="542" width="80" height="20" as="geometry" />
        </mxCell>
        <mxCell id="62xuVRJjF2I77jdPcdaM-19" value="自定义属性" style="rounded=0;whiteSpace=wrap;html=1;fillColor=#e1d5e7;strokeColor=#9673a6;" vertex="1" parent="1">
          <mxGeometry x="560" y="570" width="80" height="20" as="geometry" />
        </mxCell>
        <mxCell id="gFYOw1LU0MhTbvp6jmgF-2" style="edgeStyle=orthogonalEdgeStyle;rounded=0;orthogonalLoop=1;jettySize=auto;html=1;" edge="1" parent="1" source="gJp-RyjANAHTDq2uio7z-1" target="gFYOw1LU0MhTbvp6jmgF-1">
          <mxGeometry relative="1" as="geometry" />
        </mxCell>
        <mxCell id="gJp-RyjANAHTDq2uio7z-1" value="MeshPipeline" style="rounded=0;whiteSpace=wrap;html=1;" vertex="1" parent="1">
          <mxGeometry x="540" y="940" width="120" height="40" as="geometry" />
        </mxCell>
        <mxCell id="gFYOw1LU0MhTbvp6jmgF-1" value="着色器/GPU" style="rounded=0;whiteSpace=wrap;html=1;" vertex="1" parent="1">
          <mxGeometry x="540" y="1020" width="120" height="40" as="geometry" />
        </mxCell>
        <mxCell id="gFYOw1LU0MhTbvp6jmgF-9" style="edgeStyle=orthogonalEdgeStyle;rounded=0;orthogonalLoop=1;jettySize=auto;html=1;" edge="1" parent="1" source="gFYOw1LU0MhTbvp6jmgF-3" target="gFYOw1LU0MhTbvp6jmgF-5">
          <mxGeometry relative="1" as="geometry" />
        </mxCell>
        <mxCell id="gFYOw1LU0MhTbvp6jmgF-3" value="gltf自定义属性" style="rounded=0;whiteSpace=wrap;html=1;" vertex="1" parent="1">
          <mxGeometry x="160" y="1200" width="120" height="40" as="geometry" />
        </mxCell>
        <mxCell id="gFYOw1LU0MhTbvp6jmgF-10" style="edgeStyle=orthogonalEdgeStyle;rounded=0;orthogonalLoop=1;jettySize=auto;html=1;" edge="1" parent="1" source="gFYOw1LU0MhTbvp6jmgF-4" target="gFYOw1LU0MhTbvp6jmgF-5">
          <mxGeometry relative="1" as="geometry" />
        </mxCell>
        <mxCell id="gFYOw1LU0MhTbvp6jmgF-4" value="Mesh添加属性" style="rounded=0;whiteSpace=wrap;html=1;" vertex="1" parent="1">
          <mxGeometry x="160" y="1280" width="120" height="40" as="geometry" />
        </mxCell>
        <mxCell id="gFYOw1LU0MhTbvp6jmgF-11" style="edgeStyle=orthogonalEdgeStyle;rounded=0;orthogonalLoop=1;jettySize=auto;html=1;" edge="1" parent="1" source="gFYOw1LU0MhTbvp6jmgF-5" target="gFYOw1LU0MhTbvp6jmgF-6">
          <mxGeometry relative="1" as="geometry" />
        </mxCell>
        <mxCell id="gFYOw1LU0MhTbvp6jmgF-5" value="Mesh" style="rounded=0;whiteSpace=wrap;html=1;" vertex="1" parent="1">
          <mxGeometry x="360" y="1240" width="120" height="40" as="geometry" />
        </mxCell>
        <mxCell id="gFYOw1LU0MhTbvp6jmgF-12" style="edgeStyle=orthogonalEdgeStyle;rounded=0;orthogonalLoop=1;jettySize=auto;html=1;" edge="1" parent="1" source="gFYOw1LU0MhTbvp6jmgF-6" target="gFYOw1LU0MhTbvp6jmgF-7">
          <mxGeometry relative="1" as="geometry" />
        </mxCell>
        <mxCell id="gFYOw1LU0MhTbvp6jmgF-6" value="RenderMesh" style="rounded=0;whiteSpace=wrap;html=1;fillColor=#dae8fc;strokeColor=#6c8ebf;" vertex="1" parent="1">
          <mxGeometry x="560" y="1240" width="120" height="40" as="geometry" />
        </mxCell>
        <mxCell id="gFYOw1LU0MhTbvp6jmgF-13" style="edgeStyle=orthogonalEdgeStyle;rounded=0;orthogonalLoop=1;jettySize=auto;html=1;" edge="1" parent="1" source="gFYOw1LU0MhTbvp6jmgF-7" target="gFYOw1LU0MhTbvp6jmgF-8">
          <mxGeometry relative="1" as="geometry" />
        </mxCell>
        <mxCell id="gFYOw1LU0MhTbvp6jmgF-7" value="MeshPipeline&lt;div&gt;Mesh2dPipeline&amp;nbsp;&lt;/div&gt;" style="rounded=0;whiteSpace=wrap;html=1;fillColor=#f8cecc;strokeColor=#b85450;" vertex="1" parent="1">
          <mxGeometry x="760" y="1240" width="120" height="40" as="geometry" />
        </mxCell>
        <mxCell id="gFYOw1LU0MhTbvp6jmgF-8" value="着色器" style="rounded=0;whiteSpace=wrap;html=1;" vertex="1" parent="1">
          <mxGeometry x="960" y="1240" width="120" height="40" as="geometry" />
        </mxCell>
        <mxCell id="gFYOw1LU0MhTbvp6jmgF-14" value="自定义属性如何传递" style="text;html=1;align=center;verticalAlign=middle;whiteSpace=wrap;rounded=0;fontColor=#CE47FF;" vertex="1" parent="1">
          <mxGeometry x="520" y="1340" width="170" height="30" as="geometry" />
        </mxCell>
      </root>
    </mxGraphModel>
  </diagram>
  <diagram id="Q4-mbLd20Hcdr9frYPE1" name="复古像素风">
    <mxGraphModel dx="400" dy="629" grid="1" gridSize="10" guides="1" tooltips="1" connect="1" arrows="1" fold="1" page="1" pageScale="1" pageWidth="827" pageHeight="1169" math="0" shadow="0">
      <root>
        <mxCell id="0" />
        <mxCell id="1" parent="0" />
        <mxCell id="UsgBqUAa3K9wBehc_VGI-10" value="" style="rounded=0;whiteSpace=wrap;html=1;fillColor=#d5e8d4;strokeColor=#82b366;gradientColor=#97d077;" parent="1" vertex="1">
          <mxGeometry x="110" y="250" width="400" height="260" as="geometry" />
        </mxCell>
        <mxCell id="UsgBqUAa3K9wBehc_VGI-5" value="" style="group;fillColor=#b0e3e6;strokeColor=#0e8088;" parent="1" vertex="1" connectable="0">
          <mxGeometry x="193.07" y="150" width="64.62" height="30" as="geometry" />
        </mxCell>
        <mxCell id="UsgBqUAa3K9wBehc_VGI-2" value="" style="rounded=0;whiteSpace=wrap;html=1;fillColor=none;" parent="UsgBqUAa3K9wBehc_VGI-5" vertex="1">
          <mxGeometry width="64.62" height="30" as="geometry" />
        </mxCell>
        <mxCell id="UsgBqUAa3K9wBehc_VGI-3" value="" style="ellipse;whiteSpace=wrap;html=1;aspect=fixed;fillColor=#dae8fc;strokeColor=#6c8ebf;" parent="UsgBqUAa3K9wBehc_VGI-5" vertex="1">
          <mxGeometry x="4.615714285714286" y="4.615384615384616" width="18.461538461538463" height="18.461538461538463" as="geometry" />
        </mxCell>
        <mxCell id="UsgBqUAa3K9wBehc_VGI-4" value="" style="rhombus;whiteSpace=wrap;html=1;fillColor=#d5e8d4;strokeColor=#82b366;" parent="UsgBqUAa3K9wBehc_VGI-5" vertex="1">
          <mxGeometry x="30.002142857142857" y="5.769230769230769" width="18.462857142857143" height="18.461538461538463" as="geometry" />
        </mxCell>
        <mxCell id="UsgBqUAa3K9wBehc_VGI-11" value="" style="shape=cylinder3;whiteSpace=wrap;html=1;boundedLbl=1;backgroundOutline=1;size=15;fillColor=#f8cecc;strokeColor=#b85450;" parent="1" vertex="1">
          <mxGeometry x="195.39" y="390" width="60" height="80" as="geometry" />
        </mxCell>
        <mxCell id="UsgBqUAa3K9wBehc_VGI-12" value="Actor" style="shape=umlActor;verticalLabelPosition=bottom;verticalAlign=top;html=1;outlineConnect=0;fillColor=#e1d5e7;strokeColor=#9673a6;" parent="1" vertex="1">
          <mxGeometry x="370" y="310" width="30" height="60" as="geometry" />
        </mxCell>
        <mxCell id="UsgBqUAa3K9wBehc_VGI-13" value="" style="endArrow=none;html=1;rounded=0;exitX=0;exitY=0;exitDx=0;exitDy=0;entryX=0;entryY=0;entryDx=0;entryDy=0;" parent="1" source="UsgBqUAa3K9wBehc_VGI-7" target="UsgBqUAa3K9wBehc_VGI-2" edge="1">
          <mxGeometry width="50" height="50" relative="1" as="geometry">
            <mxPoint x="300" y="550" as="sourcePoint" />
            <mxPoint x="350" y="500" as="targetPoint" />
          </mxGeometry>
        </mxCell>
        <mxCell id="UsgBqUAa3K9wBehc_VGI-14" value="" style="endArrow=none;html=1;rounded=0;exitX=0;exitY=1;exitDx=0;exitDy=0;entryX=0;entryY=1;entryDx=0;entryDy=0;" parent="1" source="UsgBqUAa3K9wBehc_VGI-7" target="UsgBqUAa3K9wBehc_VGI-2" edge="1">
          <mxGeometry width="50" height="50" relative="1" as="geometry">
            <mxPoint x="310" y="550" as="sourcePoint" />
            <mxPoint x="360" y="500" as="targetPoint" />
          </mxGeometry>
        </mxCell>
        <mxCell id="UsgBqUAa3K9wBehc_VGI-15" value="" style="endArrow=none;html=1;rounded=0;exitX=1;exitY=1;exitDx=0;exitDy=0;entryX=1;entryY=1;entryDx=0;entryDy=0;" parent="1" source="UsgBqUAa3K9wBehc_VGI-7" target="UsgBqUAa3K9wBehc_VGI-2" edge="1">
          <mxGeometry width="50" height="50" relative="1" as="geometry">
            <mxPoint x="310" y="550" as="sourcePoint" />
            <mxPoint x="360" y="500" as="targetPoint" />
          </mxGeometry>
        </mxCell>
        <mxCell id="UsgBqUAa3K9wBehc_VGI-16" value="" style="endArrow=none;html=1;rounded=0;exitX=1;exitY=0;exitDx=0;exitDy=0;entryX=1;entryY=0;entryDx=0;entryDy=0;" parent="1" source="UsgBqUAa3K9wBehc_VGI-7" target="UsgBqUAa3K9wBehc_VGI-2" edge="1">
          <mxGeometry width="50" height="50" relative="1" as="geometry">
            <mxPoint x="310" y="550" as="sourcePoint" />
            <mxPoint x="360" y="500" as="targetPoint" />
          </mxGeometry>
        </mxCell>
        <mxCell id="UsgBqUAa3K9wBehc_VGI-17" value="" style="shape=image;html=1;verticalAlign=top;verticalLabelPosition=bottom;labelBackgroundColor=#ffffff;imageAspect=0;aspect=fixed;image=https://icons.diagrams.net/icon-cache1/48_Bubbles-2335/25.Camera-Front-623.svg" parent="1" vertex="1">
          <mxGeometry x="286" y="530" width="48" height="48" as="geometry" />
        </mxCell>
        <mxCell id="UsgBqUAa3K9wBehc_VGI-18" value="" style="shape=image;html=1;verticalAlign=top;verticalLabelPosition=bottom;labelBackgroundColor=#ffffff;imageAspect=0;aspect=fixed;image=https://icons.diagrams.net/icon-cache1/48_Bubbles-2335/25.Camera-Front-623.svg" parent="1" vertex="1">
          <mxGeometry x="201.38" y="80" width="48" height="48" as="geometry" />
        </mxCell>
        <mxCell id="UsgBqUAa3K9wBehc_VGI-6" value="" style="group;fillColor=#b0e3e6;strokeColor=#0e8088;" parent="1" vertex="1" connectable="0">
          <mxGeometry x="150" y="290" width="150.77" height="70" as="geometry" />
        </mxCell>
        <mxCell id="UsgBqUAa3K9wBehc_VGI-7" value="" style="rounded=0;whiteSpace=wrap;html=1;fillColor=none;" parent="UsgBqUAa3K9wBehc_VGI-6" vertex="1">
          <mxGeometry width="150.77" height="70" as="geometry" />
        </mxCell>
        <mxCell id="UsgBqUAa3K9wBehc_VGI-8" value="" style="ellipse;whiteSpace=wrap;html=1;aspect=fixed;fillColor=#dae8fc;strokeColor=#6c8ebf;" parent="UsgBqUAa3K9wBehc_VGI-6" vertex="1">
          <mxGeometry x="10.769285714285715" y="10.769230769230768" width="43.07692307692307" height="43.07692307692307" as="geometry" />
        </mxCell>
        <mxCell id="UsgBqUAa3K9wBehc_VGI-9" value="" style="rhombus;whiteSpace=wrap;html=1;fillColor=#d5e8d4;strokeColor=#82b366;" parent="UsgBqUAa3K9wBehc_VGI-6" vertex="1">
          <mxGeometry x="70.00035714285714" y="13.461538461538462" width="43.07714285714286" height="43.07692307692307" as="geometry" />
        </mxCell>
        <mxCell id="QfObypokaSsTwh93GpzD-1" value="像素完美对齐" style="ellipse;whiteSpace=wrap;html=1;aspect=fixed;fillColor=#ffe6cc;strokeColor=#d79b00;" vertex="1" parent="1">
          <mxGeometry x="1080" y="120" width="80" height="80" as="geometry" />
        </mxCell>
        <mxCell id="QfObypokaSsTwh93GpzD-2" value="不完美" style="ellipse;whiteSpace=wrap;html=1;aspect=fixed;fillColor=#ffe6cc;strokeColor=#d79b00;" vertex="1" parent="1">
          <mxGeometry x="1080" y="520" width="80" height="80" as="geometry" />
        </mxCell>
        <mxCell id="QfObypokaSsTwh93GpzD-5" style="edgeStyle=orthogonalEdgeStyle;rounded=0;orthogonalLoop=1;jettySize=auto;html=1;curved=1;fillColor=#d5e8d4;gradientColor=#97d077;strokeColor=#82b366;" edge="1" parent="1" source="QfObypokaSsTwh93GpzD-3" target="QfObypokaSsTwh93GpzD-1">
          <mxGeometry relative="1" as="geometry">
            <Array as="points">
              <mxPoint x="1015" y="230" />
              <mxPoint x="1120" y="230" />
            </Array>
          </mxGeometry>
        </mxCell>
        <mxCell id="QfObypokaSsTwh93GpzD-7" value="变形" style="edgeLabel;html=1;align=center;verticalAlign=middle;resizable=0;points=[];" vertex="1" connectable="0" parent="QfObypokaSsTwh93GpzD-5">
          <mxGeometry x="-0.0377" relative="1" as="geometry">
            <mxPoint x="-57" y="20" as="offset" />
          </mxGeometry>
        </mxCell>
        <mxCell id="QfObypokaSsTwh93GpzD-31" style="edgeStyle=orthogonalEdgeStyle;rounded=0;orthogonalLoop=1;jettySize=auto;html=1;endArrow=none;endFill=0;" edge="1" parent="1" source="QfObypokaSsTwh93GpzD-3" target="QfObypokaSsTwh93GpzD-12">
          <mxGeometry relative="1" as="geometry" />
        </mxCell>
        <mxCell id="QfObypokaSsTwh93GpzD-32" value="等比缩放" style="edgeLabel;html=1;align=center;verticalAlign=middle;resizable=0;points=[];" vertex="1" connectable="0" parent="QfObypokaSsTwh93GpzD-31">
          <mxGeometry x="0.1906" relative="1" as="geometry">
            <mxPoint x="-35" y="-3" as="offset" />
          </mxGeometry>
        </mxCell>
        <mxCell id="QfObypokaSsTwh93GpzD-3" value="完整性" style="rounded=1;whiteSpace=wrap;html=1;fillColor=#d5e8d4;gradientColor=#97d077;strokeColor=#82b366;" vertex="1" parent="1">
          <mxGeometry x="990" y="275" width="50" height="30" as="geometry" />
        </mxCell>
        <mxCell id="QfObypokaSsTwh93GpzD-6" style="edgeStyle=orthogonalEdgeStyle;rounded=0;orthogonalLoop=1;jettySize=auto;html=1;curved=1;fillColor=#dae8fc;gradientColor=#7ea6e0;strokeColor=#6c8ebf;" edge="1" parent="1" source="QfObypokaSsTwh93GpzD-9" target="QfObypokaSsTwh93GpzD-1">
          <mxGeometry relative="1" as="geometry" />
        </mxCell>
        <mxCell id="QfObypokaSsTwh93GpzD-8" value="模糊" style="edgeLabel;html=1;align=center;verticalAlign=middle;resizable=0;points=[];" vertex="1" connectable="0" parent="QfObypokaSsTwh93GpzD-6">
          <mxGeometry x="-0.1694" y="-5" relative="1" as="geometry">
            <mxPoint x="20" as="offset" />
          </mxGeometry>
        </mxCell>
        <mxCell id="QfObypokaSsTwh93GpzD-10" style="edgeStyle=orthogonalEdgeStyle;rounded=0;orthogonalLoop=1;jettySize=auto;html=1;curved=1;fillColor=#ffcccc;strokeColor=#FFCCCC;" edge="1" parent="1" source="QfObypokaSsTwh93GpzD-4" target="QfObypokaSsTwh93GpzD-1">
          <mxGeometry relative="1" as="geometry">
            <Array as="points">
              <mxPoint x="1225" y="230" />
              <mxPoint x="1120" y="230" />
            </Array>
          </mxGeometry>
        </mxCell>
        <mxCell id="QfObypokaSsTwh93GpzD-11" value="抖动" style="edgeLabel;html=1;align=center;verticalAlign=middle;resizable=0;points=[];" vertex="1" connectable="0" parent="QfObypokaSsTwh93GpzD-10">
          <mxGeometry x="-0.1817" y="-5" relative="1" as="geometry">
            <mxPoint x="46" y="25" as="offset" />
          </mxGeometry>
        </mxCell>
        <mxCell id="QfObypokaSsTwh93GpzD-4" value="网格对齐" style="rounded=1;whiteSpace=wrap;html=1;fillColor=#ffcccc;strokeColor=#36393d;" vertex="1" parent="1">
          <mxGeometry x="1200" y="275" width="50" height="30" as="geometry" />
        </mxCell>
        <mxCell id="QfObypokaSsTwh93GpzD-23" style="edgeStyle=orthogonalEdgeStyle;rounded=0;orthogonalLoop=1;jettySize=auto;html=1;curved=1;fillColor=#cdeb8b;strokeColor=#82B366;" edge="1" parent="1" source="QfObypokaSsTwh93GpzD-12" target="QfObypokaSsTwh93GpzD-2">
          <mxGeometry relative="1" as="geometry">
            <Array as="points">
              <mxPoint x="1015" y="470" />
              <mxPoint x="1120" y="470" />
            </Array>
          </mxGeometry>
        </mxCell>
        <mxCell id="QfObypokaSsTwh93GpzD-28" value="&lt;div&gt;精灵/相机/窗口&lt;/div&gt;浮点缩放&lt;div&gt;非等比缩放&lt;/div&gt;" style="edgeLabel;html=1;align=center;verticalAlign=middle;resizable=0;points=[];" vertex="1" connectable="0" parent="QfObypokaSsTwh93GpzD-23">
          <mxGeometry x="-0.5475" y="-4" relative="1" as="geometry">
            <mxPoint x="4" y="45" as="offset" />
          </mxGeometry>
        </mxCell>
        <mxCell id="QfObypokaSsTwh93GpzD-12" value="sprite&lt;div&gt;rtt&lt;/div&gt;" style="rounded=1;whiteSpace=wrap;html=1;fillColor=#d5e8d4;gradientColor=#97d077;strokeColor=#82b366;" vertex="1" parent="1">
          <mxGeometry x="990" y="375" width="50" height="30" as="geometry" />
        </mxCell>
        <mxCell id="QfObypokaSsTwh93GpzD-24" style="edgeStyle=orthogonalEdgeStyle;rounded=0;orthogonalLoop=1;jettySize=auto;html=1;curved=1;strokeColor=#6C8EBF;" edge="1" parent="1" source="QfObypokaSsTwh93GpzD-13" target="QfObypokaSsTwh93GpzD-2">
          <mxGeometry relative="1" as="geometry" />
        </mxCell>
        <mxCell id="QfObypokaSsTwh93GpzD-26" value="线性采样" style="edgeLabel;html=1;align=center;verticalAlign=middle;resizable=0;points=[];" vertex="1" connectable="0" parent="QfObypokaSsTwh93GpzD-24">
          <mxGeometry x="-0.4521" relative="1" as="geometry">
            <mxPoint x="25" y="3" as="offset" />
          </mxGeometry>
        </mxCell>
        <mxCell id="QfObypokaSsTwh93GpzD-13" value="锯齿" style="rounded=1;whiteSpace=wrap;html=1;fillColor=#dae8fc;gradientColor=#7ea6e0;strokeColor=#6c8ebf;" vertex="1" parent="1">
          <mxGeometry x="1095" y="375" width="50" height="30" as="geometry" />
        </mxCell>
        <mxCell id="QfObypokaSsTwh93GpzD-25" style="edgeStyle=orthogonalEdgeStyle;rounded=0;orthogonalLoop=1;jettySize=auto;html=1;curved=1;strokeColor=#FFCCCC;" edge="1" parent="1" source="QfObypokaSsTwh93GpzD-14" target="QfObypokaSsTwh93GpzD-2">
          <mxGeometry relative="1" as="geometry">
            <Array as="points">
              <mxPoint x="1225" y="480" />
              <mxPoint x="1120" y="480" />
            </Array>
          </mxGeometry>
        </mxCell>
        <mxCell id="QfObypokaSsTwh93GpzD-27" value="浮点坐标" style="edgeLabel;html=1;align=center;verticalAlign=middle;resizable=0;points=[];" vertex="1" connectable="0" parent="QfObypokaSsTwh93GpzD-25">
          <mxGeometry x="-0.6383" y="1" relative="1" as="geometry">
            <mxPoint x="14" y="21" as="offset" />
          </mxGeometry>
        </mxCell>
        <mxCell id="QfObypokaSsTwh93GpzD-14" value="亚像素" style="rounded=1;whiteSpace=wrap;html=1;fillColor=#ffcccc;strokeColor=#36393d;" vertex="1" parent="1">
          <mxGeometry x="1200" y="375" width="50" height="30" as="geometry" />
        </mxCell>
        <mxCell id="QfObypokaSsTwh93GpzD-17" style="edgeStyle=orthogonalEdgeStyle;rounded=0;orthogonalLoop=1;jettySize=auto;html=1;endArrow=none;endFill=0;" edge="1" parent="1" source="QfObypokaSsTwh93GpzD-9" target="QfObypokaSsTwh93GpzD-13">
          <mxGeometry relative="1" as="geometry">
            <mxPoint x="1290" y="280" as="sourcePoint" />
            <mxPoint x="1390" y="280" as="targetPoint" />
          </mxGeometry>
        </mxCell>
        <mxCell id="QfObypokaSsTwh93GpzD-18" value="就近采样" style="edgeLabel;html=1;align=center;verticalAlign=middle;resizable=0;points=[];" vertex="1" connectable="0" parent="QfObypokaSsTwh93GpzD-17">
          <mxGeometry x="-0.0269" relative="1" as="geometry">
            <mxPoint x="25" y="1" as="offset" />
          </mxGeometry>
        </mxCell>
        <mxCell id="QfObypokaSsTwh93GpzD-19" style="edgeStyle=orthogonalEdgeStyle;rounded=0;orthogonalLoop=1;jettySize=auto;html=1;endArrow=none;endFill=0;" edge="1" parent="1" source="QfObypokaSsTwh93GpzD-4" target="QfObypokaSsTwh93GpzD-14">
          <mxGeometry relative="1" as="geometry">
            <mxPoint x="1290" y="360" as="sourcePoint" />
            <mxPoint x="1390" y="360" as="targetPoint" />
          </mxGeometry>
        </mxCell>
        <mxCell id="QfObypokaSsTwh93GpzD-20" value="整数坐标平移&lt;div&gt;有限旋转(rtt)&lt;/div&gt;" style="edgeLabel;html=1;align=center;verticalAlign=middle;resizable=0;points=[];" vertex="1" connectable="0" parent="QfObypokaSsTwh93GpzD-19">
          <mxGeometry x="-0.0269" relative="1" as="geometry">
            <mxPoint x="45" y="-1" as="offset" />
          </mxGeometry>
        </mxCell>
        <mxCell id="QfObypokaSsTwh93GpzD-9" value="清晰度" style="rounded=1;whiteSpace=wrap;html=1;fillColor=#dae8fc;gradientColor=#7ea6e0;strokeColor=#6c8ebf;" vertex="1" parent="1">
          <mxGeometry x="1095" y="275" width="50" height="30" as="geometry" />
        </mxCell>
        <mxCell id="QfObypokaSsTwh93GpzD-33" value="" style="rounded=1;whiteSpace=wrap;html=1;strokeWidth=2;fillWeight=4;hachureGap=8;hachureAngle=45;fillColor=#1ba1e2;sketch=1;rotation=0;" vertex="1" parent="1">
          <mxGeometry x="1440" y="520" width="160" height="40" as="geometry" />
        </mxCell>
        <mxCell id="QfObypokaSsTwh93GpzD-34" value="" style="rounded=1;whiteSpace=wrap;html=1;strokeWidth=2;fillWeight=4;hachureGap=8;hachureAngle=45;fillColor=#1ba1e2;sketch=1;rotation=1;" vertex="1" parent="1">
          <mxGeometry x="1440" y="360" width="120" height="40" as="geometry" />
        </mxCell>
      </root>
    </mxGraphModel>
  </diagram>
  <diagram id="xPBef4nAupmdlXv6I1RO" name="调度">
    <mxGraphModel dx="1525" dy="1107" grid="1" gridSize="10" guides="1" tooltips="1" connect="1" arrows="1" fold="1" page="1" pageScale="1" pageWidth="827" pageHeight="1169" math="0" shadow="0">
      <root>
        <mxCell id="0" />
        <mxCell id="1" parent="0" />
        <mxCell id="3Isz4eD0cGKzQO3ojk9g-79" value="&lt;font style=&quot;font-size: 23px;&quot;&gt;定速跑&lt;/font&gt;" style="rounded=1;whiteSpace=wrap;html=1;verticalAlign=top;align=center;fillColor=none;strokeColor=#3BFF15;" vertex="1" parent="1">
          <mxGeometry x="1050" y="425" width="430" height="345" as="geometry" />
        </mxCell>
        <mxCell id="3Isz4eD0cGKzQO3ojk9g-78" value="&lt;font style=&quot;font-size: 23px;&quot;&gt;每帧都跑&lt;/font&gt;" style="rounded=1;whiteSpace=wrap;html=1;verticalAlign=top;align=center;fillColor=none;strokeColor=#3BFF15;" vertex="1" parent="1">
          <mxGeometry x="580" y="390" width="430" height="380" as="geometry" />
        </mxCell>
        <mxCell id="3Isz4eD0cGKzQO3ojk9g-33" value="定速车" style="rounded=1;whiteSpace=wrap;html=1;shadow=0;verticalAlign=bottom;fillColor=#e1d5e7;strokeColor=#9673a6;" vertex="1" parent="1">
          <mxGeometry x="-210" y="1480" width="160" height="170" as="geometry" />
        </mxCell>
        <mxCell id="3Isz4eD0cGKzQO3ojk9g-6" style="edgeStyle=entityRelationEdgeStyle;rounded=0;orthogonalLoop=1;jettySize=auto;html=1;startArrow=none;endArrow=none;segment=10;curved=1;sourcePerimeterSpacing=0;targetPerimeterSpacing=0;" edge="1" parent="1" source="3Isz4eD0cGKzQO3ojk9g-1" target="3Isz4eD0cGKzQO3ojk9g-5">
          <mxGeometry relative="1" as="geometry" />
        </mxCell>
        <mxCell id="3Isz4eD0cGKzQO3ojk9g-1" value="调度" style="ellipse;whiteSpace=wrap;html=1;align=center;newEdgeStyle={&quot;edgeStyle&quot;:&quot;entityRelationEdgeStyle&quot;,&quot;startArrow&quot;:&quot;none&quot;,&quot;endArrow&quot;:&quot;none&quot;,&quot;segment&quot;:10,&quot;curved&quot;:1,&quot;sourcePerimeterSpacing&quot;:0,&quot;targetPerimeterSpacing&quot;:0};treeFolding=1;treeMoving=1;fillColor=#dae8fc;strokeColor=#6c8ebf;" vertex="1" parent="1">
          <mxGeometry x="320" y="480" width="80" height="40" as="geometry" />
        </mxCell>
        <mxCell id="3Isz4eD0cGKzQO3ojk9g-38" style="edgeStyle=entityRelationEdgeStyle;rounded=0;orthogonalLoop=1;jettySize=auto;html=1;startArrow=none;endArrow=none;segment=10;curved=1;sourcePerimeterSpacing=0;targetPerimeterSpacing=0;" edge="1" parent="1" source="3Isz4eD0cGKzQO3ojk9g-2" target="3Isz4eD0cGKzQO3ojk9g-36">
          <mxGeometry relative="1" as="geometry" />
        </mxCell>
        <mxCell id="3Isz4eD0cGKzQO3ojk9g-39" style="edgeStyle=entityRelationEdgeStyle;rounded=0;orthogonalLoop=1;jettySize=auto;html=1;startArrow=none;endArrow=none;segment=10;curved=1;sourcePerimeterSpacing=0;targetPerimeterSpacing=0;" edge="1" parent="1" source="3Isz4eD0cGKzQO3ojk9g-2" target="3Isz4eD0cGKzQO3ojk9g-37">
          <mxGeometry relative="1" as="geometry" />
        </mxCell>
        <mxCell id="3Isz4eD0cGKzQO3ojk9g-2" value="Main" style="whiteSpace=wrap;html=1;rounded=1;arcSize=50;align=center;verticalAlign=middle;strokeWidth=1;autosize=1;spacing=4;treeFolding=1;treeMoving=1;newEdgeStyle={&quot;edgeStyle&quot;:&quot;entityRelationEdgeStyle&quot;,&quot;startArrow&quot;:&quot;none&quot;,&quot;endArrow&quot;:&quot;none&quot;,&quot;segment&quot;:10,&quot;curved&quot;:1,&quot;sourcePerimeterSpacing&quot;:0,&quot;targetPerimeterSpacing&quot;:0};fillColor=#60a917;strokeColor=#2D7600;shadow=0;fontColor=#ffffff;" vertex="1" parent="1">
          <mxGeometry x="440" y="440" width="120" height="30" as="geometry" />
        </mxCell>
        <mxCell id="3Isz4eD0cGKzQO3ojk9g-3" value="" style="edgeStyle=entityRelationEdgeStyle;startArrow=none;endArrow=none;segment=10;curved=1;sourcePerimeterSpacing=0;targetPerimeterSpacing=0;rounded=0;" edge="1" target="3Isz4eD0cGKzQO3ojk9g-2" parent="1" source="3Isz4eD0cGKzQO3ojk9g-1">
          <mxGeometry relative="1" as="geometry">
            <mxPoint x="440" y="450" as="sourcePoint" />
          </mxGeometry>
        </mxCell>
        <mxCell id="3Isz4eD0cGKzQO3ojk9g-5" value="ExtractSchedule" style="whiteSpace=wrap;html=1;rounded=1;arcSize=50;align=center;verticalAlign=middle;strokeWidth=1;autosize=1;spacing=4;treeFolding=1;treeMoving=1;newEdgeStyle={&quot;edgeStyle&quot;:&quot;entityRelationEdgeStyle&quot;,&quot;startArrow&quot;:&quot;none&quot;,&quot;endArrow&quot;:&quot;none&quot;,&quot;segment&quot;:10,&quot;curved&quot;:1,&quot;sourcePerimeterSpacing&quot;:0,&quot;targetPerimeterSpacing&quot;:0};fillColor=#d80073;strokeColor=#A50040;shadow=0;fontColor=#ffffff;" vertex="1" collapsed="1" parent="1">
          <mxGeometry x="440" y="480" width="120" height="30" as="geometry" />
        </mxCell>
        <mxCell id="3Isz4eD0cGKzQO3ojk9g-7" value="Render" style="whiteSpace=wrap;html=1;rounded=1;arcSize=50;align=center;verticalAlign=middle;strokeWidth=1;autosize=1;spacing=4;treeFolding=1;treeMoving=1;newEdgeStyle={&quot;edgeStyle&quot;:&quot;entityRelationEdgeStyle&quot;,&quot;startArrow&quot;:&quot;none&quot;,&quot;endArrow&quot;:&quot;none&quot;,&quot;segment&quot;:10,&quot;curved&quot;:1,&quot;sourcePerimeterSpacing&quot;:0,&quot;targetPerimeterSpacing&quot;:0};fillColor=#1ba1e2;strokeColor=#006EAF;shadow=0;fontColor=#ffffff;" vertex="1" collapsed="1" parent="1">
          <mxGeometry x="440" y="520" width="120" height="30" as="geometry" />
        </mxCell>
        <mxCell id="3Isz4eD0cGKzQO3ojk9g-8" value="" style="edgeStyle=entityRelationEdgeStyle;startArrow=none;endArrow=none;segment=10;curved=1;sourcePerimeterSpacing=0;targetPerimeterSpacing=0;rounded=0;" edge="1" target="3Isz4eD0cGKzQO3ojk9g-7" parent="1" source="3Isz4eD0cGKzQO3ojk9g-1">
          <mxGeometry relative="1" as="geometry">
            <mxPoint x="314" y="640" as="sourcePoint" />
          </mxGeometry>
        </mxCell>
        <mxCell id="3Isz4eD0cGKzQO3ojk9g-18" value="普通：&lt;div&gt;一直在跑&lt;/div&gt;" style="rounded=1;whiteSpace=wrap;html=1;fillColor=#d5e8d4;strokeColor=#82b366;" vertex="1" parent="1">
          <mxGeometry x="80" y="1360" width="120" height="40" as="geometry" />
        </mxCell>
        <mxCell id="3Isz4eD0cGKzQO3ojk9g-23" value="&lt;font style=&quot;font-size: 26px;&quot;&gt;火车调度&lt;/font&gt;" style="text;html=1;whiteSpace=wrap;strokeColor=none;fillColor=none;align=center;verticalAlign=middle;rounded=0;" vertex="1" parent="1">
          <mxGeometry x="470" y="1280" width="160" height="40" as="geometry" />
        </mxCell>
        <mxCell id="3Isz4eD0cGKzQO3ojk9g-24" value="首发：&lt;div&gt;只跑一次/最开始跑&lt;/div&gt;" style="rounded=1;whiteSpace=wrap;html=1;fillColor=#f8cecc;strokeColor=#b85450;" vertex="1" parent="1">
          <mxGeometry x="80" y="1440" width="120" height="40" as="geometry" />
        </mxCell>
        <mxCell id="3Isz4eD0cGKzQO3ojk9g-25" value="Pre：&lt;div&gt;在前面跑&lt;/div&gt;" style="rounded=1;whiteSpace=wrap;html=1;fillColor=#b1ddf0;strokeColor=#10739e;" vertex="1" parent="1">
          <mxGeometry x="80" y="1520" width="120" height="40" as="geometry" />
        </mxCell>
        <mxCell id="3Isz4eD0cGKzQO3ojk9g-26" value="Post：&lt;div&gt;在后面跑&lt;/div&gt;" style="rounded=1;whiteSpace=wrap;html=1;fillColor=#b1ddf0;strokeColor=#10739e;" vertex="1" parent="1">
          <mxGeometry x="80" y="1600" width="120" height="40" as="geometry" />
        </mxCell>
        <mxCell id="3Isz4eD0cGKzQO3ojk9g-28" value="First：&lt;div&gt;最前面跑&lt;/div&gt;" style="rounded=1;whiteSpace=wrap;html=1;fillColor=#fff2cc;gradientColor=#ffd966;strokeColor=#d6b656;" vertex="1" parent="1">
          <mxGeometry x="-80" y="1720" width="120" height="40" as="geometry" />
        </mxCell>
        <mxCell id="3Isz4eD0cGKzQO3ojk9g-29" value="Pre：&lt;div&gt;在前面跑&lt;/div&gt;" style="rounded=1;whiteSpace=wrap;html=1;" vertex="1" parent="1">
          <mxGeometry x="80" y="1920" width="120" height="40" as="geometry" />
        </mxCell>
        <mxCell id="3Isz4eD0cGKzQO3ojk9g-30" value="Last：&lt;div&gt;最后面跑&lt;/div&gt;" style="rounded=1;whiteSpace=wrap;html=1;fillColor=#fff2cc;gradientColor=#ffd966;strokeColor=#d6b656;" vertex="1" parent="1">
          <mxGeometry x="110" y="1714" width="120" height="40" as="geometry" />
        </mxCell>
        <mxCell id="3Isz4eD0cGKzQO3ojk9g-31" value="慢速车：&lt;br&gt;&lt;div&gt;&lt;span style=&quot;background-color: transparent; color: light-dark(rgb(0, 0, 0), rgb(255, 255, 255));&quot;&gt;速度不到&lt;/span&gt;普通车1%&lt;/div&gt;" style="rounded=1;whiteSpace=wrap;html=1;fillColor=#f8cecc;gradientColor=#ea6b66;strokeColor=#b85450;" vertex="1" parent="1">
          <mxGeometry x="-190" y="1510" width="120" height="40" as="geometry" />
        </mxCell>
        <mxCell id="3Isz4eD0cGKzQO3ojk9g-32" value="快速车：&lt;br&gt;&lt;div&gt;&lt;span style=&quot;background-color: transparent; color: light-dark(rgb(0, 0, 0), rgb(255, 255, 255));&quot;&gt;速度远超&lt;/span&gt;普通车&lt;/div&gt;" style="rounded=1;whiteSpace=wrap;html=1;fillColor=#ffcd28;gradientColor=#ffa500;strokeColor=#d79b00;" vertex="1" parent="1">
          <mxGeometry x="-190" y="1570" width="120" height="40" as="geometry" />
        </mxCell>
        <mxCell id="3Isz4eD0cGKzQO3ojk9g-34" value="货车" style="rounded=1;whiteSpace=wrap;html=1;fillColor=#ECFFEB;strokeColor=#82b366;" vertex="1" parent="1">
          <mxGeometry x="-160" y="1360" width="120" height="40" as="geometry" />
        </mxCell>
        <mxCell id="3Isz4eD0cGKzQO3ojk9g-35" value="矿车" style="rounded=1;whiteSpace=wrap;html=1;fillColor=#ECFFEB;strokeColor=#82b366;" vertex="1" parent="1">
          <mxGeometry x="-160" y="1410" width="120" height="40" as="geometry" />
        </mxCell>
        <mxCell id="3Isz4eD0cGKzQO3ojk9g-44" style="edgeStyle=entityRelationEdgeStyle;rounded=0;orthogonalLoop=1;jettySize=auto;html=1;startArrow=none;endArrow=none;segment=10;curved=1;sourcePerimeterSpacing=0;targetPerimeterSpacing=0;fillColor=#b0e3e6;strokeColor=#0e8088;" edge="1" parent="1" source="3Isz4eD0cGKzQO3ojk9g-36" target="3Isz4eD0cGKzQO3ojk9g-40">
          <mxGeometry relative="1" as="geometry" />
        </mxCell>
        <mxCell id="3Isz4eD0cGKzQO3ojk9g-45" style="edgeStyle=entityRelationEdgeStyle;rounded=0;orthogonalLoop=1;jettySize=auto;html=1;startArrow=none;endArrow=none;segment=10;curved=1;sourcePerimeterSpacing=0;targetPerimeterSpacing=0;fillColor=#b0e3e6;strokeColor=#0e8088;" edge="1" parent="1" source="3Isz4eD0cGKzQO3ojk9g-36" target="3Isz4eD0cGKzQO3ojk9g-41">
          <mxGeometry relative="1" as="geometry" />
        </mxCell>
        <mxCell id="3Isz4eD0cGKzQO3ojk9g-46" style="edgeStyle=entityRelationEdgeStyle;rounded=0;orthogonalLoop=1;jettySize=auto;html=1;startArrow=none;endArrow=none;segment=10;curved=1;sourcePerimeterSpacing=0;targetPerimeterSpacing=0;fillColor=#b0e3e6;strokeColor=#0e8088;" edge="1" parent="1" source="3Isz4eD0cGKzQO3ojk9g-36" target="3Isz4eD0cGKzQO3ojk9g-42">
          <mxGeometry relative="1" as="geometry" />
        </mxCell>
        <mxCell id="3Isz4eD0cGKzQO3ojk9g-66" style="edgeStyle=entityRelationEdgeStyle;rounded=0;orthogonalLoop=1;jettySize=auto;html=1;startArrow=none;endArrow=none;segment=10;curved=1;sourcePerimeterSpacing=0;targetPerimeterSpacing=0;" edge="1" parent="1" source="3Isz4eD0cGKzQO3ojk9g-37" target="3Isz4eD0cGKzQO3ojk9g-47">
          <mxGeometry relative="1" as="geometry" />
        </mxCell>
        <mxCell id="3Isz4eD0cGKzQO3ojk9g-67" style="edgeStyle=entityRelationEdgeStyle;rounded=0;orthogonalLoop=1;jettySize=auto;html=1;startArrow=none;endArrow=none;segment=10;curved=1;sourcePerimeterSpacing=0;targetPerimeterSpacing=0;" edge="1" parent="1" source="3Isz4eD0cGKzQO3ojk9g-37" target="3Isz4eD0cGKzQO3ojk9g-48">
          <mxGeometry relative="1" as="geometry" />
        </mxCell>
        <mxCell id="3Isz4eD0cGKzQO3ojk9g-68" style="edgeStyle=entityRelationEdgeStyle;rounded=0;orthogonalLoop=1;jettySize=auto;html=1;startArrow=none;endArrow=none;segment=10;curved=1;sourcePerimeterSpacing=0;targetPerimeterSpacing=0;" edge="1" parent="1" source="3Isz4eD0cGKzQO3ojk9g-37" target="3Isz4eD0cGKzQO3ojk9g-49">
          <mxGeometry relative="1" as="geometry" />
        </mxCell>
        <mxCell id="3Isz4eD0cGKzQO3ojk9g-69" style="edgeStyle=entityRelationEdgeStyle;rounded=0;orthogonalLoop=1;jettySize=auto;html=1;startArrow=none;endArrow=none;segment=10;curved=1;sourcePerimeterSpacing=0;targetPerimeterSpacing=0;" edge="1" parent="1" source="3Isz4eD0cGKzQO3ojk9g-37" target="3Isz4eD0cGKzQO3ojk9g-52">
          <mxGeometry relative="1" as="geometry" />
        </mxCell>
        <mxCell id="3Isz4eD0cGKzQO3ojk9g-70" style="edgeStyle=entityRelationEdgeStyle;rounded=0;orthogonalLoop=1;jettySize=auto;html=1;startArrow=none;endArrow=none;segment=10;curved=1;sourcePerimeterSpacing=0;targetPerimeterSpacing=0;" edge="1" parent="1" source="3Isz4eD0cGKzQO3ojk9g-37" target="3Isz4eD0cGKzQO3ojk9g-54">
          <mxGeometry relative="1" as="geometry" />
        </mxCell>
        <mxCell id="3Isz4eD0cGKzQO3ojk9g-71" style="edgeStyle=entityRelationEdgeStyle;rounded=0;orthogonalLoop=1;jettySize=auto;html=1;startArrow=none;endArrow=none;segment=10;curved=1;sourcePerimeterSpacing=0;targetPerimeterSpacing=0;" edge="1" parent="1" source="3Isz4eD0cGKzQO3ojk9g-37" target="3Isz4eD0cGKzQO3ojk9g-63">
          <mxGeometry relative="1" as="geometry" />
        </mxCell>
        <mxCell id="3Isz4eD0cGKzQO3ojk9g-72" style="edgeStyle=entityRelationEdgeStyle;rounded=0;orthogonalLoop=1;jettySize=auto;html=1;startArrow=none;endArrow=none;segment=10;curved=1;sourcePerimeterSpacing=0;targetPerimeterSpacing=0;" edge="1" parent="1" source="3Isz4eD0cGKzQO3ojk9g-37" target="3Isz4eD0cGKzQO3ojk9g-65">
          <mxGeometry relative="1" as="geometry" />
        </mxCell>
        <mxCell id="3Isz4eD0cGKzQO3ojk9g-82" style="edgeStyle=entityRelationEdgeStyle;rounded=0;orthogonalLoop=1;jettySize=auto;html=1;startArrow=none;endArrow=none;segment=10;curved=1;sourcePerimeterSpacing=0;targetPerimeterSpacing=0;" edge="1" parent="1" source="3Isz4eD0cGKzQO3ojk9g-37" target="3Isz4eD0cGKzQO3ojk9g-81">
          <mxGeometry relative="1" as="geometry" />
        </mxCell>
        <mxCell id="3Isz4eD0cGKzQO3ojk9g-37" value="每帧" style="whiteSpace=wrap;html=1;rounded=1;arcSize=50;align=center;verticalAlign=middle;strokeWidth=1;autosize=1;spacing=4;treeFolding=1;treeMoving=1;newEdgeStyle={&quot;edgeStyle&quot;:&quot;entityRelationEdgeStyle&quot;,&quot;startArrow&quot;:&quot;none&quot;,&quot;endArrow&quot;:&quot;none&quot;,&quot;segment&quot;:10,&quot;curved&quot;:1,&quot;sourcePerimeterSpacing&quot;:0,&quot;targetPerimeterSpacing&quot;:0};fillColor=#d5e8d4;strokeColor=#82b366;shadow=0;" vertex="1" parent="1">
          <mxGeometry x="600" y="600" width="70" height="30" as="geometry" />
        </mxCell>
        <mxCell id="3Isz4eD0cGKzQO3ojk9g-40" value="PreStartup" style="whiteSpace=wrap;html=1;rounded=1;arcSize=50;align=center;verticalAlign=middle;strokeWidth=1;autosize=1;spacing=4;treeFolding=1;treeMoving=1;newEdgeStyle={&quot;edgeStyle&quot;:&quot;entityRelationEdgeStyle&quot;,&quot;startArrow&quot;:&quot;none&quot;,&quot;endArrow&quot;:&quot;none&quot;,&quot;segment&quot;:10,&quot;curved&quot;:1,&quot;sourcePerimeterSpacing&quot;:0,&quot;targetPerimeterSpacing&quot;:0};fillColor=#b1ddf0;strokeColor=#10739e;shadow=0;" vertex="1" parent="1">
          <mxGeometry x="720" y="240" width="100" height="30" as="geometry" />
        </mxCell>
        <mxCell id="3Isz4eD0cGKzQO3ojk9g-41" value="Startup" style="whiteSpace=wrap;html=1;rounded=1;arcSize=50;align=center;verticalAlign=middle;strokeWidth=1;autosize=1;spacing=4;treeFolding=1;treeMoving=1;newEdgeStyle={&quot;edgeStyle&quot;:&quot;entityRelationEdgeStyle&quot;,&quot;startArrow&quot;:&quot;none&quot;,&quot;endArrow&quot;:&quot;none&quot;,&quot;segment&quot;:10,&quot;curved&quot;:1,&quot;sourcePerimeterSpacing&quot;:0,&quot;targetPerimeterSpacing&quot;:0};fillColor=#b0e3e6;strokeColor=#0e8088;shadow=0;" vertex="1" parent="1">
          <mxGeometry x="720" y="280" width="80" height="30" as="geometry" />
        </mxCell>
        <mxCell id="3Isz4eD0cGKzQO3ojk9g-42" value="PostStartup" style="whiteSpace=wrap;html=1;rounded=1;arcSize=50;align=center;verticalAlign=middle;strokeWidth=1;autosize=1;spacing=4;treeFolding=1;treeMoving=1;newEdgeStyle={&quot;edgeStyle&quot;:&quot;entityRelationEdgeStyle&quot;,&quot;startArrow&quot;:&quot;none&quot;,&quot;endArrow&quot;:&quot;none&quot;,&quot;segment&quot;:10,&quot;curved&quot;:1,&quot;sourcePerimeterSpacing&quot;:0,&quot;targetPerimeterSpacing&quot;:0};fillColor=#b1ddf0;strokeColor=#10739e;shadow=0;" vertex="1" parent="1">
          <mxGeometry x="720" y="320" width="110" height="30" as="geometry" />
        </mxCell>
        <mxCell id="3Isz4eD0cGKzQO3ojk9g-47" value="First" style="whiteSpace=wrap;html=1;rounded=1;arcSize=50;align=center;verticalAlign=middle;strokeWidth=1;autosize=1;spacing=4;treeFolding=1;treeMoving=1;newEdgeStyle={&quot;edgeStyle&quot;:&quot;entityRelationEdgeStyle&quot;,&quot;startArrow&quot;:&quot;none&quot;,&quot;endArrow&quot;:&quot;none&quot;,&quot;segment&quot;:10,&quot;curved&quot;:1,&quot;sourcePerimeterSpacing&quot;:0,&quot;targetPerimeterSpacing&quot;:0};fillColor=#e1d5e7;strokeColor=#9673a6;shadow=0;" vertex="1" parent="1">
          <mxGeometry x="720" y="440" width="70" height="30" as="geometry" />
        </mxCell>
        <mxCell id="3Isz4eD0cGKzQO3ojk9g-48" value="PreUpdate" style="whiteSpace=wrap;html=1;rounded=1;arcSize=50;align=center;verticalAlign=middle;strokeWidth=1;autosize=1;spacing=4;treeFolding=1;treeMoving=1;newEdgeStyle={&quot;edgeStyle&quot;:&quot;entityRelationEdgeStyle&quot;,&quot;startArrow&quot;:&quot;none&quot;,&quot;endArrow&quot;:&quot;none&quot;,&quot;segment&quot;:10,&quot;curved&quot;:1,&quot;sourcePerimeterSpacing&quot;:0,&quot;targetPerimeterSpacing&quot;:0};fillColor=#b1ddf0;strokeColor=#10739e;shadow=0;" vertex="1" parent="1">
          <mxGeometry x="720" y="480" width="100" height="30" as="geometry" />
        </mxCell>
        <mxCell id="3Isz4eD0cGKzQO3ojk9g-73" style="edgeStyle=entityRelationEdgeStyle;rounded=0;orthogonalLoop=1;jettySize=auto;html=1;startArrow=none;endArrow=none;segment=10;curved=1;sourcePerimeterSpacing=0;targetPerimeterSpacing=0;" edge="1" parent="1" source="3Isz4eD0cGKzQO3ojk9g-49" target="3Isz4eD0cGKzQO3ojk9g-57">
          <mxGeometry relative="1" as="geometry" />
        </mxCell>
        <mxCell id="3Isz4eD0cGKzQO3ojk9g-75" style="edgeStyle=entityRelationEdgeStyle;rounded=0;orthogonalLoop=1;jettySize=auto;html=1;startArrow=none;endArrow=none;segment=10;curved=1;sourcePerimeterSpacing=0;targetPerimeterSpacing=0;" edge="1" parent="1" source="3Isz4eD0cGKzQO3ojk9g-49" target="3Isz4eD0cGKzQO3ojk9g-64">
          <mxGeometry relative="1" as="geometry" />
        </mxCell>
        <mxCell id="3Isz4eD0cGKzQO3ojk9g-76" style="edgeStyle=entityRelationEdgeStyle;rounded=0;orthogonalLoop=1;jettySize=auto;html=1;startArrow=none;endArrow=none;segment=10;curved=1;sourcePerimeterSpacing=0;targetPerimeterSpacing=0;" edge="1" parent="1" source="3Isz4eD0cGKzQO3ojk9g-49" target="3Isz4eD0cGKzQO3ojk9g-74">
          <mxGeometry relative="1" as="geometry" />
        </mxCell>
        <mxCell id="3Isz4eD0cGKzQO3ojk9g-49" value="RunFixedMainLoop" style="whiteSpace=wrap;html=1;rounded=1;arcSize=50;align=center;verticalAlign=middle;strokeWidth=1;autosize=1;spacing=4;treeFolding=1;treeMoving=1;newEdgeStyle={&quot;edgeStyle&quot;:&quot;entityRelationEdgeStyle&quot;,&quot;startArrow&quot;:&quot;none&quot;,&quot;endArrow&quot;:&quot;none&quot;,&quot;segment&quot;:10,&quot;curved&quot;:1,&quot;sourcePerimeterSpacing&quot;:0,&quot;targetPerimeterSpacing&quot;:0};fillColor=#d5e8d4;strokeColor=#82b366;shadow=0;" vertex="1" parent="1">
          <mxGeometry x="720" y="560" width="150" height="30" as="geometry" />
        </mxCell>
        <mxCell id="3Isz4eD0cGKzQO3ojk9g-50" value="FixedFirst" style="whiteSpace=wrap;html=1;rounded=1;arcSize=50;align=center;verticalAlign=middle;strokeWidth=1;autosize=1;spacing=4;treeFolding=1;treeMoving=1;newEdgeStyle={&quot;edgeStyle&quot;:&quot;entityRelationEdgeStyle&quot;,&quot;startArrow&quot;:&quot;none&quot;,&quot;endArrow&quot;:&quot;none&quot;,&quot;segment&quot;:10,&quot;curved&quot;:1,&quot;sourcePerimeterSpacing&quot;:0,&quot;targetPerimeterSpacing&quot;:0};fillColor=#e1d5e7;strokeColor=#9673a6;shadow=0;" vertex="1" parent="1">
          <mxGeometry x="1240" y="480" width="100" height="30" as="geometry" />
        </mxCell>
        <mxCell id="3Isz4eD0cGKzQO3ojk9g-51" value="FixedPreUpdate" style="whiteSpace=wrap;html=1;rounded=1;arcSize=50;align=center;verticalAlign=middle;strokeWidth=1;autosize=1;spacing=4;treeFolding=1;treeMoving=1;newEdgeStyle={&quot;edgeStyle&quot;:&quot;entityRelationEdgeStyle&quot;,&quot;startArrow&quot;:&quot;none&quot;,&quot;endArrow&quot;:&quot;none&quot;,&quot;segment&quot;:10,&quot;curved&quot;:1,&quot;sourcePerimeterSpacing&quot;:0,&quot;targetPerimeterSpacing&quot;:0};fillColor=#b1ddf0;strokeColor=#10739e;shadow=0;" vertex="1" parent="1">
          <mxGeometry x="1240" y="520" width="130" height="30" as="geometry" />
        </mxCell>
        <mxCell id="3Isz4eD0cGKzQO3ojk9g-52" value="Update" style="whiteSpace=wrap;html=1;rounded=1;arcSize=50;align=center;verticalAlign=middle;strokeWidth=1;autosize=1;spacing=4;treeFolding=1;treeMoving=1;newEdgeStyle={&quot;edgeStyle&quot;:&quot;entityRelationEdgeStyle&quot;,&quot;startArrow&quot;:&quot;none&quot;,&quot;endArrow&quot;:&quot;none&quot;,&quot;segment&quot;:10,&quot;curved&quot;:1,&quot;sourcePerimeterSpacing&quot;:0,&quot;targetPerimeterSpacing&quot;:0};fillColor=#d5e8d4;strokeColor=#82b366;shadow=0;" vertex="1" parent="1">
          <mxGeometry x="720" y="600" width="80" height="30" as="geometry" />
        </mxCell>
        <mxCell id="3Isz4eD0cGKzQO3ojk9g-53" value="FixedPostUpdate" style="whiteSpace=wrap;html=1;rounded=1;arcSize=50;align=center;verticalAlign=middle;strokeWidth=1;autosize=1;spacing=4;treeFolding=1;treeMoving=1;newEdgeStyle={&quot;edgeStyle&quot;:&quot;entityRelationEdgeStyle&quot;,&quot;startArrow&quot;:&quot;none&quot;,&quot;endArrow&quot;:&quot;none&quot;,&quot;segment&quot;:10,&quot;curved&quot;:1,&quot;sourcePerimeterSpacing&quot;:0,&quot;targetPerimeterSpacing&quot;:0};fillColor=#b1ddf0;strokeColor=#10739e;shadow=0;" vertex="1" parent="1">
          <mxGeometry x="1240" y="600" width="140" height="30" as="geometry" />
        </mxCell>
        <mxCell id="3Isz4eD0cGKzQO3ojk9g-54" value="SpawnScene" style="whiteSpace=wrap;html=1;rounded=1;arcSize=50;align=center;verticalAlign=middle;strokeWidth=1;autosize=1;spacing=4;treeFolding=1;treeMoving=1;newEdgeStyle={&quot;edgeStyle&quot;:&quot;entityRelationEdgeStyle&quot;,&quot;startArrow&quot;:&quot;none&quot;,&quot;endArrow&quot;:&quot;none&quot;,&quot;segment&quot;:10,&quot;curved&quot;:1,&quot;sourcePerimeterSpacing&quot;:0,&quot;targetPerimeterSpacing&quot;:0};fillColor=#d5e8d4;strokeColor=#82b366;shadow=0;" vertex="1" parent="1">
          <mxGeometry x="720" y="640" width="120" height="30" as="geometry" />
        </mxCell>
        <mxCell id="3Isz4eD0cGKzQO3ojk9g-55" value="FixedLast" style="whiteSpace=wrap;html=1;rounded=1;arcSize=50;align=center;verticalAlign=middle;strokeWidth=1;autosize=1;spacing=4;treeFolding=1;treeMoving=1;newEdgeStyle={&quot;edgeStyle&quot;:&quot;entityRelationEdgeStyle&quot;,&quot;startArrow&quot;:&quot;none&quot;,&quot;endArrow&quot;:&quot;none&quot;,&quot;segment&quot;:10,&quot;curved&quot;:1,&quot;sourcePerimeterSpacing&quot;:0,&quot;targetPerimeterSpacing&quot;:0};fillColor=#e1d5e7;strokeColor=#9673a6;shadow=0;" vertex="1" parent="1">
          <mxGeometry x="1240" y="640" width="100" height="30" as="geometry" />
        </mxCell>
        <mxCell id="3Isz4eD0cGKzQO3ojk9g-56" value="FixedUpdate" style="whiteSpace=wrap;html=1;rounded=1;arcSize=50;align=center;verticalAlign=middle;strokeWidth=1;autosize=1;spacing=4;treeFolding=1;treeMoving=1;newEdgeStyle={&quot;edgeStyle&quot;:&quot;entityRelationEdgeStyle&quot;,&quot;startArrow&quot;:&quot;none&quot;,&quot;endArrow&quot;:&quot;none&quot;,&quot;segment&quot;:10,&quot;curved&quot;:1,&quot;sourcePerimeterSpacing&quot;:0,&quot;targetPerimeterSpacing&quot;:0};fillColor=#fff2cc;strokeColor=#d6b656;shadow=0;gradientColor=#ffd966;" vertex="1" parent="1">
          <mxGeometry x="1240" y="560" width="110" height="30" as="geometry" />
        </mxCell>
        <mxCell id="3Isz4eD0cGKzQO3ojk9g-58" style="edgeStyle=entityRelationEdgeStyle;rounded=0;orthogonalLoop=1;jettySize=auto;html=1;startArrow=none;endArrow=none;segment=10;curved=1;sourcePerimeterSpacing=0;targetPerimeterSpacing=0;fillColor=#fff2cc;gradientColor=#ffd966;strokeColor=#d6b656;" edge="1" parent="1" source="3Isz4eD0cGKzQO3ojk9g-57" target="3Isz4eD0cGKzQO3ojk9g-50">
          <mxGeometry relative="1" as="geometry" />
        </mxCell>
        <mxCell id="3Isz4eD0cGKzQO3ojk9g-59" style="edgeStyle=entityRelationEdgeStyle;rounded=0;orthogonalLoop=1;jettySize=auto;html=1;startArrow=none;endArrow=none;segment=10;curved=1;sourcePerimeterSpacing=0;targetPerimeterSpacing=0;fillColor=#fff2cc;gradientColor=#ffd966;strokeColor=#d6b656;" edge="1" parent="1" source="3Isz4eD0cGKzQO3ojk9g-57" target="3Isz4eD0cGKzQO3ojk9g-51">
          <mxGeometry relative="1" as="geometry" />
        </mxCell>
        <mxCell id="3Isz4eD0cGKzQO3ojk9g-60" style="edgeStyle=entityRelationEdgeStyle;rounded=0;orthogonalLoop=1;jettySize=auto;html=1;startArrow=none;endArrow=none;segment=10;curved=1;sourcePerimeterSpacing=0;targetPerimeterSpacing=0;fillColor=#fff2cc;gradientColor=#ffd966;strokeColor=#d6b656;" edge="1" parent="1" source="3Isz4eD0cGKzQO3ojk9g-57" target="3Isz4eD0cGKzQO3ojk9g-56">
          <mxGeometry relative="1" as="geometry" />
        </mxCell>
        <mxCell id="3Isz4eD0cGKzQO3ojk9g-61" style="edgeStyle=entityRelationEdgeStyle;rounded=0;orthogonalLoop=1;jettySize=auto;html=1;startArrow=none;endArrow=none;segment=10;curved=1;sourcePerimeterSpacing=0;targetPerimeterSpacing=0;fillColor=#fff2cc;gradientColor=#ffd966;strokeColor=#d6b656;" edge="1" parent="1" source="3Isz4eD0cGKzQO3ojk9g-57" target="3Isz4eD0cGKzQO3ojk9g-53">
          <mxGeometry relative="1" as="geometry" />
        </mxCell>
        <mxCell id="3Isz4eD0cGKzQO3ojk9g-62" style="edgeStyle=entityRelationEdgeStyle;rounded=0;orthogonalLoop=1;jettySize=auto;html=1;startArrow=none;endArrow=none;segment=10;curved=1;sourcePerimeterSpacing=0;targetPerimeterSpacing=0;fillColor=#fff2cc;gradientColor=#ffd966;strokeColor=#d6b656;" edge="1" parent="1" source="3Isz4eD0cGKzQO3ojk9g-57" target="3Isz4eD0cGKzQO3ojk9g-55">
          <mxGeometry relative="1" as="geometry" />
        </mxCell>
        <mxCell id="3Isz4eD0cGKzQO3ojk9g-57" value="FixedMain" style="whiteSpace=wrap;html=1;rounded=1;arcSize=50;align=center;verticalAlign=middle;strokeWidth=1;autosize=1;spacing=4;treeFolding=1;treeMoving=1;newEdgeStyle={&quot;edgeStyle&quot;:&quot;entityRelationEdgeStyle&quot;,&quot;startArrow&quot;:&quot;none&quot;,&quot;endArrow&quot;:&quot;none&quot;,&quot;segment&quot;:10,&quot;curved&quot;:1,&quot;sourcePerimeterSpacing&quot;:0,&quot;targetPerimeterSpacing&quot;:0};fillColor=#fff2cc;strokeColor=#d6b656;shadow=0;gradientColor=#ffd966;" vertex="1" parent="1">
          <mxGeometry x="1080" y="560" width="100" height="30" as="geometry" />
        </mxCell>
        <mxCell id="3Isz4eD0cGKzQO3ojk9g-63" value="PostUpdate" style="whiteSpace=wrap;html=1;rounded=1;arcSize=50;align=center;verticalAlign=middle;strokeWidth=1;autosize=1;spacing=4;treeFolding=1;treeMoving=1;newEdgeStyle={&quot;edgeStyle&quot;:&quot;entityRelationEdgeStyle&quot;,&quot;startArrow&quot;:&quot;none&quot;,&quot;endArrow&quot;:&quot;none&quot;,&quot;segment&quot;:10,&quot;curved&quot;:1,&quot;sourcePerimeterSpacing&quot;:0,&quot;targetPerimeterSpacing&quot;:0};fillColor=#b1ddf0;strokeColor=#10739e;shadow=0;" vertex="1" parent="1">
          <mxGeometry x="720" y="680" width="110" height="30" as="geometry" />
        </mxCell>
        <mxCell id="3Isz4eD0cGKzQO3ojk9g-64" value="Pre" style="whiteSpace=wrap;html=1;rounded=1;arcSize=50;align=center;verticalAlign=middle;strokeWidth=1;autosize=1;spacing=4;treeFolding=1;treeMoving=1;newEdgeStyle={&quot;edgeStyle&quot;:&quot;entityRelationEdgeStyle&quot;,&quot;startArrow&quot;:&quot;none&quot;,&quot;endArrow&quot;:&quot;none&quot;,&quot;segment&quot;:10,&quot;curved&quot;:1,&quot;sourcePerimeterSpacing&quot;:0,&quot;targetPerimeterSpacing&quot;:0};shadow=0;" vertex="1" parent="1">
          <mxGeometry x="920" y="520" width="60" height="30" as="geometry" />
        </mxCell>
        <mxCell id="3Isz4eD0cGKzQO3ojk9g-65" value="Last" style="whiteSpace=wrap;html=1;rounded=1;arcSize=50;align=center;verticalAlign=middle;strokeWidth=1;autosize=1;spacing=4;treeFolding=1;treeMoving=1;newEdgeStyle={&quot;edgeStyle&quot;:&quot;entityRelationEdgeStyle&quot;,&quot;startArrow&quot;:&quot;none&quot;,&quot;endArrow&quot;:&quot;none&quot;,&quot;segment&quot;:10,&quot;curved&quot;:1,&quot;sourcePerimeterSpacing&quot;:0,&quot;targetPerimeterSpacing&quot;:0};fillColor=#e1d5e7;strokeColor=#9673a6;shadow=0;" vertex="1" parent="1">
          <mxGeometry x="720" y="720" width="70" height="30" as="geometry" />
        </mxCell>
        <mxCell id="3Isz4eD0cGKzQO3ojk9g-74" value="Post" style="whiteSpace=wrap;html=1;rounded=1;arcSize=50;align=center;verticalAlign=middle;strokeWidth=1;autosize=1;spacing=4;treeFolding=1;treeMoving=1;newEdgeStyle={&quot;edgeStyle&quot;:&quot;entityRelationEdgeStyle&quot;,&quot;startArrow&quot;:&quot;none&quot;,&quot;endArrow&quot;:&quot;none&quot;,&quot;segment&quot;:10,&quot;curved&quot;:1,&quot;sourcePerimeterSpacing&quot;:0,&quot;targetPerimeterSpacing&quot;:0};shadow=0;" vertex="1" parent="1">
          <mxGeometry x="920" y="600" width="70" height="30" as="geometry" />
        </mxCell>
        <mxCell id="3Isz4eD0cGKzQO3ojk9g-77" value="&lt;font style=&quot;font-size: 23px;&quot;&gt;只跑一次&lt;/font&gt;" style="rounded=1;whiteSpace=wrap;html=1;verticalAlign=top;fillColor=none;strokeColor=#3BFF15;movable=1;resizable=1;rotatable=1;deletable=1;editable=1;locked=0;connectable=1;" vertex="1" parent="1">
          <mxGeometry x="580" y="100" width="290" height="270" as="geometry" />
        </mxCell>
        <mxCell id="3Isz4eD0cGKzQO3ojk9g-84" style="edgeStyle=entityRelationEdgeStyle;rounded=0;orthogonalLoop=1;jettySize=auto;html=1;startArrow=none;endArrow=none;segment=10;curved=1;sourcePerimeterSpacing=0;targetPerimeterSpacing=0;" edge="1" parent="1" source="3Isz4eD0cGKzQO3ojk9g-36" target="3Isz4eD0cGKzQO3ojk9g-83">
          <mxGeometry relative="1" as="geometry" />
        </mxCell>
        <mxCell id="3Isz4eD0cGKzQO3ojk9g-36" value="首帧" style="whiteSpace=wrap;html=1;rounded=1;arcSize=50;align=center;verticalAlign=middle;strokeWidth=1;autosize=1;spacing=4;treeFolding=1;treeMoving=1;newEdgeStyle={&quot;edgeStyle&quot;:&quot;entityRelationEdgeStyle&quot;,&quot;startArrow&quot;:&quot;none&quot;,&quot;endArrow&quot;:&quot;none&quot;,&quot;segment&quot;:10,&quot;curved&quot;:1,&quot;sourcePerimeterSpacing&quot;:0,&quot;targetPerimeterSpacing&quot;:0};fillColor=#b0e3e6;strokeColor=#0e8088;shadow=0;movable=1;resizable=1;rotatable=1;deletable=1;editable=1;locked=0;connectable=1;" vertex="1" parent="1">
          <mxGeometry x="600" y="260" width="70" height="30" as="geometry" />
        </mxCell>
        <mxCell id="3Isz4eD0cGKzQO3ojk9g-81" value="StateTransition" style="whiteSpace=wrap;html=1;rounded=1;arcSize=50;align=center;verticalAlign=middle;strokeWidth=1;autosize=1;spacing=4;treeFolding=1;treeMoving=1;newEdgeStyle={&quot;edgeStyle&quot;:&quot;entityRelationEdgeStyle&quot;,&quot;startArrow&quot;:&quot;none&quot;,&quot;endArrow&quot;:&quot;none&quot;,&quot;segment&quot;:10,&quot;curved&quot;:1,&quot;sourcePerimeterSpacing&quot;:0,&quot;targetPerimeterSpacing&quot;:0};fillColor=#d5e8d4;strokeColor=#82b366;shadow=0;" vertex="1" parent="1">
          <mxGeometry x="720" y="520" width="120" height="30" as="geometry" />
        </mxCell>
        <mxCell id="3Isz4eD0cGKzQO3ojk9g-83" value="StateTransition" style="whiteSpace=wrap;html=1;rounded=1;arcSize=50;align=center;verticalAlign=middle;strokeWidth=1;autosize=1;spacing=4;treeFolding=1;treeMoving=1;newEdgeStyle={&quot;edgeStyle&quot;:&quot;entityRelationEdgeStyle&quot;,&quot;startArrow&quot;:&quot;none&quot;,&quot;endArrow&quot;:&quot;none&quot;,&quot;segment&quot;:10,&quot;curved&quot;:1,&quot;sourcePerimeterSpacing&quot;:0,&quot;targetPerimeterSpacing&quot;:0};fillColor=#d5e8d4;strokeColor=#82b366;shadow=0;" vertex="1" parent="1">
          <mxGeometry x="720" y="200" width="120" height="30" as="geometry" />
        </mxCell>
        <mxCell id="3Isz4eD0cGKzQO3ojk9g-85" value="&lt;h1 style=&quot;margin-top: 0px;&quot;&gt;社区约定&lt;/h1&gt;&lt;p&gt;PreUpdate处理预备工作： 处理OS事件，eg：统一输入格式。&lt;/p&gt;&lt;p&gt;RunFixedMainLoop处理固定时间隔间的逻辑，而不是基于帧间隔的。不并行处理。&lt;/p&gt;&lt;p&gt;FixedUpdate处理大部分游戏逻辑。eg：物理/AI/网络/游戏规则。&lt;/p&gt;&lt;p&gt;Update处理UI/输入/音频控制。游戏逻辑推荐使用FixedUpdate。&lt;/p&gt;&lt;p&gt;PostUpdate常处理Transform到全局Transform的转换。&lt;/p&gt;&lt;p&gt;&lt;br&gt;&lt;/p&gt;&lt;p&gt;相机移动，推荐放在RunFixedMainLoopSystems::Before。&lt;/p&gt;&lt;p&gt;插值计算(eg:Transform)，推荐放在RunFixedMainLoopSystems::After。&lt;/p&gt;" style="text;html=1;whiteSpace=wrap;overflow=hidden;rounded=0;" vertex="1" parent="1">
          <mxGeometry x="960" y="60" width="410" height="270" as="geometry" />
        </mxCell>
      </root>
    </mxGraphModel>
  </diagram>
</mxfile>
